<svg xmlns="http://www.w3.org/2000/svg" viewBox="0 0 16 16">
  <style>.no-fill{fill:none}.stroke{stroke:currentColor;stroke-width:1.5px;stroke-linecap:round;stroke-linejoin:round}</style>
  <path class="no-fill stroke" d="M 0 0 C 0 -0.138 -0.112 -0.25 -0.25 -0.25 L -9.011 -0.25 C -9.149 -0.25 -9.261 -0.138 -9.261 0 L -9.261 12 C -9.261 12.138 -9.149 12.25 -9.011 12.25 L -4.781 12.25 L -4.781 8.22 C -4.781 7.806 -4.445 7.47 -4.031 7.47 L 0 7.47 Z M -3.28 11.189 L -1.061 8.97 L -3.28 8.97 Z M 1.28 8.75 L -3.5 13.53 L -3.5 13.53 C -3.636 13.666 -3.823 13.75 -4.031 13.75 L -9.011 13.75 C -9.976 13.75 -10.761 12.965 -10.761 12 L -10.761 0 C -10.761 -0.965 -9.976 -1.75 -9.011 -1.75 L -0.25 -1.75 C 0.715 -1.75 1.5 -0.965 1.5 0 L 1.5 8.22 C 1.5 8.427 1.416 8.614 1.28 8.75" transform="matrix(1,0,0,-1,12.6309,14)"/>
</svg>
