<svg xmlns="http://www.w3.org/2000/svg" viewBox="0 0 16 16">
  <style>.fill{fill:currentColor}</style>
  <path class="fill" d="M 0 0 C -0.276 0 -0.5 -0.224 -0.5 -0.5 L -0.5 -12.5 C -0.5 -12.775 -0.276 -13 0 -13 L 9.061 -13 C 9.336 -13 9.561 -12.775 9.561 -12.5 L 9.561 -5.531 L 4.53 -5.531 C 4.254 -5.531 4.03 -5.307 4.03 -5.031 L 4.03 0 Z M 9.061 -14 L 0 -14 C -0.827 -14 -1.5 -13.327 -1.5 -12.5 L -1.5 -0.5 C -1.5 0.327 -0.827 1 0 1 L 4.53 1 C 4.807 1 5.03 0.776 5.03 0.5 L 5.03 -4.531 L 10.061 -4.531 C 10.337 -4.531 10.561 -4.754 10.561 -5.031 L 10.561 -12.5 C 10.561 -13.327 9.888 -14 9.061 -14" transform="matrix(1,0,0,-1,3.4697,1.4746)"/>
  <path class="fill" d="M 0 0 L -5.53 5.531 L -4.823 6.238 L 0.707 0.707 Z" transform="matrix(1,0,0,-1,13.1768,6.8589)"/>
  <path class="fill" d="M 0 0 L -5.061 0 C -5.337 0 -5.561 0.224 -5.561 0.5 C -5.561 0.776 -5.337 1 -5.061 1 L 0 1 C 0.276 1 0.5 0.776 0.5 0.5 C 0.5 0.224 0.276 0 0 0" transform="matrix(1,0,0,-1,10.5303,12.4902)"/>
  <path class="fill" d="M 0 0 L -5.061 0 C -5.337 0 -5.561 0.224 -5.561 0.5 C -5.561 0.776 -5.337 1 -5.061 1 L 0 1 C 0.276 1 0.5 0.776 0.5 0.5 C 0.5 0.224 0.276 0 0 0" transform="matrix(1,0,0,-1,10.5303,9.9902)"/>
</svg>
