<svg xmlns="http://www.w3.org/2000/svg" viewBox="0 0 16 16">
  <style>.fill{fill:currentColor}</style>
  <path class="fill" d="M 0 0 C -0.276 0 -0.5 -0.224 -0.5 -0.5 L -0.5 -12.5 C -0.5 -12.775 -0.276 -13 0 -13 L 9.061 -13 C 9.336 -13 9.561 -12.775 9.561 -12.5 L 9.561 -4.781 L 5.28 -4.781 C 5.004 -4.781 4.78 -4.557 4.78 -4.281 L 4.78 0 Z M 9.061 -14 L 0 -14 C -0.827 -14 -1.5 -13.327 -1.5 -12.5 L -1.5 -0.5 C -1.5 0.327 -0.827 1 0 1 L 5.28 1 C 5.557 1 5.78 0.776 5.78 0.5 L 5.78 -3.781 L 10.061 -3.781 C 10.337 -3.781 10.561 -4.004 10.561 -4.281 L 10.561 -12.5 C 10.561 -13.327 9.888 -14 9.061 -14" transform="matrix(1,0,0,-1,3.4697,1.5)"/>
  <path class="fill" d="M 0 0 L -4.78 4.781 L -4.073 5.488 L 0.707 0.707 Z" transform="matrix(1,0,0,-1,13.1768,6.1343)"/>
</svg>
