<svg xmlns="http://www.w3.org/2000/svg" viewBox="0 0 16 16">
  <style>.fill{fill:currentColor}</style>
  <path class="fill" d="M 0 0 L -4.48 0 C -4.895 0 -5.23 0.336 -5.23 0.75 L -5.23 5.218 L -3.73 5.218 L -3.73 1.5 L 0 1.5 Z" transform="matrix(1,0,0,-1,13,6.2178)"/>
  <path class="fill" d="M 0 0 L 8.5 0 L 8.5 8.471 L 4.459 12.5 L 0 12.5 Z M 8.75 -1.5 L -0.25 -1.5 C -0.939 -1.5 -1.5 -0.939 -1.5 -0.25 L -1.5 12.75 C -1.5 13.439 -0.939 14 -0.25 14 L 4.77 14 C 4.968 14 5.159 13.921 5.299 13.781 L 9.779 9.313 C 9.921 9.172 10 8.981 10 8.782 L 10 -0.25 C 10 -0.939 9.439 -1.5 8.75 -1.5" transform="matrix(1,0,0,-1,3.75,14.25)"/>
</svg>
