<svg xmlns="http://www.w3.org/2000/svg" viewBox="0 0 16 16">
  <style>.no-fill{fill:none}.stroke{stroke:currentColor;stroke-width:1.5px;stroke-linecap:round;stroke-linejoin:round}</style>
  <path class="no-fill stroke" d="M 0 0 C 2.788 0.922 4.8 3.55 4.8 6.647 C 4.8 10.513 1.666 13.647 -2.2 13.647 C -6.066 13.647 -9.2 10.513 -9.2 6.647 C -9.2 3.55 -7.188 0.922 -4.4 0 L -4.4 0.1 C -4.4 2.71 -4.355 3.113 -3.485 3.832 C -5.442 3.832 -6.161 6.182 -5.23 7.555 C -5.956 8.297 -5.548 9.064 -5.274 9.495 C -4.166 9.719 -3.517 8.833 -3.517 8.833 C -3.517 8.833 -3.024 8.947 -2.2 8.947 C -1.376 8.947 -0.883 8.833 -0.883 8.833 C -0.883 8.833 -0.234 9.719 0.874 9.495 C 1.148 9.064 1.556 8.297 0.83 7.555 C 1.76 6.182 1.042 3.832 -0.915 3.832 C -0.045 3.113 0 2.71 0 0.1 L 0 0 Z" transform="matrix(1,0,0,-1,10.2001,14.8236)"/>
  <path class="no-fill stroke" d="M 0 0 C 0 0 1.025 -1.323 2.005 -1.265" transform="matrix(1,0,0,-1,3.8323,11.4096)"/>
</svg>
