<svg xmlns="http://www.w3.org/2000/svg" viewBox="0 0 16 16">
  <style>.fill{fill:currentColor}</style>
  <path class="fill" d="M 0 0 C 0.262 -0.545 0.321 -1.213 0.335 -2.266 C 2.347 -1.193 3.639 0.91 3.639 3.25 C 3.639 6.696 0.835 9.5 -2.611 9.5 C -6.058 9.5 -8.861 6.696 -8.861 3.25 C -8.861 0.91 -7.569 -1.193 -5.558 -2.266 C -5.544 -1.212 -5.485 -0.545 -5.223 0 C -5.715 0.258 -6.124 0.666 -6.408 1.201 C -6.88 2.092 -6.915 3.191 -6.53 4.088 C -6.864 4.654 -6.981 5.454 -6.319 6.5 C -6.209 6.672 -6.034 6.793 -5.834 6.833 C -4.88 7.025 -4.119 6.642 -3.659 6.239 C -3.152 6.302 -2.071 6.302 -1.563 6.239 C -1.104 6.642 -0.342 7.025 0.611 6.833 C 0.812 6.793 0.987 6.672 1.097 6.5 C 1.759 5.455 1.642 4.654 1.308 4.088 C 1.692 3.191 1.658 2.092 1.186 1.202 C 0.901 0.666 0.493 0.258 0 0 M -0.411 -4.147 C -0.566 -4.147 -0.721 -4.099 -0.851 -4.006 C -1.046 -3.864 -1.161 -3.639 -1.161 -3.397 L -1.161 -3.297 C -1.161 -0.675 -1.234 -0.614 -1.804 -0.144 C -2.048 0.059 -2.139 0.391 -2.032 0.688 C -1.925 0.986 -1.643 1.185 -1.326 1.185 C -0.661 1.185 -0.313 1.576 -0.14 1.904 C 0.165 2.479 0.14 3.233 -0.202 3.737 C -0.402 4.033 -0.366 4.428 -0.117 4.683 C 0.071 4.876 0.146 5.049 0.004 5.377 C -0.412 5.331 -0.662 5.026 -0.695 4.984 C -0.874 4.755 -1.183 4.641 -1.462 4.705 C -1.464 4.706 -1.898 4.8 -2.611 4.8 C -3.325 4.8 -3.758 4.706 -3.763 4.705 C -4.054 4.64 -4.357 4.752 -4.533 4.993 C -4.561 5.028 -4.811 5.331 -5.227 5.377 C -5.369 5.049 -5.294 4.876 -5.105 4.683 C -4.856 4.428 -4.821 4.033 -5.021 3.738 C -5.362 3.233 -5.388 2.479 -5.083 1.904 C -4.909 1.576 -4.561 1.185 -3.896 1.185 C -3.58 1.185 -3.297 0.986 -3.19 0.688 C -3.083 0.391 -3.174 0.058 -3.418 -0.144 C -3.988 -0.614 -4.062 -0.675 -4.062 -3.297 L -4.062 -3.397 C -4.062 -3.639 -4.177 -3.864 -4.373 -4.006 C -4.568 -4.146 -4.819 -4.184 -5.047 -4.109 C -8.226 -3.058 -10.361 -0.1 -10.361 3.25 C -10.361 7.523 -6.885 11 -2.611 11 C 1.662 11 5.139 7.523 5.139 3.25 C 5.139 -0.1 3.003 -3.058 -0.176 -4.109 C -0.253 -4.135 -0.332 -4.147 -0.411 -4.147" transform="matrix(1,0,0,-1,10.6113,11.4263)"/>
  <path class="fill" d="M 0 0 C -1.262 0 -2.328 1.292 -2.534 1.558 C -2.787 1.885 -2.728 2.354 -2.401 2.607 C -2.074 2.862 -1.604 2.804 -1.349 2.478 C -1.018 2.054 -0.336 1.454 0.02 1.501 C 0.462 1.524 0.789 1.21 0.813 0.797 C 0.838 0.383 0.522 0.028 0.109 0.003 C 0.073 0.001 0.036 0 0 0" transform="matrix(1,0,0,-1,5.7734,13.4263)"/>
</svg>
