<svg xmlns="http://www.w3.org/2000/svg" viewBox="0 0 16 16">
  <style>.fill{fill:currentColor}</style>
  <path class="fill" d="M 0 0 C -0.192 0 -0.384 0.073 -0.53 0.22 L -11.53 11.22 C -11.823 11.513 -11.823 11.987 -11.53 12.28 C -11.237 12.573 -10.763 12.573 -10.47 12.28 L 0.53 1.28 C 0.823 0.987 0.823 0.513 0.53 0.22 C 0.384 0.073 0.192 0 0 0" transform="matrix(1,0,0,-1,13.5,14.25)"/>
  <path class="fill" d="M 0 0 C -0.192 0 -0.384 0.073 -0.53 0.22 C -0.823 0.513 -0.823 0.987 -0.53 1.28 L 10.47 12.28 C 10.763 12.573 11.237 12.573 11.53 12.28 C 11.823 11.987 11.823 11.513 11.53 11.22 L 0.53 0.22 C 0.384 0.073 0.192 0 0 0" transform="matrix(1,0,0,-1,2.5,14.25)"/>
</svg>
