<svg xmlns="http://www.w3.org/2000/svg" viewBox="0 0 16 16">
  <style>.fill{fill:currentColor}</style>
  <path class="fill" d="M 0 0 C -0.414 0 -0.75 0.336 -0.75 0.75 L -0.75 2.75 C -0.75 3.165 -0.414 3.5 0 3.5 C 0.414 3.5 0.75 3.165 0.75 2.75 L 0.75 0.75 C 0.75 0.336 0.414 0 0 0" transform="matrix(1,0,0,-1,8,9.1504)"/>
  <path class="fill" d="M 0 0 C -0.414 0 -0.75 0.336 -0.75 0.75 L -0.75 0.95 C -0.75 1.364 -0.414 1.7 0 1.7 C 0.414 1.7 0.75 1.364 0.75 0.95 L 0.75 0.75 C 0.75 0.336 0.414 0 0 0" transform="matrix(1,0,0,-1,8,11.9502)"/>
  <path class="fill" d="M 0 0 C -0.114 0 -0.27 -0.039 -0.333 -0.147 L -6.235 -10.268 C -6.194 -10.425 -6.074 -10.5 -5.902 -10.5 L 5.902 -10.5 C 6.073 -10.5 6.193 -10.425 6.236 -10.351 L 0.333 -0.147 C 0.27 -0.039 0.114 0 0 0 M 5.902 -12 L -5.902 -12 C -6.591 -12 -7.217 -11.654 -7.537 -11.098 C -7.823 -10.601 -7.82 -10.008 -7.531 -9.512 L -1.629 0.608 C -1.308 1.159 -0.684 1.5 0 1.5 C 0.684 1.5 1.308 1.159 1.629 0.608 L 7.53 -9.512 C 7.82 -10.008 7.822 -10.601 7.537 -11.098 C 7.217 -11.654 6.591 -12 5.902 -12" transform="matrix(1,0,0,-1,8,2.75)"/>
</svg>
