<svg xmlns="http://www.w3.org/2000/svg" viewBox="0 0 16 16">
  <style>.fill{fill:currentColor}</style>
  <path class="fill" d="M 0 0 L 5.468 -5.469 L 10.474 -0.464 C 10.966 0.029 10.966 0.833 10.474 1.326 L 6.794 5.004 C 6.3 5.498 5.498 5.499 5.005 5.004 Z M -1.061 -1.061 L -1.286 -1.286 C -1.779 -1.779 -1.779 -2.582 -1.286 -3.075 L 1.638 -5.999 C 1.686 -6.047 1.752 -6.074 1.82 -6.074 L 3.953 -6.074 Z M 5.468 -7.59 L 5.453 -7.574 L 1.82 -7.574 C 1.358 -7.574 0.905 -7.387 0.578 -7.061 L -2.346 -4.136 C -3.424 -3.058 -3.424 -1.304 -2.346 -0.225 L -1.597 0.524 L -1.591 0.53 L -1.585 0.536 L 3.944 6.065 C 5.022 7.143 6.776 7.143 7.854 6.065 L 11.534 2.386 C 12.611 1.308 12.611 -0.446 11.534 -1.524 L 6.984 -6.074 L 11.594 -6.074 C 12.008 -6.074 12.344 -6.41 12.344 -6.824 C 12.344 -7.238 12.008 -7.574 11.594 -7.574 Z" transform="matrix(1,0,0,-1,3.4062,7.6504)"/>
</svg>
