<?xml version="1.0" encoding="UTF-8"?>
<svg xmlns="http://www.w3.org/2000/svg" version="1.1" viewBox="0 0 15 15">
  <style>.fill{fill:currentColor}</style>
  <path class="fill" d="M10.5,15h-2.3c-.2,0-.7,0-1.1-.4s-.4-.8-.4-1.1v-.7c0-.2-.1-.4-.2-.6-.3-.3-.8-.3-1.1,0-.2.2-.2.3-.2.6v.7c0,.2,0,.7-.4,1.1-.4.4-.8.4-1.1.4H1.5c-.2,0-.7,0-1.1-.4-.4-.4-.4-.8-.4-1.1v-2.3c0-.2,0-.7.4-1.1.4-.4.8-.4,1.1-.4h.7c.2,0,.4-.1.6-.2.2-.2.2-.3.2-.6s0-.4-.2-.6c-.2-.2-.3-.2-.6-.2h-.7c-.2,0-.7,0-1.1-.4-.4-.4-.4-.8-.4-1.1v-2.3c0-.2,0-.7.4-1.1s.8-.4,1.1-.4h2.2v-.7c0-.6.3-1.2.7-1.6.9-.9,2.4-.9,3.2,0,.4.4.7,1,.7,1.6v.7h2.2c.2,0,.7,0,1.1.4.4.4.4.8.4,1.1v2.2h.7c.6,0,1.2.3,1.6.7.4.4.7,1,.7,1.6s-.2,1.2-.7,1.6c-.4.4-1,.7-1.6.7h-.7v2.2c0,.2,0,.7-.4,1.1-.4.4-.8.4-1.1.4ZM8.3,13.5h2.2s0-2.2,0-2.2c0-.2,0-.7.4-1.1s.8-.4,1.1-.4h.7c.2,0,.4,0,.6-.2s.2-.3.2-.6,0-.4-.2-.6-.4-.2-.6-.2h-.7c-.2,0-.7,0-1.1-.4-.4-.4-.4-.8-.4-1.1v-2.2h-2.2c-.2,0-.7,0-1.1-.4-.4-.4-.4-.8-.4-1.1v-.7c0-.2,0-.4-.2-.6-.3-.3-.8-.3-1.1,0s-.2.4-.2.6v.7c0,.2,0,.7-.4,1.1s-.8.4-1.1.4H1.5v2.2s.7,0,.7,0c.6,0,1.2.2,1.6.7.4.4.7,1,.7,1.6s-.2,1.2-.7,1.6-1,.7-1.6.7h-.7v2.2s2.2,0,2.2,0v-.7c0-.6.2-1.2.7-1.6.9-.9,2.4-.9,3.2,0,.4.4.7,1,.7,1.6v.7Z"/>
</svg>
