<?xml version="1.0" encoding="UTF-8"?>
<svg id="Layer_1" xmlns="http://www.w3.org/2000/svg" version="1.1" viewBox="0 0 16 16">
  <!-- Generator: Adobe Illustrator 30.0.0, SVG Export Plug-In . SVG Version: 2.1.1 Build 123)  -->
  <path d="M1.8,12.3c-.4,0-.7,0-1.1-.2-.4-.2-.6-.6-.4-1,.2-.4.6-.6,1-.4.2,0,.3,0,.5,0,.7,0,1.2-.6,1.2-1.2s-.6-1.2-1.2-1.2-.3,0-.5,0c-.4.2-.8,0-1-.4-.2-.4,0-.8.4-1,.3-.1.7-.2,1-.2,1.5,0,2.7,1.2,2.7,2.7s-1.2,2.7-2.7,2.7Z"/>
  <path d="M8.5,4.9c0,0-.2,0-.3,0-.4-.2-.6-.6-.4-1,0-.2.1-.4.1-.6,0-.8-.7-1.5-1.5-1.5s-1.5.7-1.5,1.5,0,.4.1.6c.2.4,0,.8-.4,1-.4.2-.8,0-1-.4-.1-.4-.2-.7-.2-1.1C3.5,1.6,4.8.2,6.5.2s3,1.3,3,3,0,.8-.2,1.2c-.1.3-.4.5-.7.5Z"/>
  <path d="M12.8,12.5c-.4,0-.8,0-1.2-.2-.4-.2-.6-.6-.4-1,.2-.4.6-.6,1-.4.2,0,.4.1.6.1.8,0,1.5-.7,1.5-1.5s-.7-1.5-1.5-1.5-.4,0-.6.1c-.4.2-.8,0-1-.4-.2-.4,0-.8.4-1,.4-.1.7-.2,1.1-.2,1.7,0,3,1.3,3,3s-1.3,3-3,3Z"/>
  <path d="M8.3,15.8c0,0-.2,0-.3,0-.4-.2-.6-.6-.4-1,0-.2,0-.3,0-.5,0-.7-.6-1.2-1.2-1.2s-1.2.6-1.2,1.2,0,.3,0,.5c.2.4,0,.8-.4,1-.4.2-.8,0-1-.4-.1-.3-.2-.7-.2-1,0-1.5,1.2-2.7,2.7-2.7s2.7,1.2,2.7,2.7,0,.7-.2,1.1c-.1.3-.4.5-.7.5Z"/>
  <path d="M1,8.4c-.4,0-.7-.3-.7-.7v-2.1c0-1.2,1-2.2,2.2-2.2h1.9c.4,0,.7.3.7.7s-.3.7-.7.7h-1.9c-.4,0-.7.3-.7.7v2.1c0,.4-.3.7-.7.7Z"/>
  <path d="M4.6,15.7h-2.1c-1.2,0-2.2-1-2.2-2.2v-2.1c0-.4.3-.7.7-.7s.7.3.7.7v2.1c0,.4.3.7.7.7h2.1c.4,0,.7.3.7.7s-.3.7-.7.7Z"/>
  <path d="M10.4,15.7h-2.1c-.4,0-.7-.3-.7-.7s.3-.7.7-.7h2.1c.4,0,.7-.3.7-.7v-1.9c0-.4.3-.7.7-.7s.7.3.7.7v1.9c0,1.2-1,2.2-2.2,2.2Z"/>
  <path d="M11.9,8.2c-.4,0-.7-.3-.7-.7v-1.9c0-.4-.3-.7-.7-.7h-1.9c-.4,0-.7-.3-.7-.7s.3-.7.7-.7h1.9c1.2,0,2.2,1,2.2,2.2v1.9c0,.4-.3.7-.7.7Z"/>
</svg>