<?xml version="1.0" encoding="UTF-8"?>
<svg id="Layer_1" xmlns="http://www.w3.org/2000/svg" width="15.5" height="12" version="1.1" viewBox="0 0 15.5 12">
  <!-- Generator: Adobe Illustrator 30.6.0, SVG Export Plug-In . SVG Version: 2.1.4 Build 109)  -->
  <defs>
    <style>
      .st0 {
        fill: #231f20;
      }
    </style>
  </defs>
  <path class="st0" d="M7.8,12c-.2,0-.3,0-.5-.2L1,6.7c-.1,0-.2-.2-.2-.4L0,3.9c0-.2,0-.4,0-.5L1,1.4c0-.2.2-.3.4-.4L3.6,0c.2,0,.4,0,.6,0l3.5,1.6L11.3,0c.2,0,.4,0,.6,0l2.3.9c.2,0,.3.2.4.4l.9,2c0,.2,0,.4,0,.5l-.7,2.5c0,.1-.1.3-.2.4l-6.3,5.1c-.1.1-.3.2-.5.2ZM2.1,5.7l5.6,4.6,5.6-4.6.6-2-.7-1.5-1.7-.7-3.5,1.6c-.2,0-.4,0-.6,0l-3.5-1.6-1.7.7-.7,1.5.6,2Z"/>
  <path class="st0" d="M1.5,6.9c-.2,0-.4,0-.6-.3-.3-.3-.2-.8,0-1.1l2.4-2c.3-.3.8-.2,1.1,0,.3.3.2.8,0,1.1l-2.4,2c-.1.1-.3.2-.5.2Z"/>
  <path class="st0" d="M3.9,4.9c-.2,0-.5-.1-.6-.3-.2-.3-.1-.8.2-1l3-2.1c.3-.2.8-.1,1,.2.2.3.1.8-.2,1l-3,2.1c-.1,0-.3.1-.4.1Z"/>
  <path class="st0" d="M3.9,4.9c-.2,0-.5-.1-.6-.3L1.4,2c-.2-.3-.2-.8.2-1s.8-.2,1,.2l1.9,2.6c.2.3.2.8-.2,1-.1,0-.3.1-.4.1Z"/>
  <path class="st0" d="M7.7,6.7c-.1,0-.2,0-.3,0l-3.9-1.8c-.4-.2-.5-.6-.4-1,.2-.4.6-.5,1-.4l3.9,1.8c.4.2.5.6.4,1-.1.3-.4.4-.7.4Z"/>
  <path class="st0" d="M7.8,12c-.4,0-.8-.3-.8-.8V2.4c0-.4.3-.8.8-.8s.8.3.8.8v8.8c0,.4-.3.8-.8.8Z"/>
  <path class="st0" d="M7.8,12c-.3,0-.5-.1-.7-.4l-3.9-7.1c-.2-.4,0-.8.3-1,.4-.2.8,0,1,.3l3.9,7.1c.2.4,0,.8-.3,1-.1,0-.2,0-.4,0Z"/>
  <path class="st0" d="M14,6.9c-.2,0-.3,0-.5-.2l-2.4-2c-.3-.3-.4-.7,0-1.1.3-.3.7-.3,1.1,0l2.4,2c.3.3.4.7,0,1.1-.1.2-.4.3-.6.3Z"/>
  <path class="st0" d="M11.6,4.9c-.1,0-.3,0-.4-.1l-3-2.1c-.3-.2-.4-.7-.2-1,.2-.3.7-.4,1-.2l3,2.1c.3.2.4.7.2,1-.1.2-.4.3-.6.3Z"/>
  <path class="st0" d="M11.6,4.9c-.2,0-.3,0-.4-.1-.3-.2-.4-.7-.2-1l1.9-2.6c.2-.3.7-.4,1-.2.3.2.4.7.2,1l-1.9,2.6c-.1.2-.4.3-.6.3Z"/>
  <path class="st0" d="M7.8,6.7c-.3,0-.6-.2-.7-.4-.2-.4,0-.8.4-1l3.9-1.8c.4-.2.8,0,1,.4.2.4,0,.8-.4,1l-3.9,1.8c-.1,0-.2,0-.3,0Z"/>
  <path class="st0" d="M7.7,12c-.1,0-.2,0-.4,0-.4-.2-.5-.7-.3-1l3.9-7.1c.2-.4.7-.5,1-.3.4.2.5.7.3,1l-3.9,7.1c-.1.2-.4.4-.7.4Z"/>
</svg>