<svg xmlns="http://www.w3.org/2000/svg" viewBox="0 0 16 16">
  <style>.fill{fill:currentColor}</style>
  <path class="fill" d="M 0 0 C -0.138 0 -0.258 -0.027 -0.355 -0.083 C -0.755 -0.314 -0.925 -1.118 -0.798 -2.181 C -0.639 -3.511 -0.064 -5.088 0.821 -6.621 C 2.729 -9.927 5.106 -11.37 5.895 -10.909 C 6.689 -10.45 6.626 -7.675 4.718 -4.371 C 3.833 -2.838 2.755 -1.551 1.683 -0.75 C 1.034 -0.264 0.429 0 0 0 M 5.562 -12.487 C 3.738 -12.487 1.341 -10.521 -0.478 -7.371 C -1.463 -5.666 -2.105 -3.886 -2.287 -2.359 C -2.496 -0.614 -2.076 0.656 -1.105 1.215 C -0.137 1.776 1.173 1.505 2.581 0.452 C 3.813 -0.469 5.032 -1.916 6.017 -3.621 C 8.227 -7.446 8.496 -11.138 6.645 -12.208 C 6.317 -12.396 5.952 -12.487 5.562 -12.487" transform="matrix(1,0,0,-1,5.2305,2.5039)"/>
  <path class="fill" d="M 0 0 C -3.815 0 -6.25 -1.333 -6.25 -2.25 C -6.25 -3.167 -3.815 -4.5 0 -4.5 C 3.815 -4.5 6.25 -3.167 6.25 -2.25 C 6.25 -1.333 3.815 0 0 0 M 0 -6 C -4.418 -6 -7.75 -4.388 -7.75 -2.25 C -7.75 -0.112 -4.418 1.5 0 1.5 C 4.418 1.5 7.75 -0.112 7.75 -2.25 C 7.75 -4.388 4.418 -6 0 -6" transform="matrix(1,0,0,-1,8,5.75)"/>
  <path class="fill" d="M 0 0 L 0.01 0 Z M 5.368 3.996 C 4.939 3.996 4.333 3.732 3.685 3.247 C 2.613 2.444 1.535 1.158 0.649 -0.375 C -1.258 -3.679 -1.321 -6.454 -0.527 -6.913 C 0.268 -7.375 2.639 -5.929 4.546 -2.625 C 5.432 -1.092 6.006 0.485 6.166 1.815 C 6.292 2.878 6.123 3.682 5.723 3.913 C 5.625 3.969 5.505 3.996 5.368 3.996 M -0.194 -8.491 C -0.585 -8.491 -0.95 -8.401 -1.277 -8.212 C -3.128 -7.143 -2.859 -3.45 -0.649 0.375 C 0.335 2.08 1.555 3.527 2.787 4.448 C 4.195 5.5 5.502 5.773 6.473 5.211 C 7.443 4.651 7.863 3.382 7.655 1.637 C 7.472 0.11 6.83 -1.67 5.845 -3.375 C 4.027 -6.525 1.63 -8.491 -0.194 -8.491" transform="matrix(1,0,0,-1,5.4019,6.5)"/>
  <path class="fill" d="M 0 0 C -0.042 0 -0.085 -0.011 -0.125 -0.034 C -0.244 -0.103 -0.285 -0.256 -0.216 -0.375 C -0.146 -0.494 0.005 -0.535 0.125 -0.466 C 0.245 -0.397 0.286 -0.244 0.217 -0.125 C 0.17 -0.045 0.086 0 0 0 M 0.002 -1.501 C -0.106 -1.501 -0.215 -1.486 -0.323 -1.457 C -0.646 -1.371 -0.915 -1.164 -1.082 -0.875 C -1.427 -0.278 -1.222 0.488 -0.625 0.833 C -0.336 1 0 1.044 0.324 0.958 C 0.646 0.871 0.916 0.664 1.083 0.375 C 1.428 -0.222 1.222 -0.988 0.625 -1.333 C 0.433 -1.443 0.219 -1.501 0.002 -1.501" transform="matrix(1,0,0,-1,7.9995,7.75)"/>
</svg>
