<svg xmlns="http://www.w3.org/2000/svg" viewBox="0 0 16 16">
  <style>.fill{fill:currentColor}</style>
  <path class="fill" d="M 0 0 L 2.944 -1.548 C 2.998 -1.577 3.048 -1.572 3.094 -1.537 C 3.165 -1.485 3.154 -1.421 3.15 -1.399 L 2.587 1.88 C 2.496 2.411 2.672 2.954 3.059 3.332 L 5.442 5.655 C 5.484 5.696 5.496 5.745 5.478 5.801 C 5.459 5.855 5.421 5.888 5.364 5.896 L 2.072 6.375 C 1.537 6.452 1.075 6.788 0.835 7.274 L -0.637 10.257 C -0.688 10.36 -0.839 10.36 -0.891 10.257 L -2.364 7.273 C -2.603 6.788 -3.065 6.452 -3.6 6.375 L -6.892 5.896 C -6.95 5.888 -6.988 5.855 -7.006 5.801 C -7.024 5.745 -7.012 5.696 -6.97 5.655 L -4.588 3.333 C -4.201 2.955 -4.025 2.413 -4.116 1.881 L -4.678 -1.399 C -4.682 -1.421 -4.693 -1.485 -4.622 -1.537 C -4.575 -1.572 -4.526 -1.576 -4.472 -1.548 L -1.528 0 C -1.05 0.252 -0.479 0.252 0 0 M 3.012 -3.066 C 2.751 -3.066 2.489 -3.003 2.247 -2.876 L -0.698 -1.328 C -0.74 -1.307 -0.788 -1.307 -0.83 -1.328 L -3.774 -2.876 C -4.331 -3.168 -4.994 -3.122 -5.504 -2.751 C -6.013 -2.381 -6.263 -1.766 -6.157 -1.146 L -5.594 2.134 C -5.586 2.18 -5.602 2.227 -5.635 2.26 L -8.017 4.581 C -8.468 5.021 -8.627 5.666 -8.433 6.265 C -8.238 6.863 -7.729 7.291 -7.106 7.381 L -3.815 7.859 C -3.769 7.866 -3.729 7.895 -3.709 7.937 L -2.236 10.921 C -1.958 11.484 -1.394 11.835 -0.765 11.835 L -0.764 11.835 C -0.135 11.835 0.429 11.485 0.708 10.921 L 2.181 7.937 C 2.202 7.895 2.241 7.866 2.287 7.859 L 5.579 7.381 C 6.202 7.291 6.709 6.863 6.904 6.265 C 7.099 5.666 6.94 5.021 6.489 4.581 L 4.107 2.259 C 4.074 2.227 4.058 2.18 4.066 2.134 L 4.628 -1.146 C 4.735 -1.766 4.485 -2.381 3.976 -2.751 C 3.688 -2.96 3.351 -3.066 3.012 -3.066" transform="matrix(1,0,0,-1,8.7641,12.3845)"/>
</svg>
