<svg xmlns="http://www.w3.org/2000/svg" viewBox="0 0 16 16">
  <style>.fill{fill:currentColor}</style>
  <path class="fill" d="M 0 0 L -0.4 0 C -0.814 0 -1.15 0.336 -1.15 0.75 C -1.15 1.164 -0.814 1.5 -0.4 1.5 L 0 1.5 C 0.414 1.5 0.75 1.164 0.75 0.75 C 0.75 0.336 0.414 0 0 0" transform="matrix(1,0,0,-1,5.3002,13.1267)"/>
  <path class="fill" d="M 0 0 L -3.261 0 C -3.675 0 -4.011 0.336 -4.011 0.75 C -4.011 1.164 -3.675 1.5 -3.261 1.5 L 0 1.5 C 0.414 1.5 0.75 1.164 0.75 0.75 C 0.75 0.336 0.414 0 0 0" transform="matrix(1,0,0,-1,11.0614,13.1267)"/>
  <path class="fill" d="M 0 0 L -0.4 0 C -0.814 0 -1.15 0.336 -1.15 0.75 C -1.15 1.164 -0.814 1.5 -0.4 1.5 L 0 1.5 C 0.414 1.5 0.75 1.164 0.75 0.75 C 0.75 0.336 0.414 0 0 0" transform="matrix(1,0,0,-1,5.3002,10.6267)"/>
  <path class="fill" d="M 0 0 L -0.4 0 C -0.814 0 -1.15 0.336 -1.15 0.75 C -1.15 1.164 -0.814 1.5 -0.4 1.5 L 0 1.5 C 0.414 1.5 0.75 1.164 0.75 0.75 C 0.75 0.336 0.414 0 0 0" transform="matrix(1,0,0,-1,8.2001,10.6267)"/>
  <path class="fill" d="M 0 0 L -0.399 0 C -0.813 0 -1.149 0.336 -1.149 0.75 C -1.149 1.164 -0.813 1.5 -0.399 1.5 L 0 1.5 C 0.414 1.5 0.75 1.164 0.75 0.75 C 0.75 0.336 0.414 0 0 0" transform="matrix(1,0,0,-1,11.0995,10.6267)"/>
  <path class="fill" d="M 0 0 L -0.4 0 C -0.814 0 -1.15 0.336 -1.15 0.75 C -1.15 1.164 -0.814 1.5 -0.4 1.5 L 0 1.5 C 0.414 1.5 0.75 1.164 0.75 0.75 C 0.75 0.336 0.414 0 0 0" transform="matrix(1,0,0,-1,5.3002,8.1267)"/>
  <path class="fill" d="M 0 0 L -0.4 0 C -0.814 0 -1.15 0.336 -1.15 0.75 C -1.15 1.164 -0.814 1.5 -0.4 1.5 L 0 1.5 C 0.414 1.5 0.75 1.164 0.75 0.75 C 0.75 0.336 0.414 0 0 0" transform="matrix(1,0,0,-1,8.2001,8.1267)"/>
  <path class="fill" d="M 0 0 L -0.399 0 C -0.813 0 -1.149 0.336 -1.149 0.75 C -1.149 1.164 -0.813 1.5 -0.399 1.5 L 0 1.5 C 0.414 1.5 0.75 1.164 0.75 0.75 C 0.75 0.336 0.414 0 0 0" transform="matrix(1,0,0,-1,11.0995,8.1267)"/>
  <path class="fill" d="M 0 0 C -0.138 0 -0.25 -0.112 -0.25 -0.25 L -0.25 -12.25 C -0.25 -12.388 -0.138 -12.5 0 -12.5 L 9.395 -12.5 C 9.532 -12.5 9.645 -12.388 9.645 -12.25 L 9.645 -0.25 C 9.645 -0.112 9.532 0 9.395 0 Z M 9.395 -14 L 0 -14 C -0.965 -14 -1.75 -13.215 -1.75 -12.25 L -1.75 -0.25 C -1.75 0.715 -0.965 1.5 0 1.5 L 9.395 1.5 C 10.359 1.5 11.145 0.715 11.145 -0.25 L 11.145 -12.25 C 11.145 -13.215 10.359 -14 9.395 -14" transform="matrix(1,0,0,-1,3.3026,1.7497)"/>
  <path class="fill" d="M 0 0 L -11.395 0 C -11.809 0 -12.145 0.336 -12.145 0.75 C -12.145 1.164 -11.809 1.5 -11.395 1.5 L 0 1.5 C 0.414 1.5 0.75 1.164 0.75 0.75 C 0.75 0.336 0.414 0 0 0" transform="matrix(1,0,0,-1,13.6972,5.4772)"/>
</svg>
