<svg xmlns="http://www.w3.org/2000/svg" viewBox="0 0 16 16">
  <style>.no-fill{fill:none}.stroke{stroke:currentColor;stroke-width:1.5px;stroke-linecap:round;stroke-linejoin:round}</style>
  <path class="no-fill stroke" d="M 0 0 L -1.787 0 C -2.973 0 -2.419 1.927 -4.113 1.927 L -6.887 1.927 C -8.581 1.927 -8.027 0 -9.213 0 L -11 0 C -11.828 0 -12.5 -0.672 -12.5 -1.5 L -12.5 -8.5 C -12.5 -9.328 -11.828 -10 -11 -10 L 0 -10 C 0.828 -10 1.5 -9.328 1.5 -8.5 L 1.5 -1.5 C 1.5 -0.672 0.828 0 0 0 Z" transform="matrix(1,0,0,-1,13.5,3.9635)"/>
  <path class="no-fill stroke" d="M 0 0 C 0 -1.381 -1.119 -2.5 -2.5 -2.5 C -3.881 -2.5 -5 -1.381 -5 0 C -5 1.381 -3.881 2.5 -2.5 2.5 C -1.119 2.5 0 1.381 0 0 Z" transform="matrix(1,0,0,-1,10.5,8.7368)"/>
  <path class="no-fill stroke" d="M 0 0 L -0.3 0" transform="matrix(1,0,0,-1,12.6548,6.2523)"/>
  <path class="no-fill stroke" d="M 0 0 L -1.787 0 C -2.973 0 -2.419 1.927 -4.113 1.927 L -6.887 1.927 C -8.581 1.927 -8.027 0 -9.213 0 L -11 0 C -11.828 0 -12.5 -0.672 -12.5 -1.5 L -12.5 -8.5 C -12.5 -9.328 -11.828 -10 -11 -10 L 0 -10 C 0.828 -10 1.5 -9.328 1.5 -8.5 L 1.5 -1.5 C 1.5 -0.672 0.828 0 0 0 Z" transform="matrix(1,0,0,-1,13.5,3.9267)"/>
  <path class="no-fill stroke" d="M 0 0 C 0 -1.381 -1.119 -2.5 -2.5 -2.5 C -3.881 -2.5 -5 -1.381 -5 0 C -5 1.381 -3.881 2.5 -2.5 2.5 C -1.119 2.5 0 1.381 0 0 Z" transform="matrix(1,0,0,-1,10.5,8.7)"/>
  <path class="no-fill stroke" d="M 0 0 L -0.3 0" transform="matrix(1,0,0,-1,12.6548,6.2156)"/>
</svg>
