<svg xmlns="http://www.w3.org/2000/svg" viewBox="0 0 16 16">
  <style>.fill{fill:currentColor}</style>
  <path class="fill" d="M 0 0 C -0.414 0 -0.75 -0.336 -0.75 -0.75 L -0.75 -7.75 C -0.75 -8.164 -0.414 -8.5 0 -8.5 L 11 -8.5 C 11.413 -8.5 11.75 -8.164 11.75 -7.75 L 11.75 -0.75 C 11.75 -0.336 11.413 0 11 0 L 9.214 0 C 8.188 0 7.829 0.8 7.614 1.278 C 7.384 1.792 7.307 1.927 6.887 1.927 L 4.113 1.927 C 3.694 1.927 3.617 1.792 3.386 1.279 C 3.172 0.8 2.813 0 1.787 0 Z M 11 -10 L 0 -10 C -1.241 -10 -2.25 -8.991 -2.25 -7.75 L -2.25 -0.75 C -2.25 0.491 -1.241 1.5 0 1.5 L 1.787 1.5 C 1.859 1.539 1.955 1.751 2.018 1.892 C 2.258 2.429 2.706 3.427 4.113 3.427 L 6.887 3.427 C 8.295 3.427 8.742 2.429 8.983 1.892 C 9.046 1.751 9.142 1.539 9.196 1.493 L 11 1.5 C 12.24 1.5 13.25 0.491 13.25 -0.75 L 13.25 -7.75 C 13.25 -8.991 12.24 -10 11 -10" transform="matrix(1,0,0,-1,2.5,4.7134)"/>
  <path class="fill" d="M 0 0 C -0.965 0 -1.75 -0.785 -1.75 -1.75 C -1.75 -2.714 -0.965 -3.5 0 -3.5 C 0.965 -3.5 1.75 -2.714 1.75 -1.75 C 1.75 -0.785 0.965 0 0 0 M 0 -5 C -1.792 -5 -3.25 -3.542 -3.25 -1.75 C -3.25 0.042 -1.792 1.5 0 1.5 C 1.792 1.5 3.25 0.042 3.25 -1.75 C 3.25 -3.542 1.792 -5 0 -5" transform="matrix(1,0,0,-1,8,6.9868)"/>
  <path class="fill" d="M 0 0 L -0.301 0 C -0.715 0 -1.051 0.336 -1.051 0.75 C -1.051 1.164 -0.715 1.5 -0.301 1.5 L 0 1.5 C 0.414 1.5 0.75 1.164 0.75 0.75 C 0.75 0.336 0.414 0 0 0" transform="matrix(1,0,0,-1,12.6553,7.0024)"/>
</svg>
