<svg xmlns="http://www.w3.org/2000/svg" viewBox="0 0 16 16">
  <style>.no-fill{fill:none}.stroke{stroke:currentColor;stroke-width:1.5px;stroke-linecap:round;stroke-linejoin:round}</style>
  <path class="no-fill stroke" d="M 0 0 L 2.03 0" transform="matrix(1,0,0,-1,1,13.2134)"/>
  <path class="no-fill stroke" d="M 0 0 L -3.831 10.427 L -7.662 0" transform="matrix(1,0,0,-1,9.5753,13.2134)"/>
  <path class="no-fill stroke" d="M 0 0 L -2.03 0" transform="matrix(1,0,0,-1,10.489,13.2134)"/>
  <path class="no-fill stroke" d="M 0 0 L 5.065 0" transform="matrix(1,0,0,-1,3.2118,9.6801)"/>
  <path class="no-fill stroke" d="M 0 0 C 0.429 0.287 1.302 0.724 2.742 0.191 C 3.735 -0.176 4.233 -1.404 4.157 -2.901 C 4.081 -4.405 4.157 -6.095 4.157 -6.095" transform="matrix(1,0,0,-1,10.2726,7.1184)"/>
  <path class="no-fill stroke" d="M 0 0 L -1.785 0" transform="matrix(1,0,0,-1,15,13.2134)"/>
  <path class="no-fill stroke" d="M 0 0 C 0 0 0.464 -1.214 -0.748 -1.734 C -1.453 -2.036 -2.328 -1.802 -2.952 -1.882" transform="matrix(1,0,0,-1,14.2303,8.3304)"/>
</svg>
