<svg xmlns="http://www.w3.org/2000/svg" viewBox="0 0 16 16">
  <style>.fill{fill:currentColor}</style>
  <path class="fill" d="M 0 0 L -2.03 0 C -2.444 0 -2.78 0.336 -2.78 0.75 C -2.78 1.164 -2.444 1.5 -2.03 1.5 L 0 1.5 C 0.414 1.5 0.75 1.164 0.75 0.75 C 0.75 0.336 0.414 0 0 0" transform="matrix(1,0,0,-1,3.0303,13.9639)"/>
  <path class="fill" d="M 0 0 L -1.408 0.518 L 2.423 10.945 C 2.531 11.24 2.813 11.436 3.127 11.436 C 3.441 11.436 3.723 11.24 3.831 10.945 L 7.662 0.518 L 6.253 0 L 3.127 8.511 Z" transform="matrix(1,0,0,-1,2.6177,13.4727)"/>
  <path class="fill" d="M 0 0 L -2.031 0 C -2.445 0 -2.781 0.336 -2.781 0.75 C -2.781 1.164 -2.445 1.5 -2.031 1.5 L 0 1.5 C 0.414 1.5 0.75 1.164 0.75 0.75 C 0.75 0.336 0.414 0 0 0" transform="matrix(1,0,0,-1,10.4893,13.9639)"/>
  <path class="fill" d="M 0 0 L -5.065 0 C -5.479 0 -5.815 0.336 -5.815 0.75 C -5.815 1.164 -5.479 1.5 -5.065 1.5 L 0 1.5 C 0.414 1.5 0.75 1.164 0.75 0.75 C 0.75 0.336 0.414 0 0 0" transform="matrix(1,0,0,-1,8.2773,10.4297)"/>
  <path class="fill" d="M 0 0 C -0.398 0 -0.73 0.313 -0.748 0.716 C -0.751 0.787 -0.825 2.46 -0.748 3.983 C -0.687 5.18 -1.051 6.103 -1.675 6.333 C -2.896 6.785 -3.531 6.361 -3.739 6.222 C -4.083 5.991 -4.549 6.084 -4.779 6.428 C -5.01 6.772 -4.918 7.238 -4.573 7.468 C -3.593 8.125 -2.442 8.215 -1.154 7.74 C 0.117 7.27 0.847 5.801 0.75 3.907 C 0.677 2.457 0.749 0.8 0.75 0.784 C 0.769 0.37 0.448 0.02 0.035 0.001 C 0.023 0 0.012 0 0 0" transform="matrix(1,0,0,-1,14.4287,13.9639)"/>
  <path class="fill" d="M 0 0 L -1.785 0 C -2.199 0 -2.535 0.336 -2.535 0.75 C -2.535 1.164 -2.199 1.5 -1.785 1.5 L 0 1.5 C 0.414 1.5 0.75 1.164 0.75 0.75 C 0.75 0.336 0.414 0 0 0" transform="matrix(1,0,0,-1,15,13.9639)"/>
  <path class="fill" d="M 0 0 C -0.182 0 -0.354 0.009 -0.517 0.017 C -0.757 0.027 -0.984 0.038 -1.146 0.018 C -1.562 -0.027 -1.934 0.255 -1.987 0.665 C -2.04 1.076 -1.751 1.452 -1.34 1.506 C -1.046 1.544 -0.74 1.53 -0.444 1.515 C -0.042 1.496 0.376 1.476 0.665 1.6 C 1.019 1.751 1.133 2.016 1.005 2.386 C 0.87 2.773 1.069 3.203 1.454 3.343 C 1.836 3.482 2.263 3.295 2.409 2.912 C 2.699 2.154 2.632 0.812 1.257 0.221 C 0.839 0.041 0.401 0 0 0" transform="matrix(1,0,0,-1,12.5215,10.9746)"/>
</svg>
