<svg xmlns="http://www.w3.org/2000/svg" viewBox="0 0 16 16">
  <style>.fill{fill:currentColor}</style>
  <path class="fill" d="M 0 0 C -5.388 0 -6.25 -1.484 -6.25 -6.25 C -6.25 -11.04 -4.79 -12.5 0 -12.5 C 4.766 -12.5 6.25 -11.638 6.25 -6.25 C 6.25 -0.876 5.374 0 0 0 M 0 -14 C -5.649 -14 -7.75 -11.899 -7.75 -6.25 C -7.75 -0.999 -6.59 1.5 0 1.5 C 6.229 1.5 7.75 -0.021 7.75 -6.25 C 7.75 -12.84 5.251 -14 0 -14" transform="matrix(1,0,0,-1,8,1.75)"/>
  <path class="fill" d="M 0 0 C -0.414 0 -0.75 0.336 -0.75 0.75 L -0.75 4.45 C -0.75 4.864 -0.414 5.2 0 5.2 C 0.414 5.2 0.75 4.864 0.75 4.45 L 0.75 0.75 C 0.75 0.336 0.414 0 0 0" transform="matrix(1,0,0,-1,8,12.1504)"/>
  <path class="fill" d="M 0 0 C -0.414 0 -0.75 0.336 -0.75 0.75 L -0.75 1.15 C -0.75 1.564 -0.414 1.9 0 1.9 C 0.414 1.9 0.75 1.564 0.75 1.15 L 0.75 0.75 C 0.75 0.336 0.414 0 0 0" transform="matrix(1,0,0,-1,8,5.75)"/>
</svg>
