<svg xmlns="http://www.w3.org/2000/svg" viewBox="0 0 16 16">
  <style>.fill{fill:currentColor}</style>
  <path class="fill" d="M 0 0 C -0.138 0 -0.25 -0.112 -0.25 -0.25 L -0.25 -12.25 C -0.25 -12.388 -0.138 -12.5 0 -12.5 L 6 -12.5 C 6.138 -12.5 6.25 -12.388 6.25 -12.25 L 6.25 -0.25 C 6.25 -0.112 6.138 0 6 0 Z M 6 -14 L 0 -14 C -0.965 -14 -1.75 -13.215 -1.75 -12.25 L -1.75 -0.25 C -1.75 0.715 -0.965 1.5 0 1.5 L 6 1.5 C 6.965 1.5 7.75 0.715 7.75 -0.25 L 7.75 -12.25 C 7.75 -13.215 6.965 -14 6 -14" transform="matrix(1,0,0,-1,5,1.75)"/>
  <path class="fill" d="M 0 0 L -0.4 0 C -0.814 0 -1.15 0.336 -1.15 0.75 C -1.15 1.164 -0.814 1.5 -0.4 1.5 L 0 1.5 C 0.414 1.5 0.75 1.164 0.75 0.75 C 0.75 0.336 0.414 0 0 0" transform="matrix(1,0,0,-1,8.2002,13.4502)"/>
  <path class="fill" d="M 0 0 L -3.236 0 C -3.65 0 -3.986 0.336 -3.986 0.75 C -3.986 1.164 -3.65 1.5 -3.236 1.5 L 0 1.5 C 0.414 1.5 0.75 1.164 0.75 0.75 C 0.75 0.336 0.414 0 0 0" transform="matrix(1,0,0,-1,9.6182,4.1123)"/>
</svg>
