<svg xmlns="http://www.w3.org/2000/svg" viewBox="0 0 16 16">
  <style>.fill{fill:currentColor}</style>
  <path class="fill" d="M 0 0 C 0.192 0 0.384 -0.073 0.53 -0.22 C 0.823 -0.513 0.823 -0.987 0.53 -1.28 L -3.818 -5.629 C -4.111 -5.922 -4.586 -5.922 -4.879 -5.629 C -5.172 -5.336 -5.172 -4.861 -4.879 -4.568 L -0.53 -0.22 C -0.384 -0.073 -0.192 0 0 0" transform="matrix(1,0,0,-1,15,0.25)"/>
  <path class="fill" d="M 0 0 C 0.414 0 0.75 -0.336 0.75 -0.75 L 0.75 -2.491 L 2.491 -2.491 C 2.905 -2.491 3.241 -2.827 3.241 -3.241 C 3.241 -3.655 2.905 -3.991 2.491 -3.991 L 0 -3.991 C -0.414 -3.991 -0.75 -3.655 -0.75 -3.241 L -0.75 -0.75 C -0.75 -0.336 -0.414 0 0 0" transform="matrix(1,0,0,-1,10.5146,2.2446)"/>
  <path class="fill" d="M 0 0 C 0.192 0 0.384 -0.073 0.53 -0.22 C 0.823 -0.513 0.823 -0.987 0.53 -1.28 L -3.818 -5.629 C -4.111 -5.922 -4.586 -5.922 -4.879 -5.629 C -5.172 -5.336 -5.172 -4.861 -4.879 -4.568 L -0.53 -0.22 C -0.384 -0.073 -0.192 0 0 0" transform="matrix(1,0,0,-1,5.3486,9.9014)"/>
  <path class="fill" d="M 0 0 L 2.491 0 C 2.905 0 3.241 -0.336 3.241 -0.75 L 3.241 -3.241 C 3.241 -3.655 2.905 -3.991 2.491 -3.991 C 2.077 -3.991 1.741 -3.655 1.741 -3.241 L 1.741 -1.5 L 0 -1.5 C -0.414 -1.5 -0.75 -1.164 -0.75 -0.75 C -0.75 -0.336 -0.414 0 0 0" transform="matrix(1,0,0,-1,2.9946,9.7646)"/>
  <path class="fill" d="M 0 0 C 0.192 0 0.384 -0.073 0.53 -0.22 L 4.879 -4.568 C 5.172 -4.861 5.172 -5.336 4.879 -5.629 C 4.586 -5.922 4.111 -5.922 3.818 -5.629 L -0.53 -1.28 C -0.823 -0.987 -0.823 -0.513 -0.53 -0.22 C -0.384 -0.073 -0.192 0 0 0" transform="matrix(1,0,0,-1,10.6514,9.9014)"/>
  <path class="fill" d="M 0 0 L 2.491 0 C 2.905 0 3.241 -0.336 3.241 -0.75 C 3.241 -1.164 2.905 -1.5 2.491 -1.5 L 0.75 -1.5 L 0.75 -3.241 C 0.75 -3.655 0.414 -3.991 0 -3.991 C -0.414 -3.991 -0.75 -3.655 -0.75 -3.241 L -0.75 -0.75 C -0.75 -0.336 -0.414 0 0 0" transform="matrix(1,0,0,-1,10.5146,9.7646)"/>
  <path class="fill" d="M 0 0 C 0.192 0 0.384 -0.073 0.53 -0.22 L 4.879 -4.568 C 5.172 -4.861 5.172 -5.336 4.879 -5.629 C 4.586 -5.922 4.111 -5.922 3.818 -5.629 L -0.53 -1.28 C -0.823 -0.987 -0.823 -0.513 -0.53 -0.22 C -0.384 -0.073 -0.192 0 0 0" transform="matrix(1,0,0,-1,1,0.25)"/>
  <path class="fill" d="M 0 0 C 0.414 0 0.75 -0.336 0.75 -0.75 L 0.75 -3.241 C 0.75 -3.655 0.414 -3.991 0 -3.991 L -2.491 -3.991 C -2.905 -3.991 -3.241 -3.655 -3.241 -3.241 C -3.241 -2.827 -2.905 -2.491 -2.491 -2.491 L -0.75 -2.491 L -0.75 -0.75 C -0.75 -0.336 -0.414 0 0 0" transform="matrix(1,0,0,-1,5.4858,2.2446)"/>
</svg>
