<?xml version="1.0" encoding="UTF-8"?>
<svg xmlns="http://www.w3.org/2000/svg" viewBox="0 0 16 16">
  <style>.fill{fill:currentColor}</style>
<path class="fill" fill-rule="nonzero" d="M 13.808594 6.027344 C 13.628906 6.277344 13.363281 6.964844 13.363281 8 C 13.363281 9.035156 13.628906 9.722656 13.808594 9.972656 C 13.984375 9.722656 14.25 9.035156 14.25 8 C 14.25 6.964844 13.984375 6.277344 13.808594 6.027344 M 10.613281 5.144531 C 10.105469 5.144531 9.363281 6.257812 9.363281 8.003906 C 9.363281 9.746094 10.105469 10.859375 10.613281 10.859375 C 11.121094 10.859375 11.863281 9.746094 11.863281 8.003906 C 11.863281 6.257812 11.121094 5.144531 10.613281 5.144531 M 4.804688 4.914062 C 3.121094 4.914062 1.75 6.300781 1.75 8 C 1.75 9.699219 3.121094 11.082031 4.804688 11.082031 C 6.492188 11.082031 7.863281 9.699219 7.863281 8 C 7.863281 6.300781 6.492188 4.914062 4.804688 4.914062 M 4.804688 12.582031 C 2.292969 12.582031 0.25 10.527344 0.25 8 C 0.25 5.472656 2.292969 3.414062 4.804688 3.414062 C 6.300781 3.414062 7.628906 4.144531 8.460938 5.261719 C 8.960938 4.269531 9.730469 3.644531 10.613281 3.644531 C 11.449219 3.644531 12.171875 4.175781 12.667969 5.042969 C 12.960938 4.675781 13.339844 4.449219 13.808594 4.449219 C 15.144531 4.449219 15.75 6.289062 15.75 8 C 15.75 9.707031 15.144531 11.550781 13.808594 11.550781 C 13.339844 11.550781 12.960938 11.324219 12.667969 10.957031 C 12.171875 11.828125 11.449219 12.359375 10.613281 12.359375 C 9.714844 12.359375 8.945312 11.746094 8.449219 10.753906 C 7.617188 11.863281 6.292969 12.582031 4.804688 12.582031 "/>
</svg>
