<?xml version="1.0" encoding="UTF-8"?>
<svg xmlns="http://www.w3.org/2000/svg" viewBox="0 0 16 16">
  <style>.fill{fill:currentColor}</style>
<path class="fill" fill-rule="nonzero" d="M 10.667969 1.886719 C 9.972656 2.070312 9.414062 2.46875 9.078125 2.847656 C 8.753906 3.203125 8.476562 3.828125 8.476562 4.328125 C 8.980469 4.183594 9.550781 3.824219 9.9375 3.378906 C 10.308594 2.953125 10.566406 2.421875 10.667969 1.886719 M 5.835938 5.382812 C 4.5 5.382812 3.148438 6.535156 3.148438 8.734375 C 3.148438 10.128906 3.660156 11.753906 4.445312 12.867188 C 4.957031 13.582031 5.496094 14.28125 5.96875 14.28125 C 6.1875 14.28125 6.347656 14.21875 6.632812 14.09375 C 7.011719 13.925781 7.488281 13.71875 8.234375 13.71875 C 8.960938 13.71875 9.402344 13.90625 9.761719 14.058594 C 10.027344 14.175781 10.207031 14.25 10.5 14.25 C 10.988281 14.25 11.402344 13.722656 11.980469 12.925781 C 12.292969 12.449219 12.519531 11.96875 12.660156 11.625 C 12.003906 11.109375 10.984375 10.078125 10.984375 8.566406 C 10.984375 7.257812 11.632812 6.363281 12.167969 5.847656 C 11.660156 5.351562 11.222656 5.351562 10.5 5.351562 C 10.050781 5.351562 9.621094 5.519531 9.207031 5.683594 C 8.816406 5.839844 8.449219 5.984375 8.066406 5.984375 C 7.640625 5.984375 7.367188 5.8125 7.171875 5.683594 C 6.945312 5.542969 6.691406 5.382812 5.835938 5.382812 M 5.96875 15.78125 C 4.683594 15.78125 3.839844 14.597656 3.222656 13.734375 C 2.253906 12.359375 1.648438 10.445312 1.648438 8.734375 C 1.648438 5.582031 3.804688 3.882812 5.835938 3.882812 C 6.320312 3.882812 6.695312 3.925781 7 4 C 7.089844 3.171875 7.496094 2.351562 7.96875 1.84375 C 8.824219 0.871094 10.136719 0.28125 11.46875 0.28125 C 11.882812 0.28125 12.21875 0.621094 12.21875 1.03125 L 12.21875 1.382812 C 12.21875 2.253906 11.933594 3.140625 11.425781 3.898438 C 12.269531 4.011719 13.039062 4.382812 13.847656 5.535156 C 13.96875 5.710938 14.011719 5.929688 13.964844 6.136719 C 13.917969 6.34375 13.78125 6.519531 13.597656 6.621094 C 13.558594 6.644531 12.484375 7.28125 12.484375 8.566406 C 12.484375 9.855469 13.914062 10.667969 13.929688 10.675781 C 14.234375 10.847656 14.386719 11.210938 14.285156 11.550781 C 14.273438 11.59375 13.945312 12.664062 13.261719 13.710938 C 13.253906 13.71875 13.203125 13.789062 13.199219 13.800781 C 12.574219 14.667969 11.796875 15.75 10.5 15.75 C 9.898438 15.75 9.496094 15.578125 9.171875 15.4375 C 8.882812 15.316406 8.652344 15.21875 8.234375 15.21875 C 7.800781 15.21875 7.550781 15.328125 7.234375 15.464844 C 6.894531 15.613281 6.511719 15.78125 5.96875 15.78125 "/>
</svg>
