<?xml version="1.0" encoding="UTF-8"?>
<svg xmlns="http://www.w3.org/2000/svg" version="1.1" viewBox="0 0 16 16">
  <style>.fill{fill:currentColor}</style>
  <path class="fill" d="M12.8,15.8H3.2c-1.6,0-3-1.3-3-3V4.5C.2,2.9,1.6,1.5,3.2,1.5h9.6c1.6,0,3,1.3,3,3v8.3c0,1.6-1.3,3-3,3ZM3.2,3c-.8,0-1.5.7-1.5,1.5v8.3c0,.8.7,1.5,1.5,1.5h9.6c.8,0,1.5-.7,1.5-1.5V4.5c0-.8-.7-1.5-1.5-1.5H3.2Z"/>
  <rect class="fill" x="1" y="5.8" width="14" height="1.5"/>
  <path class="fill" d="M11.3,4.4c-.4,0-.8-.3-.8-.8V1c0-.4.3-.8.8-.8s.8.3.8.8v2.6c0,.4-.3.8-.8.8Z"/>
  <path class="fill" d="M4.7,4.4c-.4,0-.8-.3-.8-.8V1c0-.4.3-.8.8-.8s.8.3.8.8v2.6c0,.4-.3.8-.8.8Z"/>
</svg>
