<svg xmlns="http://www.w3.org/2000/svg" viewBox="0 0 16 16">
  <style>.fill{fill:currentColor}</style>
  <path class="fill" d="M 1.8 3.7 L 14.3 3.7 L 14.3 12.2 L 1.8 12.2 Z M 15.05 2.2 L 1.05 2.2 C 0.636 2.2 0.3 2.536 0.3 2.95 L 0.3 12.95 C 0.3 13.364 0.636 13.7 1.05 13.7 L 15.05 13.7 C 15.464 13.7 15.8 13.364 15.8 12.95 L 15.8 2.95 C 15.8 2.536 15.464 2.2 15.05 2.2" transform="matrix(1,0,0,-1,0,16)"/>
  <path class="fill" d="M 0 0 C -0.139 0 -0.277 0.038 -0.399 0.115 L -7.399 4.515 C -7.75 4.735 -7.855 5.198 -7.635 5.549 C -7.415 5.9 -6.951 6.006 -6.601 5.785 L 0 1.636 L 6.601 5.785 C 6.953 6.006 7.415 5.899 7.635 5.549 C 7.855 5.198 7.75 4.735 7.399 4.515 L 0.399 0.115 C 0.277 0.038 0.139 0 0 0" transform="matrix(1,0,0,-1,8.0498,10)"/>
  <path class="fill" d="M 0 0 C -0.182 0 -0.364 0.065 -0.508 0.198 C -0.813 0.479 -0.832 0.954 -0.551 1.258 L 4.149 6.358 C 4.43 6.663 4.904 6.683 5.208 6.401 C 5.513 6.121 5.532 5.646 5.251 5.342 L 0.551 0.242 C 0.404 0.081 0.202 0 0 0" transform="matrix(1,0,0,-1,1.0498,13.7002)"/>
  <path class="fill" d="M 0 0 C -0.202 0 -0.403 0.081 -0.551 0.241 L -5.351 5.441 C -5.632 5.745 -5.613 6.22 -5.309 6.501 C -5.003 6.781 -4.528 6.762 -4.249 6.458 L 0.551 1.259 C 0.832 0.954 0.813 0.479 0.509 0.199 C 0.364 0.065 0.182 0 0 0" transform="matrix(1,0,0,-1,15.0498,13.7998)"/>
</svg>
