<svg xmlns="http://www.w3.org/2000/svg" viewBox="0 0 16 16">
  <style>.fill{fill:currentColor}</style>
  <path class="fill" d="M 0 0 C -1.318 0 -2.857 -0.7 -2.857 -2.674 C -2.857 -4.926 -1.542 -6.034 -0.27 -7.104 C -0.088 -7.258 0.088 -7.406 0.253 -7.552 C 1.053 -8.258 2.604 -9.588 3.393 -10.264 C 4.182 -9.588 5.732 -8.258 6.532 -7.552 C 6.697 -7.406 6.873 -7.258 7.055 -7.104 C 8.327 -6.034 9.643 -4.926 9.643 -2.674 C 9.643 -0.7 8.104 0 6.785 0 C 4.76 0 4.131 -1.804 4.105 -1.881 C 4.002 -2.188 3.758 -2.378 3.388 -2.395 C 3.064 -2.393 2.777 -2.185 2.679 -1.876 C 2.654 -1.804 2.025 0 0 0 M 3.393 -12 C 3.219 -12 3.046 -11.94 2.906 -11.82 C 2.906 -11.82 0.367 -9.653 -0.74 -8.677 C -0.897 -8.537 -1.063 -8.397 -1.235 -8.252 C -2.553 -7.144 -4.357 -5.624 -4.357 -2.674 C -4.357 -0.216 -2.565 1.5 0 1.5 C 1.62 1.5 2.726 0.704 3.393 -0.132 C 4.06 0.704 5.165 1.5 6.785 1.5 C 9.351 1.5 11.143 -0.216 11.143 -2.674 C 11.143 -5.624 9.338 -7.144 8.021 -8.252 C 7.849 -8.397 7.682 -8.537 7.524 -8.677 C 6.418 -9.653 3.879 -11.82 3.879 -11.82 C 3.739 -11.94 3.566 -12 3.393 -12" transform="matrix(1,0,0,-1,4.6074,2.75)"/>
</svg>
