<?xml version="1.0" encoding="UTF-8"?>
<svg xmlns="http://www.w3.org/2000/svg" viewBox="0 0 16 16">
  <style>.no-fill{fill:none}.stroke{stroke:currentColor;stroke-width:1.5px;stroke-linecap:round;stroke-linejoin:round}</style>
<path class="no-fill stroke" d="M 0 0.0015625 C 0 3.9 -3.101562 7.001563 -7 7.001563 C -10.898438 7.001563 -14 3.9 -14 0.0015625 Z M 0 0.0015625 " transform="matrix(1, 0, 0, -1, 15, 9.9)"/>
<path class="no-fill stroke" d="M 0 0 L 3.050781 -3.101562 " transform="matrix(1, 0, 0, -1, 1, 1)"/>
<path class="no-fill stroke" d="M 0.00071875 -0.0015625 L 3.0515 3.1 " transform="matrix(1, 0, 0, -1, 11.9485, 4.1)"/>
<path class="no-fill stroke" d="M 0 0.0015625 L 0 -5.1 L 14 -5.1 L 14 0.0015625 " transform="matrix(1, 0, 0, -1, 1, 9.9)"/>
<path class="no-fill stroke" d="M 0.00078125 0.00161875 L 0.399219 0.00161875 " transform="matrix(1, 0, 0, -1, 4.8, 7.3649)"/>
<path class="no-fill stroke" d="M 0.00078125 0.00161875 L 0.399219 0.00161875 " transform="matrix(1, 0, 0, -1, 10.8, 7.3649)"/>
</svg>
