<svg xmlns="http://www.w3.org/2000/svg" viewBox="0 0 16 16">
  <style>.no-fill{fill:none}.stroke{stroke:currentColor;stroke-width:1.5px;stroke-linecap:round;stroke-linejoin:round}</style>
  <path class="no-fill stroke" d="M 0 0 L -14 0 L -14 5.1 C -14 9 -10.9 12.1 -7 12.1 C -3.1 12.1 0 9 0 5.1 L 0 0 Z" transform="matrix(1,0,0,-1,15,15)"/>
  <path class="no-fill stroke" d="M 0 0 L -14 0" transform="matrix(1,0,0,-1,15,10.5)"/>
  <path class="no-fill stroke" d="M 0 0 L 1.8 -2.5" transform="matrix(1,0,0,-1,2.2515,1.6)"/>
  <path class="no-fill stroke" d="M 0 0 L 1.8 2.5" transform="matrix(1,0,0,-1,11.9485,4.1)"/>
  <path class="no-fill stroke" d="M 0 0 L 0.1 0" transform="matrix(1,0,0,-1,4.95,7.5149)"/>
  <path class="no-fill stroke" d="M 0 0 L 0.1 0" transform="matrix(1,0,0,-1,10.95,7.5149)"/>
</svg>
