<?xml version="1.0" encoding="UTF-8"?>
<svg xmlns="http://www.w3.org/2000/svg" viewBox="0 0 16 16">
  <style>.fill{fill:currentColor}</style>
<path class="fill" fill-rule="nonzero" d="M 1.792969 9.152344 L 14.207031 9.152344 C 13.847656 6.011719 11.25 3.652344 8 3.652344 C 4.75 3.652344 2.152344 6.011719 1.792969 9.152344 M 15 10.652344 L 1 10.652344 C 0.585938 10.652344 0.25 10.3125 0.25 9.902344 C 0.25 5.554688 3.65625 2.152344 8 2.152344 C 12.34375 2.152344 15.75 5.554688 15.75 9.902344 C 15.75 10.3125 15.414062 10.652344 15 10.652344 "/>
<path class="fill" fill-rule="nonzero" d="M 4.050781 4.851562 C 3.859375 4.851562 3.664062 4.773438 3.515625 4.625 L 0.464844 1.527344 C 0.175781 1.230469 0.179688 0.757812 0.472656 0.464844 C 0.769531 0.175781 1.242188 0.179688 1.535156 0.472656 L 4.585938 3.574219 C 4.875 3.867188 4.871094 4.34375 4.578125 4.636719 C 4.433594 4.777344 4.242188 4.851562 4.050781 4.851562 "/>
<path class="fill" fill-rule="nonzero" d="M 11.949219 4.851562 C 11.757812 4.851562 11.566406 4.777344 11.421875 4.636719 C 11.128906 4.34375 11.125 3.867188 11.414062 3.574219 L 14.464844 0.472656 C 14.757812 0.179688 15.230469 0.175781 15.527344 0.464844 C 15.820312 0.757812 15.824219 1.230469 15.535156 1.527344 L 12.480469 4.625 C 12.335938 4.773438 12.140625 4.851562 11.949219 4.851562 "/>
<path class="fill" fill-rule="nonzero" d="M 15 15.75 L 1 15.75 C 0.585938 15.75 0.25 15.414062 0.25 15 L 0.25 9.898438 C 0.25 9.484375 0.585938 9.148438 1 9.148438 C 1.414062 9.148438 1.75 9.484375 1.75 9.898438 L 1.75 14.25 L 14.25 14.25 L 14.25 9.898438 C 14.25 9.484375 14.585938 9.148438 15 9.148438 C 15.414062 9.148438 15.75 9.484375 15.75 9.898438 L 15.75 15 C 15.75 15.414062 15.414062 15.75 15 15.75 "/>
<path class="fill" fill-rule="nonzero" d="M 5.199219 8.113281 L 4.800781 8.113281 C 4.386719 8.113281 4.050781 7.777344 4.050781 7.363281 C 4.050781 6.949219 4.386719 6.613281 4.800781 6.613281 L 5.199219 6.613281 C 5.613281 6.613281 5.949219 6.949219 5.949219 7.363281 C 5.949219 7.777344 5.613281 8.113281 5.199219 8.113281 "/>
<path class="fill" fill-rule="nonzero" d="M 11.199219 8.113281 L 10.800781 8.113281 C 10.386719 8.113281 10.050781 7.777344 10.050781 7.363281 C 10.050781 6.949219 10.386719 6.613281 10.800781 6.613281 L 11.199219 6.613281 C 11.613281 6.613281 11.949219 6.949219 11.949219 7.363281 C 11.949219 7.777344 11.613281 8.113281 11.199219 8.113281 "/>
</svg>
