<svg xmlns="http://www.w3.org/2000/svg" viewBox="0 0 16 16">
  <style>.fill{fill:currentColor}</style>
  <path class="fill" d="M 1.75 4.75 L 14.25 4.75 L 14.25 1.75 L 1.75 1.75 Z M 1.75 1.75 M 4.444 11.268 C 4.459 11.278 4.476 11.281 4.49 11.292 C 4.499 11.298 4.503 11.307 4.511 11.314 C 5.502 11.97 6.698 12.35 8 12.35 C 9.302 12.35 10.498 11.97 11.488 11.314 C 11.497 11.308 11.501 11.297 11.51 11.291 C 11.525 11.28 11.542 11.277 11.557 11.267 C 13.156 10.177 14.195 8.358 14.243 6.25 L 1.757 6.25 C 1.805 8.359 2.845 10.179 4.444 11.268 M 12.993 12.068 L 14.356 13.962 C 14.599 14.298 14.522 14.767 14.187 15.009 C 13.85 15.251 13.381 15.173 13.14 14.838 L 11.752 12.911 C 10.646 13.51 9.37 13.85 8 13.85 C 6.63 13.85 5.354 13.51 4.248 12.911 L 2.86 14.838 C 2.619 15.174 2.15 15.25 1.813 15.008 C 1.477 14.767 1.401 14.298 1.643 13.961 L 3.006 12.068 C 1.313 10.657 0.25 8.526 0.25 6.1 L 0.25 1 C 0.25 0.586 0.586 0.25 1 0.25 L 15 0.25 C 15.414 0.25 15.75 0.586 15.75 1 L 15.75 6.1 C 15.75 8.526 14.687 10.658 12.993 12.068" transform="matrix(1,0,0,-1,0,16)"/>
  <path class="fill" d="M 0 0 C 0.414 0 0.75 0.336 0.75 0.75 C 0.75 1.164 0.414 1.5 0 1.5 L -0.1 1.5 C -0.514 1.5 -0.8 1.164 -0.8 0.75 C -0.8 0.336 -0.414 0 0 0" transform="matrix(1,0,0,-1,5.0498,8.2651)"/>
  <path class="fill" d="M 0 0 C 0.414 0 0.75 0.336 0.75 0.75 C 0.75 1.164 0.414 1.5 0 1.5 L -0.1 1.5 C -0.514 1.5 -0.8 1.164 -0.8 0.75 C -0.8 0.336 -0.414 0 0 0" transform="matrix(1,0,0,-1,11.0498,8.2651)"/>
</svg>
