<svg xmlns="http://www.w3.org/2000/svg" viewBox="0 0 16 16">
  <style>.fill{fill:currentColor}</style>
  <path class="fill" d="M 0 0 C -0.064 0 -0.129 -0.001 -0.194 -0.003 C -3.534 -0.104 -6.251 -3.038 -6.251 -6.544 L -6.251 -10.291 C -6.251 -10.429 -6.139 -10.541 -6.001 -10.541 L 5.999 -10.541 C 6.137 -10.541 6.249 -10.429 6.249 -10.291 L 6.249 -6.25 C 6.249 -4.545 5.575 -2.953 4.352 -1.765 C 3.175 -0.623 1.636 0 0 0 M 5.999 -12.041 L -6.001 -12.041 C -6.966 -12.041 -7.751 -11.256 -7.751 -10.291 L -7.751 -6.544 C -7.751 -2.235 -4.381 1.372 -0.239 1.496 C 1.877 1.564 3.879 0.784 5.396 -0.688 C 6.913 -2.161 7.749 -4.136 7.749 -6.25 L 7.749 -10.291 C 7.749 -11.256 6.964 -12.041 5.999 -12.041" transform="matrix(1,0,0,-1,8.001,3.709)"/>
  <path class="fill" d="M 0 0 C -0.414 0 -0.75 0.336 -0.75 0.75 L -0.75 0.85 C -0.75 1.264 -0.414 1.6 0 1.6 C 0.414 1.6 0.75 1.264 0.75 0.85 L 0.75 0.75 C 0.75 0.336 0.414 0 0 0" transform="matrix(1,0,0,-1,5,8.2153)"/>
  <path class="fill" d="M 0 0 C -0.414 0 -0.75 0.336 -0.75 0.75 L -0.75 0.85 C -0.75 1.264 -0.414 1.6 0 1.6 C 0.414 1.6 0.75 1.264 0.75 0.85 L 0.75 0.75 C 0.75 0.336 0.414 0 0 0" transform="matrix(1,0,0,-1,11,8.2153)"/>
  <path class="fill" d="M 0 0 C -0.248 0 -0.491 0.123 -0.634 0.349 L -2.374 3.095 C -2.596 3.445 -2.492 3.909 -2.142 4.13 C -1.793 4.352 -1.329 4.249 -1.106 3.898 L 0.633 1.151 C 0.855 0.801 0.751 0.338 0.401 0.116 C 0.276 0.038 0.137 0 0 0" transform="matrix(1,0,0,-1,4.04,4.9966)"/>
  <path class="fill" d="M 0 0 C -0.119 0 -0.24 0.028 -0.353 0.088 C -0.718 0.284 -0.855 0.738 -0.66 1.104 L 0.825 3.884 C 1.02 4.249 1.475 4.388 1.84 4.192 C 2.205 3.997 2.343 3.542 2.147 3.177 L 0.662 0.396 C 0.527 0.144 0.269 0 0 0" transform="matrix(1,0,0,-1,12.0918,5.0303)"/>
  <path class="fill" d="M 0 0 L -14 0 C -14.414 0 -14.75 0.336 -14.75 0.75 C -14.75 1.164 -14.414 1.5 -14 1.5 L 0 1.5 C 0.414 1.5 0.75 1.164 0.75 0.75 C 0.75 0.336 0.414 0 0 0" transform="matrix(1,0,0,-1,15,11.2334)"/>
</svg>
