<svg xmlns="http://www.w3.org/2000/svg" viewBox="0 0 16 16">
  <style>.fill{fill:currentColor}</style>
  <path class="fill" d="M 0 0 C -3.446 0 -6.25 -2.804 -6.25 -6.25 C -6.25 -9.696 -3.446 -12.5 0 -12.5 C 3.446 -12.5 6.25 -9.696 6.25 -6.25 C 6.25 -6.087 6.244 -5.924 6.231 -5.762 L 1.363 -5.762 L 1.363 -7.04 L 3.779 -7.04 C 4.029 -7.04 4.263 -7.165 4.401 -7.372 C 4.541 -7.579 4.568 -7.842 4.474 -8.073 C 3.729 -9.899 1.973 -11.08 0 -11.08 C -2.663 -11.08 -4.83 -8.913 -4.83 -6.25 C -4.83 -3.587 -2.663 -1.42 0 -1.42 C 0.819 -1.42 1.607 -1.622 2.313 -2.009 L 3.31 -0.948 C 2.322 -0.333 1.173 0 0 0 M 0 -14 C -4.273 -14 -7.75 -10.523 -7.75 -6.25 C -7.75 -1.977 -4.273 1.5 0 1.5 C 1.79 1.5 3.536 0.875 4.917 -0.259 C 5.077 -0.391 5.176 -0.583 5.188 -0.79 C 5.202 -0.997 5.129 -1.2 4.987 -1.352 L 2.981 -3.489 C 2.72 -3.767 2.293 -3.804 1.986 -3.577 C 1.409 -3.147 0.722 -2.92 0 -2.92 C -1.836 -2.92 -3.33 -4.414 -3.33 -6.25 C -3.33 -8.086 -1.836 -9.58 0 -9.58 C 0.938 -9.58 1.805 -9.193 2.421 -8.54 L 0.613 -8.54 C 0.199 -8.54 -0.137 -8.204 -0.137 -7.79 L -0.137 -5.012 C -0.137 -4.598 0.199 -4.262 0.613 -4.262 L 6.891 -4.262 C 7.254 -4.262 7.564 -4.522 7.629 -4.879 C 7.709 -5.327 7.75 -5.788 7.75 -6.25 C 7.75 -10.523 4.273 -14 0 -14" transform="matrix(1,0,0,-1,8,1.75)"/>
</svg>
