<svg xmlns="http://www.w3.org/2000/svg" viewBox="0 0 16 16">
  <style>.fill{fill:currentColor}</style>
  <path class="fill" d="M 0 0 L -1.996 0 C -2.41 0 -2.746 0.336 -2.746 0.75 C -2.746 1.164 -2.41 1.5 -1.996 1.5 L 0 1.5 C 0.414 1.5 0.75 1.164 0.75 0.75 C 0.75 0.336 0.414 0 0 0" transform="matrix(1,0,0,-1,2.9956,3.75)"/>
  <path class="fill" d="M 0 0 L -8.004 0 C -8.418 0 -8.754 0.336 -8.754 0.75 C -8.754 1.164 -8.418 1.5 -8.004 1.5 L 0 1.5 C 0.414 1.5 0.75 1.164 0.75 0.75 C 0.75 0.336 0.414 0 0 0" transform="matrix(1,0,0,-1,15,3.75)"/>
  <path class="fill" d="M 0 0 C -0.689 0 -1.25 -0.561 -1.25 -1.25 C -1.25 -1.939 -0.689 -2.5 0 -2.5 C 0.689 -2.5 1.25 -1.939 1.25 -1.25 C 1.25 -0.561 0.689 0 0 0 M 0 -4 C -1.517 -4 -2.75 -2.767 -2.75 -1.25 C -2.75 0.267 -1.517 1.5 0 1.5 C 1.517 1.5 2.75 0.267 2.75 -1.25 C 2.75 -2.767 1.517 -4 0 -4" transform="matrix(1,0,0,-1,4.9956,1.75)"/>
  <path class="fill" d="M 0 0 L -1.996 0 C -2.41 0 -2.746 0.336 -2.746 0.75 C -2.746 1.164 -2.41 1.5 -1.996 1.5 L 0 1.5 C 0.414 1.5 0.75 1.164 0.75 0.75 C 0.75 0.336 0.414 0 0 0" transform="matrix(1,0,0,-1,2.9956,13.75)"/>
  <path class="fill" d="M 0 0 L -8.004 0 C -8.418 0 -8.754 0.336 -8.754 0.75 C -8.754 1.164 -8.418 1.5 -8.004 1.5 L 0 1.5 C 0.414 1.5 0.75 1.164 0.75 0.75 C 0.75 0.336 0.414 0 0 0" transform="matrix(1,0,0,-1,15,13.75)"/>
  <path class="fill" d="M 0 0 C -0.689 0 -1.25 -0.561 -1.25 -1.25 C -1.25 -1.939 -0.689 -2.5 0 -2.5 C 0.689 -2.5 1.25 -1.939 1.25 -1.25 C 1.25 -0.561 0.689 0 0 0 M 0 -4 C -1.517 -4 -2.75 -2.767 -2.75 -1.25 C -2.75 0.267 -1.517 1.5 0 1.5 C 1.517 1.5 2.75 0.267 2.75 -1.25 C 2.75 -2.767 1.517 -4 0 -4" transform="matrix(1,0,0,-1,4.9956,11.75)"/>
  <path class="fill" d="M 0 0 L -1.996 0 C -2.41 0 -2.746 0.336 -2.746 0.75 C -2.746 1.164 -2.41 1.5 -1.996 1.5 L 0 1.5 C 0.414 1.5 0.75 1.164 0.75 0.75 C 0.75 0.336 0.414 0 0 0" transform="matrix(1,0,0,-1,15,8.75)"/>
  <path class="fill" d="M 0 0 L -8.004 0 C -8.418 0 -8.754 0.336 -8.754 0.75 C -8.754 1.164 -8.418 1.5 -8.004 1.5 L 0 1.5 C 0.414 1.5 0.75 1.164 0.75 0.75 C 0.75 0.336 0.414 0 0 0" transform="matrix(1,0,0,-1,9.0039,8.75)"/>
  <path class="fill" d="M 0 0 C -0.689 0 -1.25 -0.561 -1.25 -1.25 C -1.25 -1.939 -0.689 -2.5 0 -2.5 C 0.689 -2.5 1.25 -1.939 1.25 -1.25 C 1.25 -0.561 0.689 0 0 0 M 0 -4 C -1.517 -4 -2.75 -2.767 -2.75 -1.25 C -2.75 0.267 -1.517 1.5 0 1.5 C 1.517 1.5 2.75 0.267 2.75 -1.25 C 2.75 -2.767 1.517 -4 0 -4" transform="matrix(1,0,0,-1,11.0039,6.75)"/>
</svg>
