<?xml version="1.0" encoding="UTF-8"?>
<svg id="Layer_1" xmlns="http://www.w3.org/2000/svg" version="1.1" viewBox="0 0 15.5 15.6">
  <!-- Generator: Adobe Illustrator 30.5.1, SVG Export Plug-In . SVG Version: 2.1.4 Build 3)  -->
  <path d="M14.7,11.5c-.4,0-.8-.3-.8-.8V2.2c0-.4-.4-.8-.8-.8H4.7c-.4,0-.8-.3-.8-.8s.3-.8.8-.8h8.5c1.2,0,2.2,1,2.2,2.2v8.5c0,.4-.3.8-.8.8Z"/>
  <path d="M10.2,15.6H2.2c-1.2,0-2.2-1-2.2-2.2V5.2c0-1.2,1-2.2,2.2-2.2h8c1.2,0,2.2,1,2.2,2.2v8c0,1.2-1,2.2-2.2,2.2h0ZM2.2,4.4c-.4,0-.8.3-.8.8v8c0,.4.3.8.8.8h8c.4,0,.8-.3.8-.8V5.2c0-.4-.3-.8-.8-.8H2.2Z"/>
</svg>