<svg xmlns="http://www.w3.org/2000/svg" viewBox="0 0 16 16">
  <style>.fill{fill:currentColor}</style>
  <path class="fill" d="M 0 0 C -0.138 0 -0.25 -0.112 -0.25 -0.25 L -0.25 -12.25 C -0.25 -12.388 -0.138 -12.5 0 -12.5 L 8 -12.5 C 8.138 -12.5 8.25 -12.388 8.25 -12.25 L 8.25 -0.25 C 8.25 -0.112 8.138 0 8 0 Z M 8 -14 L 0 -14 C -0.965 -14 -1.75 -13.215 -1.75 -12.25 L -1.75 -0.25 C -1.75 0.715 -0.965 1.5 0 1.5 L 8 1.5 C 8.965 1.5 9.75 0.715 9.75 -0.25 L 9.75 -12.25 C 9.75 -13.215 8.965 -14 8 -14" transform="matrix(1,0,0,-1,4,1.75)"/>
  <path class="fill" d="M 0 0 L -10 0 C -10.414 0 -10.75 0.336 -10.75 0.75 C -10.75 1.164 -10.414 1.5 -10 1.5 L 0 1.5 C 0.414 1.5 0.75 1.164 0.75 0.75 C 0.75 0.336 0.414 0 0 0" transform="matrix(1,0,0,-1,13,12.9072)"/>
  <path class="fill" d="M 0 0 L -1.905 0 C -2.319 0 -2.655 0.336 -2.655 0.75 C -2.655 1.164 -2.319 1.5 -1.905 1.5 L 0 1.5 C 0.414 1.5 0.75 1.164 0.75 0.75 C 0.75 0.336 0.414 0 0 0" transform="matrix(1,0,0,-1,10.0498,4.25)"/>
  <path class="fill" d="M 0 0 L -0.2 0 C -0.614 0 -0.95 0.336 -0.95 0.75 C -0.95 1.164 -0.614 1.5 -0.2 1.5 L 0 1.5 C 0.414 1.5 0.75 1.164 0.75 0.75 C 0.75 0.336 0.414 0 0 0" transform="matrix(1,0,0,-1,6.1504,4.25)"/>
</svg>
