<svg xmlns="http://www.w3.org/2000/svg" viewBox="0 0 16 16">
  <style>.no-fill{fill:none}.stroke{stroke:currentColor;stroke-width:1.5px;stroke-linecap:round;stroke-linejoin:round}</style>
  <path class="no-fill stroke" d="M 0 0 C -6.034 4.393 0.807 15.646 8.824 10.988 C 12.789 8.684 12.071 4.018 10.134 2.848 C 7.697 1.375 6.229 3.023 5.325 1.919 C 4.49 0.899 6.678 -0.337 5.622 -1.526 C 4.898 -2.342 2.521 -1.836 0 0 Z" transform="matrix(1,0,0,-1,3.35,13.024)"/>
  <path class="no-fill stroke" d="M 0 0 C 0.061 -0.198 -0.05 -0.408 -0.248 -0.469 C -0.446 -0.529 -0.656 -0.418 -0.717 -0.22 C -0.778 -0.022 -0.667 0.187 -0.469 0.248 C -0.271 0.309 -0.061 0.198 0 0 Z" transform="matrix(1,0,0,-1,12.1301,5.4957)"/>
  <path class="no-fill stroke" d="M 0 0 C 0.061 -0.198 -0.05 -0.408 -0.248 -0.469 C -0.446 -0.529 -0.656 -0.418 -0.717 -0.22 C -0.778 -0.022 -0.667 0.187 -0.469 0.248 C -0.271 0.309 -0.061 0.198 0 0 Z" transform="matrix(1,0,0,-1,9.0915,3.7664)"/>
  <path class="no-fill stroke" d="M 0 0 C 0.061 -0.198 -0.05 -0.408 -0.248 -0.469 C -0.446 -0.529 -0.656 -0.418 -0.717 -0.22 C -0.778 -0.022 -0.667 0.187 -0.469 0.248 C -0.271 0.309 -0.061 0.198 0 0 Z" transform="matrix(1,0,0,-1,5.8236,4.9754)"/>
  <path class="no-fill stroke" d="M 0 0 C 0.061 -0.198 -0.05 -0.408 -0.248 -0.469 C -0.446 -0.529 -0.656 -0.418 -0.717 -0.22 C -0.778 -0.022 -0.667 0.187 -0.469 0.248 C -0.271 0.309 -0.061 0.198 0 0 Z" transform="matrix(1,0,0,-1,4.3912,8.1133)"/>
  <path class="no-fill stroke" d="M 0 0 C 0 -0.276 -0.224 -0.5 -0.5 -0.5 C -0.776 -0.5 -1 -0.276 -1 0 C -1 0.276 -0.776 0.5 -0.5 0.5 C -0.224 0.5 0 0.276 0 0 Z" transform="matrix(1,0,0,-1,12.327,6.3745)"/>
  <path class="no-fill stroke" d="M 0 0 C 0 -0.276 -0.224 -0.5 -0.5 -0.5 C -0.776 -0.5 -1 -0.276 -1 0 C -1 0.276 -0.776 0.5 -0.5 0.5 C -0.224 0.5 0 0.276 0 0 Z" transform="matrix(1,0,0,-1,9.427,4.1745)"/>
  <path class="no-fill stroke" d="M 0 0 C 0 -0.276 -0.224 -0.5 -0.5 -0.5 C -0.776 -0.5 -1 -0.276 -1 0 C -1 0.276 -0.776 0.5 -0.5 0.5 C -0.224 0.5 0 0.276 0 0 Z" transform="matrix(1,0,0,-1,6.127,5.4744)"/>
</svg>
