<svg xmlns="http://www.w3.org/2000/svg" viewBox="0 0 16 16">
  <style>.fill{fill:currentColor}</style>
  <path class="fill" d="M 0 0 C -0.138 0 -0.25 -0.112 -0.25 -0.25 L -0.25 -9.666 C -0.25 -9.804 -0.138 -9.916 0 -9.916 L 12 -9.916 C 12.138 -9.916 12.25 -9.804 12.25 -9.666 L 12.25 -0.25 C 12.25 -0.112 12.138 0 12 0 Z M 12 -11.416 L 0 -11.416 C -0.965 -11.416 -1.75 -10.631 -1.75 -9.666 L -1.75 -0.25 C -1.75 0.715 -0.965 1.5 0 1.5 L 12 1.5 C 12.965 1.5 13.75 0.715 13.75 -0.25 L 13.75 -9.666 C 13.75 -10.631 12.965 -11.416 12 -11.416" transform="matrix(1,0,0,-1,2,1.75)"/>
  <path class="fill" d="M 0 0 L -14 0 C -14.414 0 -14.75 0.336 -14.75 0.75 C -14.75 1.164 -14.414 1.5 -14 1.5 L 0 1.5 C 0.414 1.5 0.75 1.164 0.75 0.75 C 0.75 0.336 0.414 0 0 0" transform="matrix(1,0,0,-1,15,10.7227)"/>
  <path class="fill" d="M 0 0 L -6.184 0 C -6.46 0 -6.715 0.152 -6.845 0.396 C -6.976 0.641 -6.961 0.937 -6.807 1.167 L -5.076 3.751 C -4.845 4.096 -4.38 4.188 -4.036 3.957 C -3.691 3.727 -3.6 3.261 -3.83 2.917 L -4.779 1.5 L -1.405 1.5 L -2.354 2.917 C -2.584 3.261 -2.492 3.727 -2.148 3.957 C -1.803 4.187 -1.338 4.097 -1.107 3.751 L 0.623 1.167 C 0.777 0.937 0.792 0.641 0.662 0.396 C 0.531 0.152 0.277 0 0 0" transform="matrix(1,0,0,-1,11.0918,15.75)"/>
</svg>
