<svg xmlns="http://www.w3.org/2000/svg" viewBox="0 0 16 16">
  <style>.fill{fill:currentColor}</style>
  <path class="fill" d="M 0 0 C -0.138 0 -0.25 -0.112 -0.25 -0.25 L -0.25 -8.4 C -0.25 -8.538 -0.138 -8.65 0 -8.65 L 12 -8.65 C 12.138 -8.65 12.25 -8.538 12.25 -8.4 L 12.25 -0.25 C 12.25 -0.112 12.138 0 12 0 Z M 12 -10.15 L 0 -10.15 C -0.965 -10.15 -1.75 -9.365 -1.75 -8.4 L -1.75 -0.25 C -1.75 0.715 -0.965 1.5 0 1.5 L 12 1.5 C 12.965 1.5 13.75 0.715 13.75 -0.25 L 13.75 -8.4 C 13.75 -9.365 12.965 -10.15 12 -10.15" transform="matrix(1,0,0,-1,2,2.375)"/>
  <path class="fill" d="M 0 0 L -1 0 C -1.414 0 -1.75 0.336 -1.75 0.75 C -1.75 1.164 -1.414 1.5 -1 1.5 L 0 1.5 C 0.414 1.5 0.75 1.164 0.75 0.75 C 0.75 0.336 0.414 0 0 0" transform="matrix(1,0,0,-1,8.5,4.625)"/>
  <path class="fill" d="M 0 0 L -4 0 C -4.414 0 -4.75 0.336 -4.75 0.75 C -4.75 1.164 -4.414 1.5 -4 1.5 L 0 1.5 C 0.414 1.5 0.75 1.164 0.75 0.75 C 0.75 0.336 0.414 0 0 0" transform="matrix(1,0,0,-1,10,15.125)"/>
  <path class="fill" d="M 0 0 C -0.414 0 -0.75 0.336 -0.75 0.75 L -0.75 3.35 C -0.75 3.764 -0.414 4.1 0 4.1 C 0.414 4.1 0.75 3.764 0.75 3.35 L 0.75 0.75 C 0.75 0.336 0.414 0 0 0" transform="matrix(1,0,0,-1,8,15.125)"/>
</svg>
