<?xml version="1.0" encoding="UTF-8"?>
<svg xmlns="http://www.w3.org/2000/svg" viewBox="0 0 16 16">
  <style>.no-fill{fill:none}.stroke{stroke:#7d8590;stroke-width:1.5px;stroke-linecap:round;stroke-linejoin:round}</style>
<path class="no-fill stroke" d="M -0.00169375 0.00170625 C 0.568619 0.65405 0.959244 1.572019 0.959244 2.489988 L 0.959244 2.837644 C -0.239975 2.837644 -1.333725 2.263425 -1.986069 1.521238 C -2.513413 0.954831 -2.954819 -0.138919 -2.708725 -0.959231 L -2.708725 -1.267825 L -2.447006 -1.267825 C -1.614975 -1.267825 -0.611069 -0.697512 -0.00169375 0.00170625 Z M 1.228775 -4.693606 C 1.228775 -6.459231 3.060806 -7.459231 3.060806 -7.459231 C 3.060806 -7.459231 2.760025 -8.459231 2.127212 -9.427981 C 1.529556 -10.260012 0.927994 -11.1272 -0.0056 -11.1272 C -0.939194 -11.1272 -1.173569 -10.59595 -2.271225 -10.59595 C -3.372788 -10.59595 -3.704819 -11.162356 -4.540756 -11.162356 C -5.372788 -11.162356 -6.0056 -10.361575 -6.673569 -9.427981 C -7.470444 -8.295169 -8.107163 -6.525637 -8.107163 -4.861575 C -8.107163 -2.193606 -6.372788 -0.760012 -4.673569 -0.760012 C -2.970444 -0.760012 -3.0056 -1.361575 -2.439194 -1.361575 C -1.872788 -1.361575 -1.040756 -0.728762 -0.0056 -0.728762 C 1.029556 -0.728762 1.795181 -0.760012 2.728775 -2.09595 C 2.728775 -2.09595 1.228775 -2.927981 1.228775 -4.693606 Z M 1.228775 -4.693606 " transform="matrix(1, 0, 0, -1, 10.5056, 3.8728)"/>
</svg>
