<svg xmlns="http://www.w3.org/2000/svg" viewBox="0 0 16 16">
  <style>.no-fill{fill:none}.stroke{stroke:#7d8590;stroke-width:1.5px;stroke-linecap:round;stroke-linejoin:round}</style>
  <path class="no-fill stroke" d="M 0 0 L 0.4 0" transform="matrix(1,0,0,-1,4.9,12.3767)"/>
  <path class="no-fill stroke" d="M 0 0 L 3.261 0" transform="matrix(1,0,0,-1,7.8,12.3767)"/>
  <path class="no-fill stroke" d="M 0 0 L 0.4 0" transform="matrix(1,0,0,-1,4.9,9.8767)"/>
  <path class="no-fill stroke" d="M 0 0 L 0.4 0" transform="matrix(1,0,0,-1,7.8,9.8767)"/>
  <path class="no-fill stroke" d="M 0 0 L 0.4 0" transform="matrix(1,0,0,-1,10.7,9.8767)"/>
  <path class="no-fill stroke" d="M 0 0 L 0.4 0" transform="matrix(1,0,0,-1,4.9,7.3766)"/>
  <path class="no-fill stroke" d="M 0 0 L 0.4 0" transform="matrix(1,0,0,-1,7.8,7.3766)"/>
  <path class="no-fill stroke" d="M 0 0 L 0.4 0" transform="matrix(1,0,0,-1,10.7,7.3766)"/>
  <path class="no-fill stroke" d="M 0 0 L -9.395 0 C -9.947 0 -10.395 0.448 -10.395 1 L -10.395 13 C -10.395 13.552 -9.947 14 -9.395 14 L 0 14 C 0.552 14 1 13.552 1 13 L 1 1 C 1 0.448 0.552 0 0 0 Z" transform="matrix(1,0,0,-1,12.6975,15)"/>
  <path class="no-fill stroke" d="M 0 0 L 11.395 0" transform="matrix(1,0,0,-1,2.3025,4.7269)"/>
</svg>
