<svg xmlns="http://www.w3.org/2000/svg" viewBox="0 0 16 16">
  <style>.no-fill{fill:none}.stroke{stroke:#7d8590;stroke-width:1.5px;stroke-linecap:round;stroke-linejoin:round}</style>
  <path class="no-fill stroke" d="M 0 0 L -4.349 -4.349" transform="matrix(1,0,0,-1,14.8629,1.1371)"/>
  <path class="no-fill stroke" d="M 0 0 L 2.491 0 L 2.491 -2.491" transform="matrix(1,0,0,-1,12.5089,1)"/>
  <path class="no-fill stroke" d="M 0 0 L 4.349 4.349" transform="matrix(1,0,0,-1,1.1371,14.8629)"/>
  <path class="no-fill stroke" d="M 0 0 L -2.491 0 L -2.491 2.491" transform="matrix(1,0,0,-1,3.4911,15)"/>
  <path class="no-fill stroke" d="M 0 0 L -4.349 4.349" transform="matrix(1,0,0,-1,14.8629,14.8629)"/>
  <path class="no-fill stroke" d="M 0 0 L 0 -2.491 L -2.491 -2.491" transform="matrix(1,0,0,-1,15,12.5089)"/>
  <path class="no-fill stroke" d="M 0 0 L 4.349 -4.349" transform="matrix(1,0,0,-1,1.1371,1.1371)"/>
  <path class="no-fill stroke" d="M 0 0 L 0 2.491 L 2.491 2.491" transform="matrix(1,0,0,-1,1,3.4911)"/>
</svg>
