<?xml version="1.0" encoding="UTF-8"?>
<svg xmlns="http://www.w3.org/2000/svg" viewBox="0 0 16 16">
  <style>.no-fill{fill:none}.stroke{stroke:#000000;stroke-width:1.5px;stroke-linecap:round;stroke-linejoin:round}</style>
<path class="no-fill stroke" d="M 0 -0.00126875 L -2.332031 -0.00126875 C -3.617188 -0.00126875 -4.667969 1.049513 -4.667969 2.334669 C -4.667969 3.615919 -3.617188 4.6667 -2.332031 4.6667 L 0 4.6667 Z M 0 -0.00126875 " transform="matrix(1, 0, 0, -1, 8, 5.6667)"/>
<path class="no-fill stroke" d="M 0 0.00126875 L -2.332031 0.00126875 C -3.617188 0.00126875 -4.667969 1.048144 -4.667969 2.3333 C -4.667969 3.618456 -3.617188 4.665331 -2.332031 4.665331 L 0 4.665331 Z M 0 0.00126875 " transform="matrix(1, 0, 0, -1, 8, 10.3333)"/>
<path class="no-fill stroke" d="M 0.00126875 0 C -1.283887 0 -2.334669 1.050781 -2.334669 2.332031 C -2.334669 3.617188 -1.283887 4.667969 0.00126875 4.667969 L 2.3333 4.667969 L 2.3333 2.332031 C 2.3333 1.046875 1.290331 0 0.00126875 0 Z M 0.00126875 0 " transform="matrix(1, 0, 0, -1, 5.6667, 15)"/>
<path class="no-fill stroke" d="M 0 -0.00126875 L 2.332031 -0.00126875 C 3.617188 -0.00126875 4.667969 1.049513 4.667969 2.334669 C 4.667969 3.615919 3.617188 4.6667 2.332031 4.6667 L 0 4.6667 Z M 0 -0.00126875 " transform="matrix(1, 0, 0, -1, 8, 5.6667)"/>
<path class="no-fill stroke" d="M -0.00126875 0.00126875 C 1.283888 0.00126875 2.334669 1.048144 2.334669 2.3333 C 2.334669 3.618456 1.283888 4.665331 -0.00126875 4.665331 C -1.290331 4.665331 -2.3333 3.622363 -2.3333 2.3333 C -2.3333 1.044238 -1.290331 0.00126875 -0.00126875 0.00126875 Z M -0.00126875 0.00126875 " transform="matrix(1, 0, 0, -1, 10.3333, 10.3333)"/>
</svg>
