<svg xmlns="http://www.w3.org/2000/svg" viewBox="0 0 16 16">
  <style>.no-fill{fill:none}.stroke{stroke:#000000;stroke-width:1.5px;stroke-linecap:round;stroke-linejoin:round}</style>
  <path class="no-fill stroke" d="M 0 0 L -1.996 0" transform="matrix(1,0,0,-1,2.9958,3)"/>
  <path class="no-fill stroke" d="M 0 0 L -8.004 0" transform="matrix(1,0,0,-1,15,3)"/>
  <path class="no-fill stroke" d="M 0 0 C 0 -1.105 -0.895 -2 -2 -2 C -3.105 -2 -4 -1.105 -4 0 C -4 1.105 -3.105 2 -2 2 C -0.895 2 0 1.105 0 0 Z" transform="matrix(1,0,0,-1,6.9958,3)"/>
  <path class="no-fill stroke" d="M 0 0 L -1.996 0" transform="matrix(1,0,0,-1,2.9958,13)"/>
  <path class="no-fill stroke" d="M 0 0 L -8.004 0" transform="matrix(1,0,0,-1,15,13)"/>
  <path class="no-fill stroke" d="M 0 0 C 0 -1.105 -0.895 -2 -2 -2 C -3.105 -2 -4 -1.105 -4 0 C -4 1.105 -3.105 2 -2 2 C -0.895 2 0 1.105 0 0 Z" transform="matrix(1,0,0,-1,6.9958,13)"/>
  <path class="no-fill stroke" d="M 0 0 L 1.996 0" transform="matrix(1,0,0,-1,13.0042,8)"/>
  <path class="no-fill stroke" d="M 0 0 L 8.004 0" transform="matrix(1,0,0,-1,1,8)"/>
  <path class="no-fill stroke" d="M 0 0 C 0 -1.105 0.895 -2 2 -2 C 3.105 -2 4 -1.105 4 0 C 4 1.105 3.105 2 2 2 C 0.895 2 0 1.105 0 0 Z" transform="matrix(1,0,0,-1,9.0042,8)"/>
</svg>
