<svg xmlns="http://www.w3.org/2000/svg" viewBox="0 0 16 16">
  <style>.no-fill{fill:none}.stroke{stroke:#7d8590;stroke-width:1.5px;stroke-linecap:round;stroke-linejoin:round}</style>
  <path class="no-fill stroke" d="M 0 0 L -10.459 0 C -10.981 0 -11.419 0.392 -11.477 0.911 L -12.273 8.287 C -12.341 8.893 -11.866 9.424 -11.255 9.424 L -5.83 9.424 C -5.515 9.424 -5.218 9.28 -5.024 9.032 L -4.65 8.177 C -4.455 7.93 -4.158 7.785 -3.844 7.785 L 0.797 7.785 C 1.407 7.785 1.78 7.254 1.712 6.648 L 1.018 0.911 C 0.96 0.392 0.522 0 0 0 Z" transform="matrix(1,0,0,-1,13.2798,14.15)"/>
  <path class="no-fill stroke" d="M 0 0 L 0 1.738 C -0.061 2.345 0.369 2.876 0.922 2.876 L 5.722 2.876 C 6.175 2.876 6.542 2.509 6.542 2.057 L 6.542 2.057 C 6.542 1.604 6.909 1.237 7.361 1.237 L 11.479 1.237 C 12.033 1.237 12.37 0.706 12.309 0.099 L 12.309 -1.642" transform="matrix(1,0,0,-1,1.8345,4.7259)"/>
</svg>
