<svg xmlns="http://www.w3.org/2000/svg" viewBox="0 0 16 16">
  <style>.no-fill{fill:none}.stroke{stroke:#7d8590;stroke-width:1.5px;stroke-linecap:round;stroke-linejoin:round}</style>
  <path class="no-fill stroke" d="M 0 0 C -0.68 0.506 -1.522 0.806 -2.435 0.806 C -4.688 0.806 -6.515 -1.021 -6.515 -3.274 C -6.515 -5.528 -4.688 -7.354 -2.435 -7.354 C -0.726 -7.354 0.737 -6.304 1.345 -4.814 L -1.821 -4.814 L -1.821 -2.037 L 4.456 -2.037 C 4.528 -2.438 4.565 -2.852 4.565 -3.274 C 4.565 -7.14 1.431 -10.274 -2.435 -10.274 C -6.301 -10.274 -9.435 -7.14 -9.435 -3.274 C -9.435 0.592 -6.301 3.726 -2.435 3.726 C -0.749 3.726 0.798 3.13 2.006 2.137 L 0 0 Z" transform="matrix(1,0,0,-1,10.4345,4.7256)"/>
</svg>
