<svg xmlns="http://www.w3.org/2000/svg" viewBox="0 0 16 16">
  <style>.no-fill{fill:none}.stroke{stroke:#000000;stroke-width:1.5px;stroke-linecap:round;stroke-linejoin:round}</style>
  <path class="no-fill stroke" d="M 0 0 L -12 0 C -12.552 0 -13 0.448 -13 1 L -13 11 C -13 11.552 -12.552 12 -12 12 L 0 12 C 0.552 12 1 11.552 1 11 L 1 1 C 1 0.448 0.552 0 0 0 Z" transform="matrix(1,0,0,-1,14,14)"/>
  <path class="no-fill stroke" d="M 0 0 L -2.363 2.363 L -7.462 -2.736" transform="matrix(1,0,0,-1,14.9484,8.025)"/>
  <path class="no-fill stroke" d="M 0 0 L 5.412 5.412 L 7.57 3.254" transform="matrix(1,0,0,-1,1,12.9312)"/>
  <path class="no-fill stroke" d="M 0 0 C 0 -1.681 -1.363 -3.044 -3.044 -3.044 C -4.725 -3.044 -6.088 -1.681 -6.088 0" transform="matrix(1,0,0,-1,8.5572,2)"/>
</svg>
