<?xml version="1.0" encoding="UTF-8"?>
<svg xmlns="http://www.w3.org/2000/svg" viewBox="0 0 16 16">
  <style>.no-fill{fill:none}.stroke{stroke:#000000;stroke-width:1.5px;stroke-linecap:round;stroke-linejoin:round}</style>
<path class="no-fill stroke" d="M 0.00139375 0.00158125 C 0.657644 0.00158125 1.1928 -1.256231 1.1928 -2.7992 C 1.1928 -4.342169 0.657644 -5.596075 0.00139375 -5.596075 C -0.658762 -5.596075 -1.193919 -4.342169 -1.193919 -2.7992 C -1.193919 -1.256231 -0.658762 0.00158125 0.00139375 0.00158125 Z M -3.193919 0.806269 C -2.084544 0.806269 -1.193919 -0.810919 -1.193919 -2.803106 C -1.193919 -4.795294 -2.08845 -6.408575 -3.193919 -6.408575 C -4.299387 -6.408575 -5.193919 -4.795294 -5.193919 -2.803106 C -5.193919 -0.810919 -4.295481 0.806269 -3.193919 0.806269 Z M -9.002512 1.036738 C -6.90095 1.036738 -5.193919 -0.682012 -5.193919 -2.7992 C -5.193919 -4.916387 -6.90095 -6.631231 -9.002512 -6.631231 C -11.100169 -6.631231 -12.8072 -4.912481 -12.8072 -2.7992 C -12.8072 -0.685919 -11.100169 1.036738 -9.002512 1.036738 Z M -9.002512 1.036738 " transform="matrix(1, 0, 0, -1, 13.8072, 5.2008)"/>
</svg>
