<svg xmlns="http://www.w3.org/2000/svg" viewBox="0 0 16 16">
  <style>.no-fill{fill:none}.stroke{stroke:#000000;stroke-width:1.5px;stroke-linecap:round;stroke-linejoin:round}</style>
  <path class="no-fill stroke" d="M 0 0 L -6 0 C -6.552 0 -7 0.448 -7 1 L -7 13 C -7 13.552 -6.552 14 -6 14 L 0 14 C 0.552 14 1 13.552 1 13 L 1 1 C 1 0.448 0.552 0 0 0 Z" transform="matrix(1,0,0,-1,11,15)"/>
  <path class="no-fill stroke" d="M 0 0 L 0.4 0" transform="matrix(1,0,0,-1,7.8,12.7)"/>
  <path class="no-fill stroke" d="M 0 0 L 3.236 0" transform="matrix(1,0,0,-1,6.3822,3.3624)"/>
</svg>
