<?xml version="1.0" encoding="UTF-8"?>
<svg xmlns="http://www.w3.org/2000/svg" version="1.1" viewBox="0 0 15 15">
  <style>.no-fill{fill:none}.stroke{stroke:#7d8590;stroke-width:1.5px;stroke-linecap:round;stroke-linejoin:round}</style>
  <path class="no-fill stroke" d="M1.5,3.7h2.3c.2,0,.4,0,.5-.2.2-.2.2-.4.2-.5v-.7c0-.4.2-.8.5-1.1.3-.3.6-.5,1.1-.5s.8.2,1.1.5c.3.3.5.6.5,1.1v.7c0,.2,0,.4.2.5.2.2.4.2.5.2h2.3c.2,0,.4,0,.5.2.2.2.2.4.2.5v2.3c0,.2,0,.4.2.5s.4.2.5.2h.7c.4,0,.8.2,1.1.5s.5.6.5,1.1-.2.8-.5,1.1-.6.5-1.1.5h-.7c-.2,0-.4,0-.5.2-.2.2-.2.4-.2.5v2.3c0,.2,0,.4-.2.5-.2.2-.4.2-.5.2h-2.3c-.2,0-.4,0-.5-.2-.2-.2-.2-.4-.2-.5v-.7c0-.4-.2-.8-.5-1.1s-.6-.5-1.1-.5-.8.2-1.1.5c-.3.3-.5.6-.5,1.1v.7c0,.2,0,.4-.2.5-.2.2-.4.2-.5.2H1.5c-.2,0-.4,0-.5-.2-.2-.2-.2-.4-.2-.5v-2.3c0-.2,0-.4.2-.5.2-.2.4-.2.5-.2h.7c.4,0,.8-.2,1.1-.5s.5-.6.5-1.1-.2-.8-.5-1.1-.6-.5-1.1-.5h-.7c-.2,0-.4,0-.5-.2-.2-.2-.2-.4-.2-.5v-2.3c0-.2,0-.4.2-.5.2-.2.4-.2.5-.2Z"/>
</svg>
