<?xml version="1.0" encoding="UTF-8"?>
<svg xmlns="http://www.w3.org/2000/svg" viewBox="0 0 16 16">
  <style>.no-fill{fill:none}.stroke{stroke:#000000;stroke-width:1.5px;stroke-linecap:round;stroke-linejoin:round}</style>
<path class="no-fill stroke" d="M 0 0 L 0 -0.5 C 0 -2.148438 -1.351562 -3.5 -3 -3.5 L -5 -3.5 C -6.101562 -3.5 -7 -2.601562 -7 -1.5 L -7 1.5 C -7 2.601562 -6.101562 3.5 -5 3.5 L -2 3.5 C -0.898438 3.5 0 4.398438 0 5.5 L 0 7 " transform="matrix(1, 0, 0, -1, 11.5, 11.5)"/>
<path class="no-fill stroke" d="M 0 0 L 0 0.5 C 0 2.148438 1.351562 3.5 3 3.5 L 5 3.5 C 6.101562 3.5 7 2.601562 7 1.5 L 7 0 " transform="matrix(1, 0, 0, -1, 4.5, 4.5)"/>
<path class="no-fill stroke" d="M 0 -0.0003 L -0.5 -0.0003 C -2.148438 -0.0003 -3.5 1.351263 -3.5 2.9997 L -3.5 3.9997 C -3.5 5.648138 -2.148438 6.9997 -0.5 6.9997 L 4.300781 6.9997 " transform="matrix(1, 0, 0, -1, 4.5, 11.4997)"/>
<path class="no-fill stroke" d="M 0 -0.0003 L 0.5 -0.0003 C 2.148438 -0.0003 3.5 -1.351862 3.5 -3.0003 L 3.5 -4.0003 C 3.5 -5.648737 2.148438 -7.0003 0.5 -7.0003 L -4.300781 -7.0003 " transform="matrix(1, 0, 0, -1, 11.5, 4.4997)"/>
<path class="no-fill stroke" d="M -0.0015625 0.00166875 L -0.0015625 1.0837 " transform="matrix(1, 0, 0, -1, 8.9, 12.5837)"/>
<path class="no-fill stroke" d="M 0.0015625 0 L 0.0015625 1.085938 " transform="matrix(1, 0, 0, -1, 7.1, 4.5)"/>
</svg>
