<svg xmlns="http://www.w3.org/2000/svg" viewBox="0 0 16 16">
  <style>.no-fill{fill:none}.stroke{stroke:#7d8590;stroke-width:1.5px;stroke-linecap:round;stroke-linejoin:round}</style>
  <path class="no-fill stroke" d="M 0 0 C 1.933 -3.348 2.337 -6.734 0.902 -7.562 C -0.533 -8.391 -3.263 -6.348 -5.196 -3 C -7.129 0.348 -7.533 3.734 -6.098 4.562 C -4.663 5.391 -1.933 3.348 0 0 Z" transform="matrix(1,0,0,-1,10.5981,6.5)"/>
  <path class="no-fill stroke" d="M 0 0 C 3.866 0 7 -1.343 7 -3 C 7 -4.657 3.866 -6 0 -6 C -3.866 -6 -7 -4.657 -7 -3 C -7 -1.343 -3.866 0 0 0 Z" transform="matrix(1,0,0,-1,8,5)"/>
  <path class="no-fill stroke" d="M 0 0 C 1.933 3.348 4.663 5.391 6.098 4.562 C 7.533 3.734 7.129 0.348 5.196 -3 C 3.263 -6.348 0.533 -8.391 -0.902 -7.562 C -2.337 -6.734 -1.933 -3.348 0 0 Z" transform="matrix(1,0,0,-1,5.4019,6.5)"/>
  <path class="no-fill stroke" d="M 0 0 C 0.138 -0.239 0.056 -0.545 -0.183 -0.683 C -0.422 -0.821 -0.728 -0.739 -0.866 -0.5 C -1.004 -0.261 -0.922 0.045 -0.683 0.183 C -0.444 0.321 -0.138 0.239 0 0 Z" transform="matrix(1,0,0,-1,8.433,7.75)"/>
</svg>
