<svg xmlns="http://www.w3.org/2000/svg" viewBox="0 0 16 16">
  <style>.no-fill{fill:none}.stroke{stroke:#7d8590;stroke-width:1.5px;stroke-linecap:round;stroke-linejoin:round}</style>
  <path class="no-fill stroke" d="M 0 0 L 2.945 -1.548 C 3.599 -1.892 4.363 -1.337 4.238 -0.608 L 3.676 2.671 C 3.626 2.96 3.722 3.255 3.933 3.46 L 6.315 5.782 C 6.844 6.298 6.552 7.197 5.821 7.303 L 2.528 7.782 C 2.238 7.824 1.987 8.006 1.857 8.269 L 0.385 11.253 C 0.058 11.915 -0.887 11.915 -1.215 11.253 L -2.687 8.269 C -2.817 8.006 -3.068 7.824 -3.358 7.782 L -6.65 7.303 C -7.382 7.197 -7.674 6.298 -7.145 5.782 L -4.762 3.46 C -4.552 3.255 -4.456 2.96 -4.506 2.671 L -5.068 -0.608 C -5.193 -1.337 -4.429 -1.892 -3.775 -1.548 L -0.83 0 C -0.57 0.137 -0.26 0.137 0 0" transform="matrix(1,0,0,-1,8.4149,13.0486)"/>
  <path class="no-fill stroke" d="M 0 0 L 2.945 -1.548 C 3.599 -1.892 4.363 -1.337 4.238 -0.608 L 3.676 2.671 C 3.626 2.96 3.722 3.255 3.933 3.46 L 6.315 5.782 C 6.844 6.298 6.552 7.197 5.821 7.303 L 2.528 7.782 C 2.238 7.824 1.987 8.006 1.857 8.269 L 0.385 11.253 C 0.058 11.915 -0.887 11.915 -1.215 11.253 L -2.687 8.269 C -2.817 8.006 -3.068 7.824 -3.358 7.782 L -6.65 7.303 C -7.382 7.197 -7.674 6.298 -7.145 5.782 L -4.762 3.46 C -4.552 3.255 -4.456 2.96 -4.506 2.671 L -5.068 -0.608 C -5.193 -1.337 -4.429 -1.892 -3.775 -1.548 L -0.83 0 C -0.57 0.137 -0.26 0.137 0 0 Z" transform="matrix(1,0,0,-1,8.4149,13.0486)"/>
</svg>
