<svg xmlns="http://www.w3.org/2000/svg" viewBox="0 0 16 16">
  <style>.no-fill{fill:none}.stroke{stroke:#000000;stroke-width:1.5px;stroke-linecap:round;stroke-linejoin:round}</style>
  <path class="no-fill stroke" d="M 0 0 L -8 0 C -8.552 0 -9 0.448 -9 1 L -9 13 C -9 13.552 -8.552 14 -8 14 L 0 14 C 0.552 14 1 13.552 1 13 L 1 1 C 1 0.448 0.552 0 0 0 Z" transform="matrix(1,0,0,-1,12,15)"/>
  <path class="no-fill stroke" d="M 0 0 L 10 0" transform="matrix(1,0,0,-1,3,12.1573)"/>
  <path class="no-fill stroke" d="M 0 0 L 1.904 0" transform="matrix(1,0,0,-1,8.1451,3.5)"/>
  <path class="no-fill stroke" d="M 0 0 L 0.2 0" transform="matrix(1,0,0,-1,5.9506,3.5)"/>
</svg>
