<svg xmlns="http://www.w3.org/2000/svg" viewBox="0 0 16 16">
  <style>.no-fill{fill:none}.stroke{stroke:#7d8590;stroke-width:1.5px;stroke-linecap:round;stroke-linejoin:round}</style>
  <path class="no-fill stroke" d="M 0 0 C -0.63 0.448 -1.051 0.661 -2.271 0.716 C -2.271 0.716 -3.698 0.828 -6.114 0.828 C -8.531 0.828 -9.957 0.716 -9.957 0.716 C -11.178 0.661 -11.599 0.448 -12.229 0 C -12.935 -0.502 -13.114 -2.501 -13.114 -4.308 C -13.114 -6.116 -12.935 -8.114 -12.229 -8.616 C -11.599 -9.064 -11.178 -9.277 -9.957 -9.332 C -9.957 -9.332 -8.531 -9.444 -6.114 -9.444 C -3.698 -9.444 -2.271 -9.332 -2.271 -9.332 C -1.051 -9.277 -0.63 -9.064 0 -8.616 C 0.706 -8.114 0.886 -6.116 0.886 -4.308 C 0.886 -2.501 0.706 -0.502 0 0 Z" transform="matrix(1,0,0,-1,14.1144,3.6919)"/>
  <path class="no-fill stroke" d="M 0 0 L 0 -3.517 C 0 -3.682 0.179 -3.784 0.321 -3.701 L 3.324 -1.942 C 3.464 -1.86 3.464 -1.657 3.324 -1.575 L 0.321 0.184 C 0.179 0.267 0 0.165 0 0 Z" transform="matrix(1,0,0,-1,6.2856,6.2415)"/>
</svg>
