<svg xmlns="http://www.w3.org/2000/svg" viewBox="0 0 16 16">
  <style>.no-fill{fill:none}.stroke{stroke:#000000;stroke-width:1.5px;stroke-linecap:round;stroke-linejoin:round}</style>
  <path class="no-fill stroke" d="M 0 0 L -6.814 -10.663 L -6.814 0 L 0 0 Z" transform="matrix(1,0,0,-1,14.8138,2)"/>
  <path class="no-fill stroke" d="M 0 0 L 0 0 C 1.862 0 3.426 -1.557 3.5 -3.464 L -3.5 -3.464 C -3.388 -1.557 -1.899 0 0 0" transform="matrix(1,0,0,-1,11.5,10.5359)"/>
  <path class="no-fill stroke" d="M 0 0 L 6.814 10.763 L 6.814 0 L 0 0 Z" transform="matrix(1,0,0,-1,1.1862,14)"/>
  <path class="no-fill stroke" d="M 0 0 L 0 0 C -1.862 0 -3.426 1.557 -3.5 3.464 L 3.5 3.464 C 3.388 1.557 1.899 0 0 0" transform="matrix(1,0,0,-1,4.5,5.4641)"/>
</svg>
