<svg xmlns="http://www.w3.org/2000/svg" viewBox="0 0 16 16">
  <style>.fill{fill:currentColor}</style>
  <path class="fill" d="M 3.75 3.75 L 12.25 3.75 L 12.25 12.25 L 3.75 12.25 Z M 13 2.25 L 3 2.25 C 2.586 2.25 2.25 2.586 2.25 3 L 2.25 13 C 2.25 13.414 2.586 13.75 3 13.75 L 13 13.75 C 13.414 13.75 13.75 13.414 13.75 13 L 13.75 3 C 13.75 2.586 13.414 2.25 13 2.25" transform="matrix(1,0,0,-1,0,16)"/>
  <path class="fill" d="M 0 0 C -0.414 0 -0.75 0.336 -0.75 0.75 L -0.75 7.114 C -0.75 7.528 -0.414 7.864 0 7.864 C 0.414 7.864 0.75 7.528 0.75 7.114 L 0.75 0.75 C 0.75 0.336 0.414 0 0 0" transform="matrix(1,0,0,-1,9.5117,13.75)"/>
</svg>
