<svg xmlns="http://www.w3.org/2000/svg" viewBox="0 0 16 16">
  <style>.fill{fill:currentColor}</style>
  <path class="fill" d="M 0 0 C -0.151 0 -0.29 -0.062 -0.391 -0.175 C -0.492 -0.287 -0.538 -0.432 -0.521 -0.582 L 0.276 -7.958 C 0.305 -8.223 0.529 -8.424 0.797 -8.424 L 11.255 -8.424 C 11.522 -8.424 11.747 -8.223 11.776 -7.958 L 12.472 -2.216 C 12.491 -2.039 12.447 -1.872 12.35 -1.763 C 12.276 -1.681 12.176 -1.639 12.052 -1.639 L 7.411 -1.639 C 6.939 -1.639 6.502 -1.426 6.212 -1.055 C 6.187 -1.022 6.165 -0.986 6.148 -0.948 L 5.803 -0.16 C 5.705 -0.058 5.57 0 5.426 0 Z M 11.255 -9.424 L 0.797 -9.424 C 0.019 -9.424 -0.632 -8.841 -0.718 -8.067 L -1.515 -0.691 C -1.563 -0.262 -1.425 0.169 -1.136 0.492 C -0.847 0.815 -0.433 1 0 1 L 5.426 1 C 5.897 1 6.334 0.788 6.625 0.417 C 6.651 0.384 6.672 0.348 6.689 0.309 L 7.034 -0.479 C 7.133 -0.581 7.267 -0.639 7.411 -0.639 L 12.052 -0.639 C 12.461 -0.639 12.831 -0.801 13.095 -1.096 C 13.382 -1.416 13.517 -1.867 13.465 -2.332 L 12.77 -8.073 C 12.685 -8.841 12.033 -9.424 11.255 -9.424" transform="matrix(1,0,0,-1,2.0244,5.2261)"/>
  <path class="fill" d="M 0 0 L -1 0 L -1 1.741 C -0.978 1.993 -1.024 2.179 -1.124 2.288 C -1.18 2.35 -1.245 2.379 -1.33 2.379 L -5.448 2.379 C -6.176 2.379 -6.768 2.971 -6.768 3.698 C -6.768 3.875 -6.911 4.018 -7.087 4.018 L -11.887 4.018 C -12.021 4.018 -12.116 3.944 -12.172 3.882 C -12.278 3.765 -12.329 3.601 -12.312 3.431 L -12.309 1.642 L -13.309 1.642 L -13.309 3.38 C -13.352 3.781 -13.209 4.227 -12.914 4.553 C -12.643 4.853 -12.278 5.018 -11.887 5.018 L -7.087 5.018 C -6.359 5.018 -5.768 4.426 -5.768 3.698 C -5.768 3.522 -5.624 3.379 -5.448 3.379 L -1.33 3.379 C -0.964 3.379 -0.627 3.23 -0.383 2.959 C -0.093 2.639 0.046 2.177 -0.003 1.691 Z" transform="matrix(1,0,0,-1,14.6436,6.3677)"/>
</svg>
