<svg xmlns="http://www.w3.org/2000/svg" viewBox="0 0 16 16">
  <style>.fill{fill:currentColor}</style>
  <path class="fill" d="M 0 0 L 9.824 0 C 9.759 0.105 9.681 0.209 9.59 0.33 C 9.237 0.799 8.752 1.441 8.752 2.76 L 8.752 5.846 C 8.752 7.964 7.03 9.688 4.912 9.688 C 2.793 9.688 1.07 7.964 1.07 5.846 L 1.07 2.76 C 1.07 1.442 0.586 0.8 0.233 0.33 C 0.143 0.21 0.064 0.105 0 0 M 10.769 -1.5 L -0.945 -1.5 C -1.359 -1.5 -1.695 -1.164 -1.695 -0.75 C -1.695 0.262 -1.291 0.8 -0.965 1.232 C -0.666 1.63 -0.43 1.943 -0.43 2.76 L -0.43 5.846 C -0.43 8.792 1.966 11.188 4.912 11.188 C 7.857 11.188 10.252 8.792 10.252 5.846 L 10.252 2.76 C 10.252 1.943 10.489 1.63 10.789 1.232 C 11.114 0.8 11.519 0.262 11.519 -0.75 C 11.519 -1.164 11.183 -1.5 10.769 -1.5" transform="matrix(1,0,0,-1,3.0884,11.4375)"/>
  <path class="fill" d="M 0 0 L -3 0 C -3.414 0 -3.75 0.336 -3.75 0.75 C -3.75 1.164 -3.414 1.5 -3 1.5 L 0 1.5 C 0.414 1.5 0.75 1.164 0.75 0.75 C 0.75 0.336 0.414 0 0 0" transform="matrix(1,0,0,-1,9.5,15.75)"/>
</svg>
