<svg xmlns="http://www.w3.org/2000/svg" viewBox="0 0 16 16">
  <style>.no-fill{fill:none}.stroke{stroke:currentColor;stroke-width:1.5px;stroke-linecap:round;stroke-linejoin:round}</style>
  <path class="no-fill stroke" d="M 0 0 C -0.801 -1.933 -3.017 -2.851 -4.95 -2.05 C -6.883 -1.25 -7.801 0.967 -7 2.9 C -6.199 4.833 -3.983 5.75 -2.05 4.95 C -0.117 4.149 0.801 1.933 0 0 Z" transform="matrix(1,0,0,-1,11.5,9.4498)"/>
  <path class="no-fill stroke" d="M 0 0 L -1 0.414" transform="matrix(1,0,0,-1,2,5.5147)"/>
  <path class="no-fill stroke" d="M 0 0 L -1 0.414" transform="matrix(1,0,0,-1,15,10.8995)"/>
  <path class="no-fill stroke" d="M 0 0 L -0.414 -1" transform="matrix(1,0,0,-1,5.5147,14)"/>
  <path class="no-fill stroke" d="M 0 0 L -0.414 -1" transform="matrix(1,0,0,-1,10.8995,1)"/>
  <path class="no-fill stroke" d="M 0 0 L -0.414 1" transform="matrix(1,0,0,-1,5.5147,2)"/>
  <path class="no-fill stroke" d="M 0 0 L -0.414 1" transform="matrix(1,0,0,-1,10.8995,15)"/>
  <path class="no-fill stroke" d="M 0 0 L -1 -0.414" transform="matrix(1,0,0,-1,2,10.4853)"/>
  <path class="no-fill stroke" d="M 0 0 L -1 -0.414" transform="matrix(1,0,0,-1,15,5.1005)"/>
</svg>
