<svg xmlns="http://www.w3.org/2000/svg" viewBox="0 0 16 16">
  <style>.fill{fill:currentColor}</style>
  <path class="fill" d="M 0 0 C -1.193 0 -2.327 -0.707 -2.812 -1.876 C -3.453 -3.424 -2.715 -5.205 -1.167 -5.845 C 0.379 -6.487 2.163 -5.75 2.802 -4.202 C 3.444 -2.654 2.707 -0.873 1.159 -0.231 C 0.78 -0.075 0.387 0 0 0 M -0.01 -7.577 C -0.588 -7.577 -1.175 -7.466 -1.741 -7.232 C -4.053 -6.274 -5.155 -3.614 -4.197 -1.302 C -3.24 1.01 -0.581 2.113 1.733 1.154 C 4.044 0.196 5.146 -2.464 4.189 -4.776 C 3.465 -6.521 1.771 -7.577 -0.01 -7.577" transform="matrix(1,0,0,-1,8.0044,4.9614)"/>
  <path class="fill" d="M 0 0 C -0.095 0 -0.192 0.018 -0.287 0.057 L -1.287 0.471 C -1.669 0.629 -1.851 1.068 -1.692 1.451 C -1.534 1.833 -1.098 2.016 -0.712 1.857 L 0.288 1.443 C 0.67 1.285 0.852 0.846 0.693 0.463 C 0.574 0.174 0.294 0 0 0" transform="matrix(1,0,0,-1,1.9995,6.2646)"/>
  <path class="fill" d="M 0 0 C -0.096 0 -0.193 0.019 -0.287 0.057 L -1.287 0.471 C -1.67 0.63 -1.852 1.068 -1.693 1.451 C -1.534 1.834 -1.093 2.013 -0.713 1.857 L 0.287 1.443 C 0.67 1.284 0.852 0.846 0.693 0.463 C 0.573 0.174 0.294 0 0 0" transform="matrix(1,0,0,-1,15,11.6494)"/>
  <path class="fill" d="M 0 0 C -0.095 0 -0.192 0.019 -0.287 0.057 C -0.669 0.216 -0.851 0.654 -0.692 1.037 L -0.278 2.037 C -0.12 2.419 0.315 2.6 0.702 2.443 C 1.084 2.284 1.266 1.846 1.107 1.463 L 0.693 0.463 C 0.574 0.174 0.294 0 0 0" transform="matrix(1,0,0,-1,5.1001,15.75)"/>
  <path class="fill" d="M 0 0 C -0.096 0 -0.193 0.018 -0.287 0.057 C -0.67 0.215 -0.852 0.654 -0.693 1.037 L -0.279 2.037 C -0.12 2.419 0.32 2.602 0.701 2.443 C 1.084 2.285 1.266 1.846 1.107 1.463 L 0.693 0.463 C 0.573 0.174 0.294 0 0 0" transform="matrix(1,0,0,-1,10.4854,2.75)"/>
  <path class="fill" d="M 0 0 C -0.294 0 -0.574 0.174 -0.693 0.463 L -1.107 1.463 C -1.266 1.846 -1.084 2.285 -0.702 2.443 C -0.315 2.601 0.12 2.418 0.278 2.037 L 0.692 1.037 C 0.851 0.654 0.669 0.215 0.287 0.057 C 0.192 0.018 0.095 0 0 0" transform="matrix(1,0,0,-1,5.5151,2.75)"/>
  <path class="fill" d="M 0 0 C -0.294 0 -0.573 0.174 -0.693 0.463 L -1.107 1.463 C -1.266 1.846 -1.084 2.284 -0.701 2.443 C -0.318 2.599 0.12 2.42 0.279 2.037 L 0.693 1.037 C 0.852 0.654 0.67 0.216 0.287 0.057 C 0.193 0.019 0.096 0 0 0" transform="matrix(1,0,0,-1,10.8994,15.75)"/>
  <path class="fill" d="M 0 0 C -0.294 0 -0.574 0.174 -0.693 0.463 C -0.852 0.846 -0.67 1.284 -0.288 1.443 L 0.712 1.857 C 1.099 2.013 1.535 1.833 1.692 1.451 C 1.851 1.068 1.669 0.63 1.287 0.471 L 0.287 0.057 C 0.192 0.019 0.095 0 0 0" transform="matrix(1,0,0,-1,1.0005,11.6494)"/>
  <path class="fill" d="M 0 0 C -0.294 0 -0.573 0.174 -0.693 0.463 C -0.852 0.846 -0.67 1.285 -0.287 1.443 L 0.713 1.857 C 1.096 2.016 1.534 1.833 1.693 1.451 C 1.852 1.068 1.67 0.629 1.287 0.471 L 0.287 0.057 C 0.193 0.018 0.096 0 0 0" transform="matrix(1,0,0,-1,14,6.2646)"/>
</svg>
