<svg xmlns="http://www.w3.org/2000/svg" viewBox="0 0 16 16">
  <style>.no-fill{fill:none}.stroke{stroke:currentColor;stroke-width:1.5px;stroke-linecap:round;stroke-linejoin:round}</style>
  <path class="no-fill stroke" d="M 0 0 C 0 0 -0.8 -0.4 -1.2 -0.6 C -1.2 -0.6 -0.7 -1.899 -0.4 -2.299 C 0.7 -1.899 1.899 -1.4 3.099 -0.5 C 3.299 1.999 2.799 5.698 1.2 8.298 C 0.3 8.698 -0.7 8.998 -1.7 9.197 C -1.899 8.998 -2.099 8.398 -2.099 8.198 C -2.705 8.308 -2.957 8.446 -3.859 8.446 C -4.762 8.446 -5.013 8.308 -5.619 8.198 C -5.619 8.398 -5.819 8.998 -6.019 9.197 C -7.018 8.998 -8.018 8.698 -8.918 8.298 C -10.517 5.698 -11.017 1.999 -10.817 -0.5 C -9.618 -1.4 -8.418 -1.899 -7.318 -2.299 C -7.018 -1.899 -6.519 -0.6 -6.519 -0.6 C -6.918 -0.4 -7.718 0 -7.718 0 C -6.569 -0.55 -5.777 -0.825 -3.907 -0.825 C -2.037 -0.825 -1.15 -0.55 0 0 Z" transform="matrix(1,0,0,-1,11.8591,11.4491)"/>
  <path class="no-fill stroke" d="M 0 0 C 0.693 0 1.255 -0.628 1.255 -1.404 C 1.255 -2.179 0.693 -2.808 0 -2.808 C -0.693 -2.808 -1.255 -2.179 -1.255 -1.404 C -1.255 -0.628 -0.693 0 0 0 Z" transform="matrix(1,0,0,-1,5.5392,6.451)"/>
  <path class="no-fill stroke" d="M 0 0 C 0.693 0 1.255 -0.628 1.255 -1.404 C 1.255 -2.179 0.693 -2.808 0 -2.808 C -0.693 -2.808 -1.255 -2.179 -1.255 -1.404 C -1.255 -0.628 -0.693 0 0 0 Z" transform="matrix(1,0,0,-1,10.4608,6.451)"/>
</svg>
