<?xml version="1.0" encoding="UTF-8"?>
<svg xmlns="http://www.w3.org/2000/svg" viewBox="0 0 16 16">
  <style>.fill{fill:currentColor}</style>
<path class="fill" fill-rule="nonzero" d="M 1.765625 11.546875 C 2.589844 12.121094 3.410156 12.507812 4.199219 12.820312 C 4.257812 12.691406 4.320312 12.554688 4.382812 12.410156 L 3.804688 12.121094 C 3.4375 11.9375 3.285156 11.488281 3.46875 11.121094 C 3.648438 10.75 4.09375 10.59375 4.464844 10.773438 C 5.53125 11.28125 6.222656 11.523438 7.953125 11.523438 C 9.675781 11.523438 10.449219 11.292969 11.535156 10.773438 C 11.910156 10.597656 12.351562 10.75 12.53125 11.121094 C 12.714844 11.488281 12.5625 11.9375 12.195312 12.121094 L 11.617188 12.410156 C 11.679688 12.554688 11.742188 12.691406 11.800781 12.816406 C 12.589844 12.507812 13.410156 12.121094 14.230469 11.546875 C 14.351562 9.238281 13.882812 6.058594 12.539062 3.742188 C 11.933594 3.492188 11.261719 3.273438 10.554688 3.105469 C 10.53125 3.179688 10.515625 3.242188 10.507812 3.285156 C 10.507812 3.507812 10.410156 3.703125 10.238281 3.84375 C 10.066406 3.988281 9.84375 4.027344 9.625 3.988281 C 9.445312 3.957031 9.292969 3.921875 9.148438 3.886719 C 8.8125 3.808594 8.566406 3.753906 8 3.753906 C 7.433594 3.753906 7.1875 3.808594 6.851562 3.886719 C 6.707031 3.921875 6.554688 3.957031 6.375 3.988281 C 6.15625 4.03125 5.929688 3.96875 5.761719 3.828125 C 5.589844 3.683594 5.488281 3.472656 5.488281 3.25 C 5.484375 3.222656 5.46875 3.167969 5.449219 3.105469 C 4.742188 3.273438 4.066406 3.492188 3.460938 3.742188 C 2.117188 6.058594 1.648438 9.238281 1.765625 11.546875 M 4.542969 14.496094 C 4.457031 14.496094 4.367188 14.484375 4.285156 14.453125 C 3.121094 14.03125 1.871094 13.507812 0.59375 12.550781 C 0.421875 12.417969 0.3125 12.222656 0.292969 12.007812 C 0.0820312 9.371094 0.621094 5.488281 2.304688 2.757812 C 2.382812 2.628906 2.5 2.527344 2.636719 2.464844 C 3.542969 2.0625 4.597656 1.734375 5.691406 1.515625 C 5.941406 1.46875 6.191406 1.542969 6.371094 1.722656 C 6.527344 1.878906 6.664062 2.117188 6.769531 2.367188 C 7.070312 2.304688 7.429688 2.253906 8 2.253906 C 8.570312 2.253906 8.929688 2.304688 9.230469 2.367188 C 9.335938 2.117188 9.472656 1.878906 9.628906 1.722656 C 9.804688 1.542969 10.058594 1.46875 10.308594 1.515625 C 11.402344 1.734375 12.460938 2.0625 13.363281 2.464844 C 13.503906 2.527344 13.617188 2.628906 13.695312 2.757812 C 15.378906 5.488281 15.917969 9.371094 15.707031 12.007812 C 15.6875 12.222656 15.582031 12.417969 15.40625 12.550781 C 14.128906 13.507812 12.878906 14.03125 11.714844 14.453125 C 11.402344 14.566406 11.058594 14.464844 10.859375 14.199219 C 10.632812 13.898438 10.355469 13.289062 10.167969 12.835938 C 9.558594 12.960938 8.855469 13.023438 7.953125 13.023438 C 7.078125 13.023438 6.414062 12.96875 5.828125 12.847656 C 5.636719 13.296875 5.363281 13.902344 5.140625 14.199219 C 4.996094 14.390625 4.773438 14.496094 4.542969 14.496094 "/>
<path class="fill" fill-rule="nonzero" d="M 5.699219 7.652344 C 5.558594 7.652344 5.398438 7.855469 5.398438 8.128906 C 5.398438 8.402344 5.558594 8.609375 5.699219 8.609375 C 5.84375 8.609375 6 8.402344 6 8.128906 C 6 7.855469 5.84375 7.652344 5.699219 7.652344 M 5.699219 10.109375 C 4.707031 10.109375 3.898438 9.21875 3.898438 8.128906 C 3.898438 7.039062 4.707031 6.152344 5.699219 6.152344 C 6.691406 6.152344 7.5 7.039062 7.5 8.128906 C 7.5 9.21875 6.691406 10.109375 5.699219 10.109375 "/>
<path class="fill" fill-rule="nonzero" d="M 10.300781 7.652344 C 10.15625 7.652344 10 7.855469 10 8.128906 C 10 8.402344 10.15625 8.609375 10.300781 8.609375 C 10.441406 8.609375 10.601562 8.402344 10.601562 8.128906 C 10.601562 7.855469 10.441406 7.652344 10.300781 7.652344 M 10.300781 10.109375 C 9.308594 10.109375 8.5 9.21875 8.5 8.128906 C 8.5 7.039062 9.308594 6.152344 10.300781 6.152344 C 11.292969 6.152344 12.101562 7.039062 12.101562 8.128906 C 12.101562 9.21875 11.292969 10.109375 10.300781 10.109375 "/>
</svg>
