<svg xmlns="http://www.w3.org/2000/svg" viewBox="0 0 16 16">
  <style>.fill{fill:currentColor}</style>
  <path class="fill" d="M 0 0 C -2.354 0 -3.771 -0.108 -3.785 -0.109 C -4.891 -0.161 -5.18 -0.333 -5.68 -0.689 C -5.685 -0.693 -6.25 -1.144 -6.25 -4.386 C -6.25 -7.628 -5.686 -8.079 -5.68 -8.083 C -5.18 -8.439 -4.891 -8.612 -3.809 -8.662 C -3.771 -8.664 -2.354 -8.773 0 -8.773 C 2.354 -8.773 3.77 -8.664 3.784 -8.663 C 4.893 -8.612 5.166 -8.449 5.68 -8.083 C 5.686 -8.079 6.25 -7.628 6.25 -4.386 C 6.25 -1.157 5.689 -0.697 5.68 -0.689 C 5.166 -0.324 4.893 -0.161 3.809 -0.111 C 3.771 -0.108 2.354 0 0 0 M 0 -10.273 C -2.418 -10.273 -3.843 -10.163 -3.902 -10.159 C -5.222 -10.098 -5.789 -9.846 -6.549 -9.305 C -7.064 -8.939 -7.75 -8.03 -7.75 -4.386 C -7.75 -0.743 -7.064 0.166 -6.549 0.533 C -5.788 1.074 -5.222 1.326 -3.877 1.387 C -3.842 1.391 -2.418 1.5 0 1.5 C 2.419 1.5 3.842 1.391 3.901 1.386 C 5.221 1.326 5.787 1.074 6.549 0.533 L 6.549 0.533 C 7.064 0.166 7.75 -0.743 7.75 -4.386 C 7.75 -8.03 7.064 -8.939 6.549 -9.305 C 5.788 -9.846 5.222 -10.098 3.877 -10.16 C 3.842 -10.163 2.419 -10.273 0 -10.273" transform="matrix(1,0,0,-1,8,3.6138)"/>
  <path class="fill" d="M 0 0 L 0 -1.644 L 1.403 -0.822 Z M -0.537 -3.542 C -0.703 -3.542 -0.868 -3.5 -1.017 -3.416 C -1.314 -3.245 -1.5 -2.924 -1.5 -2.581 L -1.5 0.937 C -1.5 1.281 -1.314 1.601 -1.016 1.772 C -0.718 1.942 -0.348 1.941 -0.051 1.768 L 2.953 0.009 C 3.247 -0.162 3.429 -0.481 3.429 -0.822 C 3.429 -1.163 3.247 -1.481 2.952 -1.653 L -0.05 -3.412 C -0.2 -3.499 -0.369 -3.542 -0.537 -3.542" transform="matrix(1,0,0,-1,7.0356,7.1782)"/>
</svg>
