<?xml version="1.0" encoding="UTF-8"?>
<svg xmlns="http://www.w3.org/2000/svg" viewBox="0 0 16 16">
  <style>.fill{fill:currentColor}</style>
<path class="fill" fill-rule="nonzero" d="M 5.667969 1.75 C 4.792969 1.75 4.082031 2.460938 4.082031 3.332031 C 4.082031 4.207031 4.792969 4.917969 5.667969 4.917969 L 7.25 4.917969 L 7.25 1.75 Z M 8 6.417969 L 5.667969 6.417969 C 3.964844 6.417969 2.582031 5.035156 2.582031 3.332031 C 2.582031 1.632812 3.964844 0.25 5.667969 0.25 L 8 0.25 C 8.414062 0.25 8.75 0.585938 8.75 1 L 8.75 5.667969 C 8.75 6.082031 8.414062 6.417969 8 6.417969 "/>
<path class="fill" fill-rule="nonzero" d="M 5.667969 6.417969 C 4.792969 6.417969 4.082031 7.125 4.082031 8 C 4.082031 8.875 4.792969 9.582031 5.667969 9.582031 L 7.25 9.582031 L 7.25 6.417969 Z M 8 11.082031 L 5.667969 11.082031 C 3.964844 11.082031 2.582031 9.699219 2.582031 8 C 2.582031 6.300781 3.964844 4.917969 5.667969 4.917969 L 8 4.917969 C 8.414062 4.917969 8.75 5.253906 8.75 5.667969 L 8.75 10.332031 C 8.75 10.746094 8.414062 11.082031 8 11.082031 "/>
<path class="fill" fill-rule="nonzero" d="M 5.667969 11.082031 C 4.792969 11.082031 4.082031 11.792969 4.082031 12.667969 C 4.082031 13.539062 4.792969 14.25 5.667969 14.25 C 6.539062 14.25 7.25 13.539062 7.25 12.667969 L 7.25 11.082031 Z M 5.667969 15.75 C 3.964844 15.75 2.582031 14.367188 2.582031 12.667969 C 2.582031 10.96875 3.964844 9.582031 5.667969 9.582031 L 8 9.582031 C 8.414062 9.582031 8.75 9.917969 8.75 10.332031 L 8.75 12.667969 C 8.75 14.367188 7.367188 15.75 5.667969 15.75 "/>
<path class="fill" fill-rule="nonzero" d="M 8.75 4.917969 L 10.332031 4.917969 C 11.207031 4.917969 11.917969 4.207031 11.917969 3.332031 C 11.917969 2.460938 11.207031 1.75 10.332031 1.75 L 8.75 1.75 Z M 10.332031 6.417969 L 8 6.417969 C 7.585938 6.417969 7.25 6.082031 7.25 5.667969 L 7.25 1 C 7.25 0.585938 7.585938 0.25 8 0.25 L 10.332031 0.25 C 12.03125 0.25 13.417969 1.632812 13.417969 3.332031 C 13.417969 5.035156 12.03125 6.417969 10.332031 6.417969 "/>
<path class="fill" fill-rule="nonzero" d="M 10.332031 6.417969 C 9.460938 6.417969 8.75 7.125 8.75 8 C 8.75 8.875 9.460938 9.582031 10.332031 9.582031 C 11.207031 9.582031 11.917969 8.875 11.917969 8 C 11.917969 7.125 11.207031 6.417969 10.332031 6.417969 M 10.332031 11.082031 C 8.632812 11.082031 7.25 9.699219 7.25 8 C 7.25 6.300781 8.632812 4.917969 10.332031 4.917969 C 12.03125 4.917969 13.417969 6.300781 13.417969 8 C 13.417969 9.699219 12.03125 11.082031 10.332031 11.082031 "/>
</svg>
