<svg xmlns="http://www.w3.org/2000/svg" viewBox="0 0 16 16">
  <style>.no-fill{fill:none}.stroke{stroke:currentColor;stroke-width:1.5px;stroke-linecap:round;stroke-linejoin:round}</style>
  <path class="no-fill stroke" d="M 0 0 C -1.829 0 -3.313 -1.52 -3.313 -3.395 C -3.313 -5.27 -2.241 -6.449 0 -8.746 C 2.241 -6.449 3.313 -5.27 3.313 -3.395 C 3.313 -1.52 1.829 0 0 0 Z" transform="matrix(1,0,0,-1,8,1)"/>
  <path class="no-fill stroke" d="M 0 0 C 1.161 -0.417 1.919 -1.106 1.919 -1.886 C 1.919 -3.159 -0.105 -4.191 -2.602 -4.191 C -5.099 -4.191 -7.124 -3.159 -7.124 -1.886 C -7.124 -1.106 -6.365 -0.417 -5.204 0" transform="matrix(1,0,0,-1,10.6021,10.8086)"/>
  <path class="no-fill stroke" d="M 0 0 C 0.601 -0.243 1.202 -0.243 1.803 0" transform="matrix(1,0,0,-1,7.0986,12.3842)"/>
</svg>
