<svg xmlns="http://www.w3.org/2000/svg" viewBox="0 0 16 16">
  <style>.fill{fill:currentColor}</style>
  <path class="fill" d="M 0 0 C -1.413 0 -2.563 -1.187 -2.563 -2.645 C -2.563 -4.036 -1.886 -4.958 0 -6.918 C 1.886 -4.958 2.563 -4.036 2.563 -2.645 C 2.563 -1.187 1.413 0 0 0 M 0 -8.746 C -0.202 -8.746 -0.396 -8.664 -0.537 -8.52 C -2.854 -6.145 -4.062 -4.805 -4.062 -2.645 C -4.062 -0.359 -2.24 1.5 0 1.5 C 2.24 1.5 4.062 -0.359 4.062 -2.645 C 4.062 -4.805 2.854 -6.145 0.537 -8.52 C 0.396 -8.664 0.202 -8.746 0 -8.746" transform="matrix(1,0,0,-1,8,1.75)"/>
  <path class="fill" d="M 0 0 C -3.005 0 -5.271 1.313 -5.271 3.056 C -5.271 4.151 -4.391 5.096 -2.855 5.647 C -2.466 5.79 -2.037 5.585 -1.896 5.195 C -1.756 4.805 -1.958 4.376 -2.349 4.235 C -3.2 3.93 -3.771 3.456 -3.771 3.056 C -3.771 2.421 -2.302 1.5 0 1.5 C 2.303 1.5 3.771 2.421 3.771 3.056 C 3.771 3.456 3.2 3.93 2.349 4.235 C 1.959 4.376 1.757 4.806 1.896 5.195 C 2.037 5.585 2.463 5.79 2.856 5.647 C 4.392 5.096 5.271 4.151 5.271 3.056 C 5.271 1.313 3.005 0 0 0" transform="matrix(1,0,0,-1,8,15.75)"/>
  <path class="fill" d="M 0 0 C -0.395 0 -0.79 0.08 -1.183 0.238 C -1.566 0.394 -1.752 0.831 -1.597 1.215 C -1.441 1.599 -1.007 1.785 -0.62 1.629 C -0.197 1.457 0.197 1.457 0.62 1.629 C 1.006 1.784 1.441 1.599 1.597 1.215 C 1.752 0.831 1.566 0.394 1.183 0.238 C 0.79 0.08 0.395 0 0 0" transform="matrix(1,0,0,-1,8,13.3174)"/>
  <path class="fill" d="M 0 0 C -1.829 0 -3.313 -1.52 -3.313 -3.395 C -3.313 -5.27 -2.241 -6.449 0 -8.746 C 2.241 -6.449 3.313 -5.27 3.313 -3.395 C 3.313 -1.52 1.829 0 0 0 Z" transform="matrix(1,0,0,-1,8,1)"/>
  <path class="fill" d="M 0 0 C 1.161 -0.417 1.919 -1.106 1.919 -1.886 C 1.919 -3.159 -0.105 -4.191 -2.602 -4.191 C -5.099 -4.191 -7.124 -3.159 -7.124 -1.886 C -7.124 -1.106 -6.365 -0.417 -5.204 0" transform="matrix(1,0,0,-1,10.6021,10.8086)"/>
</svg>
