<svg xmlns="http://www.w3.org/2000/svg" viewBox="0 0 16 16">
  <style>.fill{fill:currentColor}</style>
  <path class="fill" d="M 0 0 C 0 0.414 0.336 0.75 0.75 0.75 L 14.75 0.75 C 15.164 0.75 15.5 0.414 15.5 0 C 15.5 -0.414 15.164 -0.75 14.75 -0.75 L 0.75 -0.75 C 0.336 -0.75 0 -0.414 0 0" transform="matrix(1,0,0,-1,0.25,8)"/>
  <path class="fill" d="M 0 0 C 0 0.192 0.073 0.384 0.22 0.53 L 6.48 6.791 C 6.773 7.084 7.248 7.084 7.541 6.791 C 7.834 6.498 7.834 6.023 7.541 5.73 L 1.811 0 L 7.541 -5.73 C 7.834 -6.023 7.834 -6.498 7.541 -6.791 C 7.248 -7.084 6.773 -7.084 6.48 -6.791 L 0.22 -0.53 C 0.073 -0.384 0 -0.192 0 0" transform="matrix(1,0,0,-1,0.25,8)"/>
</svg>
