<svg xmlns="http://www.w3.org/2000/svg" viewBox="0 0 16 16">
  <style>.no-fill{fill:none}.stroke{stroke:currentColor;stroke-width:1.5px;stroke-linecap:round;stroke-linejoin:round}</style>
  <path class="no-fill stroke" d="M 0 0 L -0.916 2.025 L -3.178 2.952 L -7 1.258 L -10.822 2.952 L -13.084 2.025 L -14 0 L -13.261 -2.462 L -7 -7.548 L -7 -7.548 L -7 -7.548 L -7 -7.548 L -7 -7.548 L -0.739 -2.462 L 0 0 Z" transform="matrix(1,0,0,-1,15,5.7016)"/>
  <path class="no-fill stroke" d="M 0 0 L -2.387 -2.047" transform="matrix(1,0,0,-1,4.1253,6.1162)"/>
  <path class="no-fill stroke" d="M 0 0 L 3.001 2.06" transform="matrix(1,0,0,-1,4.1253,6.1162)"/>
  <path class="no-fill stroke" d="M 0 0 L -1.877 2.575" transform="matrix(1,0,0,-1,4.1253,6.1161)"/>
  <path class="no-fill stroke" d="M 0 0 L -3.875 1.5" transform="matrix(1,0,0,-1,8.0003,7.616)"/>
  <path class="no-fill stroke" d="M 0 0 L 0 -8.506" transform="matrix(1,0,0,-1,8.0002,4.4438)"/>
  <path class="no-fill stroke" d="M 0 0 L 2.387 -2.047" transform="matrix(1,0,0,-1,11.8752,6.1162)"/>
  <path class="no-fill stroke" d="M 0 0 L -3.001 2.06" transform="matrix(1,0,0,-1,11.8752,6.1162)"/>
  <path class="no-fill stroke" d="M 0 0 L 1.877 2.575" transform="matrix(1,0,0,-1,11.8752,6.1161)"/>
  <path class="no-fill stroke" d="M 0 0 L 3.875 1.5" transform="matrix(1,0,0,-1,8.0003,7.616)"/>
  <path class="no-fill stroke" d="M 0 0 L 3.025 3.176" transform="matrix(1,0,0,-1,4.9748,10.7922)"/>
  <path class="no-fill stroke" d="M 0 0 L 0.29 -4.416" transform="matrix(1,0,0,-1,4.685,6.3761)"/>
  <path class="no-fill stroke" d="M 0 0 L -3.025 3.176" transform="matrix(1,0,0,-1,11.0257,10.7922)"/>
  <path class="no-fill stroke" d="M 0 0 L -0.29 -4.416" transform="matrix(1,0,0,-1,11.3155,6.3761)"/>
</svg>
