<svg xmlns="http://www.w3.org/2000/svg" viewBox="0 0 16 16">
  <style>.fill{fill:currentColor}</style>
  <path class="fill" d="M 0 0 L 5.609 -4.557 L 11.219 0 L 11.811 1.971 L 11.133 3.469 L 9.443 4.161 L 5.913 2.597 C 5.72 2.511 5.499 2.511 5.306 2.597 L 1.775 4.161 L 0.086 3.469 L -0.591 1.971 Z M 5.61 -6.273 C 5.442 -6.273 5.275 -6.218 5.137 -6.105 L -1.125 -1.019 C -1.241 -0.924 -1.327 -0.796 -1.37 -0.652 L -2.109 1.809 C -2.161 1.982 -2.148 2.169 -2.074 2.334 L -1.157 4.359 C -1.079 4.533 -0.936 4.671 -0.759 4.744 L 1.502 5.671 C 1.692 5.748 1.904 5.745 2.091 5.662 L 5.609 4.103 L 9.128 5.662 C 9.315 5.745 9.527 5.748 9.716 5.671 L 11.978 4.744 C 12.155 4.671 12.298 4.533 12.377 4.358 L 13.293 2.333 C 13.367 2.169 13.38 1.982 13.328 1.809 L 12.59 -0.652 C 12.546 -0.796 12.461 -0.924 12.344 -1.019 L 6.083 -6.105 C 5.945 -6.218 5.777 -6.273 5.61 -6.273" transform="matrix(1,0,0,-1,2.3905,7.7263)"/>
  <path class="fill" d="M 0 0 C -0.211 0 -0.421 0.089 -0.57 0.262 C -0.839 0.576 -0.803 1.05 -0.489 1.319 L 1.898 3.366 C 2.213 3.635 2.686 3.599 2.956 3.285 C 3.225 2.971 3.189 2.497 2.875 2.228 L 0.488 0.181 C 0.346 0.06 0.173 0 0 0" transform="matrix(1,0,0,-1,1.7392,8.9128)"/>
  <path class="fill" d="M 0 0 C -0.239 0 -0.474 0.113 -0.619 0.325 C -0.853 0.667 -0.767 1.134 -0.425 1.368 L 2.576 3.428 C 2.917 3.661 3.385 3.575 3.618 3.234 C 3.853 2.893 3.766 2.426 3.424 2.191 L 0.424 0.132 C 0.294 0.043 0.146 0 0 0" transform="matrix(1,0,0,-1,4.1259,6.8659)"/>
  <path class="fill" d="M 0 0 C -0.231 0 -0.459 0.106 -0.606 0.309 L -2.484 2.884 C -2.728 3.218 -2.654 3.688 -2.32 3.932 C -1.985 4.176 -1.517 4.104 -1.272 3.767 L 0.605 1.191 C 0.85 0.857 0.776 0.388 0.441 0.144 C 0.308 0.047 0.153 0 0 0" transform="matrix(1,0,0,-1,4.1259,6.8659)"/>
  <path class="fill" d="M 0 0 C -0.09 0 -0.182 0.017 -0.271 0.051 L -4.146 1.551 C -4.532 1.7 -4.724 2.135 -4.574 2.521 C -4.425 2.907 -3.988 3.096 -3.604 2.949 L 0.271 1.449 C 0.657 1.3 0.849 0.865 0.699 0.479 C 0.584 0.182 0.301 0 0 0" transform="matrix(1,0,0,-1,8.0004,8.3659)"/>
  <path class="fill" d="M 0 0 C -0.414 0 -0.75 0.336 -0.75 0.75 L -0.75 9.256 C -0.75 9.67 -0.414 10.006 0 10.006 C 0.414 10.006 0.75 9.67 0.75 9.256 L 0.75 0.75 C 0.75 0.336 0.414 0 0 0" transform="matrix(1,0,0,-1,8.0004,13.6999)"/>
  <path class="fill" d="M 0 0 C -0.173 0 -0.347 0.06 -0.488 0.181 L -2.875 2.228 C -3.189 2.497 -3.226 2.971 -2.956 3.285 C -2.686 3.599 -2.212 3.635 -1.898 3.366 L 0.488 1.319 C 0.803 1.05 0.839 0.576 0.569 0.262 C 0.421 0.089 0.211 0 0 0" transform="matrix(1,0,0,-1,14.2616,8.9128)"/>
  <path class="fill" d="M 0 0 C -0.146 0 -0.294 0.043 -0.424 0.132 L -3.424 2.191 C -3.766 2.426 -3.852 2.893 -3.618 3.234 C -3.383 3.575 -2.915 3.661 -2.575 3.428 L 0.426 1.368 C 0.767 1.134 0.854 0.667 0.619 0.325 C 0.474 0.113 0.239 0 0 0" transform="matrix(1,0,0,-1,11.8739,6.8659)"/>
  <path class="fill" d="M 0 0 C -0.153 0 -0.308 0.047 -0.44 0.144 C -0.775 0.388 -0.849 0.857 -0.605 1.191 L 1.271 3.767 C 1.517 4.104 1.986 4.176 2.319 3.932 C 2.654 3.688 2.728 3.218 2.484 2.884 L 0.607 0.309 C 0.46 0.106 0.231 0 0 0" transform="matrix(1,0,0,-1,11.8739,6.8659)"/>
  <path class="fill" d="M 0 0 C -0.301 0 -0.584 0.182 -0.699 0.479 C -0.849 0.865 -0.657 1.3 -0.271 1.449 L 3.604 2.949 C 3.991 3.099 4.424 2.907 4.574 2.521 C 4.723 2.135 4.532 1.7 4.145 1.551 L 0.271 0.051 C 0.182 0.017 0.09 0 0 0" transform="matrix(1,0,0,-1,8.0004,8.3659)"/>
  <path class="fill" d="M 0 0 C -0.186 0 -0.372 0.068 -0.517 0.207 C -0.817 0.492 -0.829 0.968 -0.543 1.268 L 2.482 4.443 C 2.769 4.742 3.243 4.754 3.542 4.469 C 3.843 4.184 3.854 3.708 3.568 3.408 L 0.543 0.232 C 0.396 0.078 0.198 0 0 0" transform="matrix(1,0,0,-1,4.975,11.5417)"/>
  <path class="fill" d="M 0 0 C -0.392 0 -0.722 0.305 -0.748 0.701 L -1.038 5.117 C -1.065 5.53 -0.752 5.888 -0.339 5.914 C 0.102 5.935 0.432 5.627 0.459 5.215 L 0.749 0.799 C 0.776 0.386 0.463 0.028 0.05 0.002 C 0.033 0.001 0.016 0 0 0" transform="matrix(1,0,0,-1,4.9745,11.5417)"/>
  <path class="fill" d="M 0 0 C -0.198 0 -0.396 0.078 -0.543 0.232 L -3.568 3.408 C -3.854 3.708 -3.842 4.184 -3.542 4.469 C -3.243 4.755 -2.768 4.743 -2.482 4.443 L 0.543 1.268 C 0.829 0.968 0.817 0.492 0.518 0.207 C 0.372 0.068 0.186 0 0 0" transform="matrix(1,0,0,-1,11.0253,11.5417)"/>
  <path class="fill" d="M 0 0 C -0.017 0 -0.033 0.001 -0.05 0.002 C -0.464 0.028 -0.776 0.386 -0.749 0.799 L -0.459 5.215 C -0.433 5.628 -0.068 5.936 0.338 5.914 C 0.752 5.888 1.064 5.53 1.037 5.117 L 0.747 0.701 C 0.722 0.305 0.392 0 0 0" transform="matrix(1,0,0,-1,11.0263,11.5417)"/>
</svg>
