<svg xmlns="http://www.w3.org/2000/svg" viewBox="0 0 16 16">
  <style>.fill{fill:currentColor}</style>
  <path class="fill" d="M 0 0 L 0.001 -0.017 C 0.001 -0.011 0.001 -0.006 0 0 M -0.069 -0.137 L -0.078 -0.142 C -0.075 -0.141 -0.072 -0.139 -0.069 -0.137 M 12.59 -0.146 C 12.596 -0.149 12.603 -0.153 12.608 -0.156 Z M 6.251 -3.674 L 9.47 -5.863 C 9.543 -5.911 9.642 -5.902 9.729 -5.829 L 12.221 -3.742 L 12.493 -0.095 L 9.813 1.336 L 6.251 -0.583 L 2.688 1.336 L 0.007 -0.097 L 0.284 -3.744 L 2.773 -5.829 C 2.859 -5.902 2.958 -5.909 3.049 -5.853 Z M 9.574 -7.389 C 9.252 -7.389 8.93 -7.298 8.644 -7.115 L 6.251 -5.488 L 3.876 -7.104 C 3.219 -7.525 2.396 -7.47 1.809 -6.979 L -0.736 -4.847 C -0.982 -4.641 -1.146 -4.349 -1.196 -4.024 L -1.489 -0.175 C -1.576 0.356 -1.278 0.945 -0.756 1.195 L 2.125 2.735 C 2.505 2.921 2.908 2.915 3.258 2.733 L 6.251 1.12 L 9.234 2.728 C 9.592 2.916 9.996 2.922 10.352 2.749 L 13.287 1.181 C 13.779 0.945 14.077 0.357 13.984 -0.234 L 13.706 -3.964 C 13.646 -4.349 13.483 -4.64 13.24 -4.845 L 10.692 -6.979 C 10.369 -7.251 9.973 -7.389 9.574 -7.389" transform="matrix(1,0,0,-1,1.7489,4.6228)"/>
  <path class="fill" d="M 0 0 L -1.5 0.014 L -1.458 4.552 L -4.154 6.057 L -6.851 4.552 L -6.809 0.014 L -8.309 0 L -8.358 5.429 L -4.154 7.775 L 0.05 5.429 Z" transform="matrix(1,0,0,-1,12.1542,11.2702)"/>
  <path class="fill" d="M 0 0 L -3.484 1.922 L -2.759 3.234 L 0.725 1.312 Z" transform="matrix(1,0,0,-1,4.1874,6.9362)"/>
  <path class="fill" d="M 0 0 L -0.725 1.312 L 2.76 3.234 L 3.484 1.922 Z" transform="matrix(1,0,0,-1,11.8124,6.9362)"/>
  <path class="fill" d="M 8.75 6.796 L 7.25 6.796 L 7.25 11.646 L 8.75 11.646 Z" transform="matrix(1,0,0,-1,0,16)"/>
  <path class="fill" d="M 0 0 C -0.257 0 -0.506 0.062 -0.739 0.182 L -4.354 2.596 L -3.519 3.842 L 0.021 1.472 C -0.002 1.489 0.049 1.489 0.101 1.516 L 3.566 3.842 L 4.4 2.596 L 0.861 0.226 C 0.57 0.073 0.28 0 0 0" transform="matrix(1,0,0,-1,7.9765,14.2458)"/>
</svg>
