<svg xmlns="http://www.w3.org/2000/svg" viewBox="0 0 16 16">
  <style>.fill{fill:currentColor}</style>
  <path class="fill" d="M 0 0 L -3.36 1.571 L -7.842 -0.375 L -7.015 -5.072 L 0 -10.373 L 7.015 -5.072 L 7.841 -0.375 L 3.359 1.571 Z M 3.382 -0.073 L 6.159 -1.28 L 5.639 -4.23 L 0 -8.492 L -5.639 -4.23 L -6.159 -1.28 L -3.382 -0.073 L 0 -1.656 Z" transform="matrix(1,0,0,-1,8.0001,3.6583)"/>
  <path class="fill" d="M 0 0 L -0.722 1.314 L 2.75 3.22 L 3.472 1.905 Z" transform="matrix(1,0,0,-1,4.8886,7.0485)"/>
  <path class="fill" d="M 0 0 L 3.528 -1.905 L 4.241 -0.585 L 0.713 1.32 Z" transform="matrix(1,0,0,-1,0.6435,5.146)"/>
  <path class="fill" d="M 0 0 L -0.245 4.261 L 1.252 4.347 L 1.497 0.086 Z" transform="matrix(1,0,0,-1,4.0243,10.695)"/>
  <path class="fill" d="M 0 0 L -0.751 1.299 L 2.476 3.164 L 3.227 1.865 Z" transform="matrix(1,0,0,-1,5.1483,11.3015)"/>
  <path class="fill" d="M 8.75 7.213 L 7.25 7.213 L 7.25 11.514 L 8.75 11.514 Z" transform="matrix(1,0,0,-1,0,16)"/>
  <path class="fill" d="M 0 0 L -3.473 1.905 L -2.751 3.22 L 0.721 1.314 Z" transform="matrix(1,0,0,-1,11.1122,7.0485)"/>
  <path class="fill" d="M 0 0 L 0.713 -1.32 L 4.241 0.585 L 3.528 1.905 Z" transform="matrix(1,0,0,-1,11.1159,5.731)"/>
  <path class="fill" d="M 0 0 L -1.498 0.086 L -1.252 4.347 L 0.246 4.261 Z" transform="matrix(1,0,0,-1,11.9755,10.695)"/>
  <path class="fill" d="M 0 0 L -3.227 1.865 L -2.476 3.164 L 0.75 1.299 Z" transform="matrix(1,0,0,-1,10.8515,11.3015)"/>
</svg>
