<svg xmlns="http://www.w3.org/2000/svg" viewBox="0 0 16 16">
  <style>.no-fill{fill:none}.stroke{stroke:currentColor;stroke-width:1.5px;stroke-linecap:round;stroke-linejoin:round}</style>
  <path class="no-fill stroke" d="M 0 0 C 0 0 -1.437 1.186 -2.052 2.18 C -2.609 3.082 -2.271 5.346 -0.214 5.346 C 2.344 5.346 2.716 4.014 2.716 3.355 C 2.716 2.518 0.904 2.42 0.904 2.42" transform="matrix(1,0,0,-1,7.8109,9.7849)"/>
  <path class="no-fill stroke" d="M 0 0 C 0 0 1.437 -1.186 2.052 -2.18 C 2.609 -3.082 2.271 -5.346 0.214 -5.346 C -2.344 -5.346 -2.716 -4.014 -2.716 -3.355 C -2.716 -2.518 -0.904 -2.42 -0.904 -2.42" transform="matrix(1,0,0,-1,8.1355,6.8756)"/>
  <path class="no-fill stroke" d="M 0 0 C 0 0 0.028 -10.044 -0.027 -12.98 C -0.037 -13.538 -0.502 -13.973 -1.059 -13.954 L -9.916 -13.455 C -10.44 -13.437 -10.86 -13.022 -10.878 -12.498 C -10.958 -10.205 -11.16 -3.983 -11.238 -1.582 C -11.256 -1.042 -10.84 -0.592 -10.301 -0.559 L -2.615 0.046 L -2.659 -2.037 C -2.254 -0.203 0.007 -1.034 0.007 -2.199" transform="matrix(1,0,0,-1,13.6159,1.0456)"/>
</svg>
