<svg xmlns="http://www.w3.org/2000/svg" viewBox="0 0 16 16">
  <style>.fill{fill:currentColor}</style>
  <path class="fill" d="M 0 0 C -0.168 0 -0.337 0.057 -0.477 0.172 C -0.54 0.224 -2.017 1.449 -2.689 2.536 C -3.175 3.321 -3.157 4.556 -2.646 5.473 C -2.153 6.359 -1.289 6.847 -0.214 6.847 C 3.288 6.847 3.466 4.563 3.466 4.105 C 3.466 2.964 2.163 2.487 0.944 2.421 C 0.533 2.411 0.179 2.715 0.156 3.128 C 0.132 3.542 0.449 3.895 0.862 3.919 C 1.281 3.943 1.788 4.071 1.963 4.19 C 1.91 4.937 1.142 5.347 -0.214 5.347 C -0.743 5.347 -1.11 5.149 -1.336 4.743 C -1.627 4.22 -1.567 3.572 -1.414 3.325 C -0.964 2.598 0.104 1.637 0.478 1.328 C 0.797 1.064 0.842 0.592 0.579 0.272 C 0.43 0.093 0.216 0 0 0" transform="matrix(1,0,0,-1,7.8105,10.5352)"/>
  <path class="fill" d="M 0 0 C -3.502 0 -3.68 2.283 -3.68 2.741 C -3.68 3.882 -2.377 4.359 -1.158 4.425 C -0.72 4.434 -0.393 4.129 -0.37 3.718 C -0.347 3.305 -0.663 2.951 -1.076 2.927 C -1.495 2.902 -2.002 2.775 -2.177 2.657 C -2.124 1.91 -1.355 1.5 0 1.5 C 0.529 1.5 0.896 1.697 1.122 2.104 C 1.413 2.626 1.353 3.273 1.2 3.521 C 0.75 4.249 -0.318 5.209 -0.691 5.518 C -1.011 5.782 -1.056 6.254 -0.792 6.574 C -0.528 6.893 -0.057 6.938 0.264 6.675 C 0.326 6.623 1.803 5.398 2.476 4.311 C 2.962 3.524 2.943 2.289 2.433 1.373 C 1.938 0.487 1.074 0 0 0" transform="matrix(1,0,0,-1,8.3496,12.9717)"/>
  <path class="fill" d="M 0 0 L -6.86 -0.54 C -7.008 -0.549 -7.11 -0.659 -7.106 -0.791 L -7.094 -1.157 C -7.009 -3.772 -6.822 -9.521 -6.747 -11.705 C -6.742 -11.834 -6.639 -11.935 -6.507 -11.938 L 2.366 -12.438 C 2.429 -12.449 2.503 -12.396 2.531 -12.369 C 2.564 -12.338 2.604 -12.283 2.605 -12.201 C 2.644 -10.145 2.642 -4.527 2.637 -1.403 C 2.606 -1.226 2.308 -0.986 1.991 -0.951 C 1.782 -0.931 1.559 -0.969 1.456 -1.432 C 1.372 -1.809 1.01 -2.055 0.635 -2.015 C 0.251 -1.969 -0.034 -1.64 -0.026 -1.254 Z M 2.361 -13.938 C 2.34 -13.938 2.319 -13.937 2.298 -13.937 L -6.575 -13.438 C -7.473 -13.405 -8.213 -12.668 -8.246 -11.758 C -8.321 -9.572 -8.509 -3.822 -8.594 -1.206 L -8.605 -0.839 C -8.636 0.11 -7.915 0.899 -6.964 0.957 L 0.709 1.56 C 0.917 1.58 1.128 1.503 1.282 1.358 C 1.437 1.212 1.521 1.008 1.518 0.797 L 1.512 0.514 C 1.714 0.554 1.929 0.562 2.154 0.54 C 2.313 0.522 2.476 0.486 2.634 0.433 C 2.633 0.638 2.633 0.754 2.633 0.765 C 2.632 1.179 2.967 1.516 3.381 1.517 C 3.755 1.488 4.132 1.183 4.133 0.769 C 4.133 0.74 4.135 -0.093 4.137 -1.336 C 4.139 -1.368 4.14 -1.4 4.14 -1.432 C 4.14 -1.453 4.139 -1.473 4.137 -1.493 C 4.142 -4.64 4.144 -10.182 4.105 -12.228 C 4.097 -12.697 3.905 -13.134 3.564 -13.458 C 3.236 -13.769 2.812 -13.938 2.361 -13.938" transform="matrix(1,0,0,-1,10.2334,1.8125)"/>
</svg>
