<svg xmlns="http://www.w3.org/2000/svg" viewBox="0 0 16 16">
  <style>.fill{fill:currentColor}</style>
  <path class="fill" d="M 0 0 C -0.184 0 -4.5 -0.047 -4.5 -4.106 C -4.5 -5.779 -3.829 -6.628 -3.119 -7.527 C -2.371 -8.475 -1.597 -9.455 -1.597 -11.294 L -1.596 -12.377 C -1.596 -12.72 -1.278 -13 -0.888 -13 L 0.888 -13 C 1.278 -13 1.596 -12.72 1.597 -12.376 L 1.597 -11.294 C 1.597 -9.455 2.37 -8.475 3.119 -7.527 C 3.829 -6.628 4.5 -5.779 4.5 -4.106 C 4.5 -0.047 0.184 0 0 0 M 0.888 -14 L -0.888 -14 C -1.829 -14 -2.596 -13.272 -2.596 -12.377 L -2.597 -11.294 C -2.597 -9.801 -3.203 -9.035 -3.904 -8.147 C -4.652 -7.2 -5.5 -6.126 -5.5 -4.106 C -5.5 -0.067 -1.902 1 0 1 C 1.902 1 5.5 -0.067 5.5 -4.106 C 5.5 -6.126 4.651 -7.2 3.903 -8.147 C 3.202 -9.035 2.597 -9.801 2.597 -11.294 L 2.597 -12.377 C 2.596 -13.272 1.829 -14 0.888 -14" transform="matrix(1,0,0,-1,8,1.4321)"/>
  <path class="fill" d="M 0 0 L -4.194 0 C -4.47 0 -4.694 0.224 -4.694 0.5 C -4.694 0.776 -4.47 1 -4.194 1 L 0 1 C 0.276 1 0.5 0.776 0.5 0.5 C 0.5 0.224 0.276 0 0 0" transform="matrix(1,0,0,-1,10.0967,13.2266)"/>
  <path class="fill" d="M 0 0 C -0.276 0 -0.5 0.224 -0.5 0.5 L -0.5 7.227 C -0.5 7.503 -0.276 7.727 0 7.727 C 0.276 7.727 0.5 7.503 0.5 7.227 L 0.5 0.5 C 0.5 0.224 0.276 0 0 0" transform="matrix(1,0,0,-1,8,13.2266)"/>
  <path class="fill" d="M 0 0 C -0.276 0 -0.5 0.224 -0.5 0.5 L -0.5 1.968 C -0.5 2.244 -0.276 2.468 0 2.468 C 0.276 2.468 0.5 2.244 0.5 1.968 L 0.5 0.5 C 0.5 0.224 0.276 0 0 0" transform="matrix(1,0,0,-1,6.1001,7.9673)"/>
  <path class="fill" d="M 0 0 C -0.276 0 -0.5 0.224 -0.5 0.5 L -0.5 1.968 C -0.5 2.244 -0.276 2.468 0 2.468 C 0.276 2.468 0.5 2.244 0.5 1.968 L 0.5 0.5 C 0.5 0.224 0.276 0 0 0" transform="matrix(1,0,0,-1,9.9004,7.9673)"/>
</svg>
