<svg xmlns="http://www.w3.org/2000/svg" viewBox="0 0 16 16">
  <style>.fill{fill:currentColor}</style>
  <path class="fill" d="M 0 0 C 0.414 0 0.75 -0.336 0.75 -0.75 L 0.75 -14.75 C 0.75 -15.164 0.414 -15.5 0 -15.5 C -0.414 -15.5 -0.75 -15.164 -0.75 -14.75 L -0.75 -0.75 C -0.75 -0.336 -0.414 0 0 0" transform="matrix(1,0,0,-1,8,0.25)"/>
  <path class="fill" d="M 0 0 C 0.192 0 0.384 -0.073 0.53 -0.22 L 6.791 -6.48 C 7.084 -6.773 7.084 -7.248 6.791 -7.541 C 6.498 -7.834 6.023 -7.834 5.73 -7.541 L 0 -1.811 L -5.73 -7.541 C -6.023 -7.834 -6.498 -7.834 -6.791 -7.541 C -7.084 -7.248 -7.084 -6.773 -6.791 -6.48 L -0.53 -0.22 C -0.384 -0.073 -0.192 0 0 0" transform="matrix(1,0,0,-1,8,0.25)"/>
</svg>
