<svg xmlns="http://www.w3.org/2000/svg" viewBox="0 0 16 16">
  <style>.fill{fill:currentColor}</style>
  <path class="fill" d="M 0 0 L 11.968 0 L 10.867 3.572 C 10.844 3.644 10.833 3.718 10.833 3.793 L 10.833 10.217 L 1.134 10.217 L 1.134 3.793 C 1.134 3.718 1.123 3.644 1.101 3.572 Z M 12.984 -1.5 L -1.016 -1.5 C -1.254 -1.5 -1.478 -1.387 -1.62 -1.195 C -1.761 -1.004 -1.803 -0.757 -1.733 -0.529 L -0.366 3.906 L -0.366 10.967 C -0.366 11.381 -0.03 11.717 0.384 11.717 L 11.583 11.717 C 11.998 11.717 12.333 11.381 12.333 10.967 L 12.333 3.906 L 13.701 -0.529 C 13.771 -0.757 13.729 -1.004 13.587 -1.195 C 13.446 -1.387 13.222 -1.5 12.984 -1.5" transform="matrix(1,0,0,-1,2.0161,13.1084)"/>
  <path class="fill" d="M 0 0 L -11.2 0 C -11.614 0 -11.95 0.336 -11.95 0.75 C -11.95 1.164 -11.614 1.5 -11.2 1.5 L 0 1.5 C 0.414 1.5 0.75 1.164 0.75 0.75 C 0.75 0.336 0.414 0 0 0" transform="matrix(1,0,0,-1,13.5996,10.0654)"/>
  <path class="fill" d="M 0 0 L -7.244 0 C -7.658 0 -7.994 0.336 -7.994 0.75 C -7.994 1.164 -7.658 1.5 -7.244 1.5 L 0 1.5 C 0.414 1.5 0.75 1.164 0.75 0.75 C 0.75 0.336 0.414 0 0 0" transform="matrix(1,0,0,-1,11.6221,12.3418)"/>
</svg>
