<svg xmlns="http://www.w3.org/2000/svg" viewBox="0 0 16 16">
  <style>.fill{fill:currentColor}</style>
  <path class="fill" d="M 0 0 L 1.059 1.41 C 1.199 1.375 1.342 1.35 1.492 1.35 L 10.492 1.35 C 10.608 1.35 10.721 1.362 10.831 1.384 L 11.958 0 Z M 1.042 10 L 10.942 10 C 11.08 10 11.192 9.888 11.194 9.801 L 10.742 3.1 C 10.742 2.962 10.63 2.85 10.492 2.85 L 1.492 2.85 C 1.354 2.85 1.242 2.962 1.24 3.15 L 0.792 9.75 C 0.792 9.888 0.904 10 1.042 10 M 13.479 0.507 L 12.036 2.277 C 12.163 2.512 12.241 2.773 12.24 3.049 L 12.692 9.75 C 12.692 10.715 11.907 11.5 10.942 11.5 L 1.042 11.5 C 0.077 11.5 -0.708 10.715 -0.706 9.699 L -0.258 3.1 C -0.258 2.839 -0.197 2.594 -0.094 2.372 L -1.518 0.477 C -1.793 0.101 -1.834 -0.39 -1.625 -0.804 C -1.406 -1.233 -0.965 -1.5 -0.473 -1.5 L 12.457 -1.5 C 12.949 -1.5 13.391 -1.233 13.608 -0.803 C 13.818 -0.39 13.777 0.101 13.479 0.507" transform="matrix(1,0,0,-1,2.0078,13)"/>
  <path class="fill" d="M 0 0 L 1 0 C 1.414 0 1.75 0.336 1.75 0.75 C 1.75 1.164 1.414 1.5 1 1.5 L 0 1.5 C -0.414 1.5 -0.75 1.164 -0.75 0.75 C -0.75 0.336 -0.414 0 0 0" transform="matrix(1,0,0,-1,7.5,5.25)"/>
</svg>
