<svg xmlns="http://www.w3.org/2000/svg" viewBox="0 0 16 16">
  <style>.fill{fill:currentColor}</style>
  <path class="fill" d="M 0 0 L 0 -7.347 L 4.694 0 Z M -0.75 -10.663 C -0.82 -10.663 -0.891 -10.653 -0.96 -10.633 C -1.28 -10.539 -1.5 -10.246 -1.5 -9.913 L -1.5 0.75 C -1.5 1.164 -1.164 1.5 -0.75 1.5 L 6.063 1.5 C 6.338 1.5 6.59 1.351 6.722 1.11 C 6.853 0.87 6.843 0.577 6.695 0.346 L -0.118 -10.317 C -0.258 -10.536 -0.499 -10.663 -0.75 -10.663" transform="matrix(1,0,0,-1,8.75,2.75)"/>
  <path class="fill" d="M 0 0 L 5.211 0 C 4.843 1.134 3.797 1.964 2.6 1.964 C 1.409 1.964 0.38 1.147 0 0 M 6.1 -1.5 L -0.9 -1.5 C -1.106 -1.5 -1.304 -1.415 -1.445 -1.265 C -1.587 -1.114 -1.661 -0.912 -1.648 -0.706 C -1.512 1.632 0.355 3.464 2.6 3.464 C 4.853 3.464 6.759 1.587 6.849 -0.721 C 6.858 -0.925 6.782 -1.123 6.641 -1.27 C 6.5 -1.417 6.304 -1.5 6.1 -1.5" transform="matrix(1,0,0,-1,8.8999,13.25)"/>
  <path class="fill" d="M 0 0 L 4.702 0 L 4.702 7.426 Z M 5.452 -1.5 L -1.362 -1.5 C -1.636 -1.5 -1.888 -1.352 -2.02 -1.111 C -2.151 -0.872 -2.142 -0.58 -1.996 -0.349 L 4.818 10.415 C 4.997 10.696 5.339 10.826 5.661 10.733 C 5.981 10.641 6.202 10.347 6.202 10.013 L 6.202 -0.75 C 6.202 -1.164 5.866 -1.5 5.452 -1.5" transform="matrix(1,0,0,-1,2.5483,13.25)"/>
  <path class="fill" d="M 0 0 C 0.369 -1.134 1.415 -1.964 2.611 -1.964 C 3.803 -1.964 4.831 -1.147 5.211 0 Z M 2.611 -3.464 C 0.358 -3.464 -1.548 -1.587 -1.638 0.721 C -1.646 0.924 -1.571 1.123 -1.429 1.27 C -1.288 1.417 -1.093 1.5 -0.889 1.5 L 6.111 1.5 C 6.318 1.5 6.515 1.415 6.657 1.265 C 6.799 1.114 6.872 0.912 6.86 0.706 C 6.723 -1.632 4.857 -3.464 2.611 -3.464" transform="matrix(1,0,0,-1,1.8887,2.75)"/>
</svg>
