<svg xmlns="http://www.w3.org/2000/svg" viewBox="0 0 16 16">
  <style>.fill{fill:currentColor}</style>
  <path class="fill" d="M 0 0 L 0.743 -7.852 C 0.746 -8.258 1.016 -8.551 1.348 -8.551 L 11.71 -8.551 C 12.042 -8.551 12.313 -8.258 12.313 -7.898 L 12.952 -0.003 L 6.474 4.347 Z M 11.71 -9.551 L 1.348 -9.551 C 0.464 -9.551 -0.254 -8.81 -0.254 -7.898 L -1.023 0.202 C -1.041 0.384 -0.957 0.562 -0.805 0.664 L 6.195 5.364 C 6.364 5.478 6.584 5.478 6.753 5.364 L 13.752 0.664 C 13.903 0.563 13.987 0.389 13.972 0.208 L 13.311 -7.938 C 13.313 -8.81 12.594 -9.551 11.71 -9.551" transform="matrix(1,0,0,-1,1.5259,5.9492)"/>
  <path class="fill" d="M 0 0 L -1 0 L -1 4.664 C -1 5.768 -1.897 6.665 -3 6.665 C -4.103 6.665 -5 5.768 -5 4.664 L -5 0 L -6 0 L -6 4.664 C -6 6.318 -4.654 7.665 -3 7.665 C -1.346 7.665 0 6.318 0 4.664 Z" transform="matrix(1,0,0,-1,11,15)"/>
  <path class="fill" d="M 0 0 C -0.276 0 -0.5 0.224 -0.5 0.5 L -0.5 3.785 C -0.5 4.061 -0.276 4.285 0 4.285 C 0.276 4.285 0.5 4.061 0.5 3.785 L 0.5 0.5 C 0.5 0.224 0.276 0 0 0" transform="matrix(1,0,0,-1,12.8916,4.7847)"/>
</svg>
