<svg xmlns="http://www.w3.org/2000/svg" viewBox="0 0 16 16">
  <style>.no-fill{fill:none}.stroke{stroke:currentColor;stroke-width:1.5px;stroke-linecap:round;stroke-linejoin:round}</style>
  <path class="no-fill stroke" d="M 0 0 L 0 -0.8" transform="matrix(1,0,0,-1,13.85,7.6)"/>
  <path class="no-fill stroke" d="M 0 0 L -0.338 -3.116 C -0.365 -3.37 -0.582 -3.563 -0.84 -3.563 L -6.415 -3.563 C -6.673 -3.563 -6.89 -3.37 -6.918 -3.116 L -7.255 0" transform="matrix(1,0,0,-1,11.6276,11.4372)"/>
  <path class="no-fill stroke" d="M 0 0 L 0.338 3.124 C 0.366 3.378 0.583 3.571 0.841 3.571 L 6.417 3.571 C 6.675 3.571 6.892 3.378 6.919 3.124 L 7.256 0.011" transform="matrix(1,0,0,-1,4.3712,4.5708)"/>
  <path class="no-fill stroke" d="M 0 0 C 0 -2.761 -2.239 -5 -5 -5 C -7.761 -5 -10 -2.761 -10 0 C -10 2.761 -7.761 5 -5 5 C -2.239 5 0 2.761 0 0 Z" transform="matrix(1,0,0,-1,13,8)"/>
  <path class="no-fill stroke" d="M 0 0 L 2.277 -1.772 L 4.186 -0.727" transform="matrix(1,0,0,-1,5.7231,6.2732)"/>
</svg>
