<svg xmlns="http://www.w3.org/2000/svg" viewBox="0 0 16 16">
  <style>.fill{fill:currentColor}</style>
  <path class="fill" d="M 0 0 C -0.414 0 -0.75 0.335 -0.75 0.75 L -0.75 1.549 C -0.75 1.963 -0.414 2.299 0 2.299 C 0.414 2.299 0.75 1.963 0.75 1.549 L 0.75 0.75 C 0.75 0.335 0.414 0 0 0" transform="matrix(1,0,0,-1,13.4248,9.1494)"/>
  <path class="fill" d="M 0 0 L -5.575 0 C -6.218 0 -6.754 0.48 -6.823 1.117 L -7.161 4.231 C -7.206 4.644 -6.908 5.014 -6.496 5.059 C -6.082 5.104 -5.714 4.805 -5.669 4.394 L -5.355 1.5 L -0.219 1.5 L 0.094 4.394 C 0.139 4.806 0.494 5.104 0.921 5.059 C 1.332 5.014 1.63 4.644 1.586 4.231 L 1.249 1.116 C 1.181 0.48 0.644 0 0 0" transform="matrix(1,0,0,-1,10.3623,15.75)"/>
  <path class="fill" d="M 0 0 C -0.027 0 -0.054 0.001 -0.082 0.004 C -0.494 0.049 -0.791 0.419 -0.747 0.831 L -0.408 3.955 C -0.34 4.591 0.197 5.071 0.84 5.071 L 6.416 5.071 C 7.059 5.071 7.595 4.591 7.664 3.955 L 8.001 0.842 C 8.045 0.43 7.747 0.06 7.336 0.016 C 6.929 -0.026 6.554 0.268 6.509 0.681 L 6.196 3.571 L 1.059 3.571 L 0.745 0.669 C 0.703 0.285 0.378 0 0 0" transform="matrix(1,0,0,-1,3.9473,5.3208)"/>
  <path class="fill" d="M 0 0 C -2.343 0 -4.25 -1.907 -4.25 -4.25 C -4.25 -6.594 -2.343 -8.5 0 -8.5 C 2.344 -8.5 4.25 -6.594 4.25 -4.25 C 4.25 -1.907 2.344 0 0 0 M 0 -10 C -3.17 -10 -5.75 -7.421 -5.75 -4.25 C -5.75 -1.08 -3.17 1.5 0 1.5 C 3.171 1.5 5.75 -1.08 5.75 -4.25 C 5.75 -7.421 3.171 -10 0 -10" transform="matrix(1,0,0,-1,7.5752,3.75)"/>
  <path class="fill" d="M 0 0 C -0.164 0 -0.326 0.053 -0.46 0.158 L -2.737 1.93 C -3.064 2.184 -3.123 2.655 -2.869 2.982 C -2.615 3.309 -2.144 3.368 -1.816 3.113 L 0.072 1.645 L 1.548 2.453 C 1.914 2.651 2.367 2.518 2.566 2.155 C 2.765 1.792 2.632 1.336 2.269 1.137 L 0.36 0.092 C 0.248 0.03 0.124 0 0 0" transform="matrix(1,0,0,-1,7.5752,8.7949)"/>
</svg>
