<svg xmlns="http://www.w3.org/2000/svg" viewBox="0 0 16 16">
  <style>.fill{fill:currentColor}</style>
  <path class="fill" d="M 0 0 L -6.286 0 C -6.665 0 -6.984 0.282 -7.031 0.659 L -7.459 4.16 C -7.51 4.571 -7.217 4.945 -6.806 4.995 C -6.388 5.05 -6.021 4.754 -5.97 4.342 L -5.623 1.5 L -0.664 1.5 L -0.315 4.342 C -0.266 4.754 0.118 5.043 0.52 4.995 C 0.931 4.945 1.224 4.571 1.173 4.16 L 0.744 0.659 C 0.698 0.282 0.379 0 0 0" transform="matrix(1,0,0,-1,10.751,15.75)"/>
  <path class="fill" d="M 0 0 C -0.373 0 -0.697 0.279 -0.743 0.659 L -1.092 3.501 L -6.05 3.501 L -6.398 0.659 C -6.449 0.248 -6.815 -0.044 -7.234 0.005 C -7.645 0.056 -7.937 0.43 -7.887 0.841 L -7.458 4.342 C -7.412 4.718 -7.093 5.001 -6.714 5.001 L -0.428 5.001 C -0.049 5.001 0.271 4.718 0.316 4.342 L 0.745 0.841 C 0.796 0.43 0.503 0.056 0.092 0.005 C 0.062 0.002 0.03 0 0 0" transform="matrix(1,0,0,-1,11.1787,5.251)"/>
  <path class="fill" d="M 0 0 C 0 -2.761 -2.239 -5 -5 -5 C -7.761 -5 -10 -2.761 -10 0 C -10 2.761 -7.761 5 -5 5 C -2.239 5 0 2.761 0 0" transform="matrix(1,0,0,-1,12.6078,8)"/>
  <path class="fill" d="M 0 0 C -2.343 0 -4.25 -1.907 -4.25 -4.25 C -4.25 -6.594 -2.343 -8.5 0 -8.5 C 2.343 -8.5 4.25 -6.594 4.25 -4.25 C 4.25 -1.907 2.343 0 0 0 M 0 -10 C -3.17 -10 -5.75 -7.421 -5.75 -4.25 C -5.75 -1.08 -3.17 1.5 0 1.5 C 3.17 1.5 5.75 -1.08 5.75 -4.25 C 5.75 -7.421 3.17 -10 0 -10" transform="matrix(1,0,0,-1,7.6079,3.75)"/>
  <path class="fill" d="M 0 0 L 0 0.5" transform="matrix(1,0,0,-1,13.3922,8.25)"/>
  <path class="fill" d="M 0 0 C -0.414 0 -0.75 0.336 -0.75 0.75 L -0.75 1.25 C -0.75 1.664 -0.414 2 0 2 C 0.414 2 0.75 1.664 0.75 1.25 L 0.75 0.75 C 0.75 0.336 0.414 0 0 0" transform="matrix(1,0,0,-1,13.3926,9)"/>
  <path class="fill" d="M 0 0 L 2.185 -1.608" transform="matrix(1,0,0,-1,5.423,6.3922)"/>
  <path class="fill" d="M 0 0 C -0.154 0 -0.31 0.047 -0.444 0.146 L -2.629 1.754 C -2.963 2 -3.034 2.469 -2.789 2.802 C -2.543 3.135 -2.074 3.208 -1.74 2.962 L 0.445 1.354 C 0.779 1.108 0.85 0.639 0.604 0.306 C 0.458 0.106 0.23 0 0 0" transform="matrix(1,0,0,-1,7.6074,8.75)"/>
  <path class="fill" d="M 0 0 L -1.864 -0.571" transform="matrix(1,0,0,-1,9.4717,7.4286)"/>
  <path class="fill" d="M 0 0 C -0.321 0 -0.618 0.208 -0.717 0.53 C -0.838 0.926 -0.615 1.346 -0.219 1.467 L 1.645 2.039 C 2.045 2.161 2.46 1.936 2.581 1.541 C 2.703 1.145 2.48 0.726 2.084 0.604 L 0.22 0.033 C 0.147 0.01 0.073 0 0 0" transform="matrix(1,0,0,-1,7.6074,8.75)"/>
</svg>
