<svg xmlns="http://www.w3.org/2000/svg" viewBox="0 0 16 16">
  <style>.fill{fill:currentColor}</style>
  <path class="fill" d="M 0 0 C -0.201 0 -0.4 0.08 -0.548 0.238 L -4.748 4.738 C -5.017 5.026 -5.017 5.474 -4.748 5.762 L -0.548 10.262 C -0.267 10.565 0.209 10.581 0.512 10.298 C 0.814 10.016 0.831 9.541 0.548 9.238 L -3.173 5.25 L 0.548 1.262 C 0.831 0.959 0.814 0.484 0.512 0.201 C 0.367 0.066 0.184 0 0 0" transform="matrix(1,0,0,-1,5.1992,13.25)"/>
  <path class="fill" d="M 0 0 C -0.184 0 -0.367 0.066 -0.512 0.201 C -0.814 0.484 -0.831 0.959 -0.549 1.262 L 3.174 5.25 L -0.549 9.238 C -0.831 9.541 -0.814 10.016 -0.512 10.298 C -0.21 10.581 0.265 10.565 0.548 10.262 L 4.748 5.762 C 5.017 5.474 5.017 5.026 4.748 4.738 L 0.548 0.238 C 0.4 0.08 0.2 0 0 0" transform="matrix(1,0,0,-1,10.8008,13.25)"/>
</svg>
