<svg xmlns="http://www.w3.org/2000/svg" viewBox="0 0 16 16">
  <style>.no-fill{fill:none}.stroke{stroke:currentColor;stroke-width:1.5px;stroke-linecap:round;stroke-linejoin:round}</style>
  <path class="no-fill stroke" d="M 0 0 C 0 -3.866 -3.134 -7 -7 -7 C -10.866 -7 -14 -3.866 -14 0 C -14 3.866 -10.866 7 -7 7 C -3.134 7 0 3.866 0 0 Z" transform="matrix(1,0,0,-1,15,8)"/>
  <path class="no-fill stroke" d="M 0 0 C 0 1.638 0.189 1.628 0.801 1.683 C 1.712 1.765 2.563 2.608 2.464 2.012 C 1.93 -1.214 3.506 0.435 4.469 -1.829 C 4.935 -2.924 7.781 -3.251 7.716 -2.508 C 7.574 -0.888 7.087 -1.164 7.863 0.426 C 8.159 1.034 8.179 1.921 6.397 2.414 C 5.261 2.728 5.276 3.012 5.143 3.406 C 4.97 3.919 4.353 4.002 3.503 4.056 C 2.444 4.124 2.438 3.794 1.927 3.928 C 1.324 4.086 0.221 4.49 1.251 6.453" transform="matrix(1,0,0,-1,1.3068,10.0508)"/>
  <path class="no-fill stroke" d="M 0 0 C 2.283 2.673 3.535 -0.747 5.505 -0.098 C 7.144 0.441 4.641 1.811 6.623 2.498" transform="matrix(1,0,0,-1,2.5578,3.5979)"/>
  <path class="no-fill stroke" d="M 0 0 C 1.556 -1.464 -0.871 -1.942 -1.199 -2.473 C -1.511 -2.978 -1.524 -4.033 -1.077 -4.239 C -0.631 -4.445 -0.101 -3.736 0.347 -4.662 C 0.979 -5.97 -0.434 -8.676 0.368 -8.844 C 2.888 -9.37 2.451 -5.233 3.234 -6.926" transform="matrix(1,0,0,-1,11.7662,2.0992)"/>
</svg>
