<svg xmlns="http://www.w3.org/2000/svg" viewBox="0 0 16 16">
  <style>.fill{fill:currentColor}</style>
  <path class="fill" d="M 0 0 C -3.446 0 -6.25 -2.804 -6.25 -6.25 C -6.25 -9.696 -3.446 -12.5 0 -12.5 C 3.446 -12.5 6.25 -9.696 6.25 -6.25 C 6.25 -2.804 3.446 0 0 0 M 0 -14 C -4.273 -14 -7.75 -10.523 -7.75 -6.25 C -7.75 -1.977 -4.273 1.5 0 1.5 C 4.273 1.5 7.75 -1.977 7.75 -6.25 C 7.75 -10.523 4.273 -14 0 -14" transform="matrix(1,0,0,-1,8,1.75)"/>
  <path class="fill" d="M 0 0 C -1.084 0 -2.639 0.453 -3.098 1.534 C -3.393 2.226 -3.709 2.393 -4.077 2.587 C -4.888 3.015 -5.314 3.499 -5.266 4.764 C -5.493 4.683 -5.743 4.615 -6.009 4.592 C -6.037 4.589 -6.062 4.587 -6.084 4.585 C -6.105 4.442 -6.127 4.171 -6.127 3.655 L -7.627 3.655 C -7.627 5.084 -7.529 5.961 -6.173 6.083 C -5.872 6.11 -5.553 6.261 -5.297 6.383 C -4.913 6.566 -4.435 6.792 -3.993 6.459 C -3.836 6.341 -3.586 6.066 -3.673 5.545 C -3.897 4.188 -3.755 4.113 -3.376 3.913 C -2.916 3.67 -2.221 3.303 -1.718 2.121 C -1.563 1.758 -0.513 1.507 0.043 1.489 C 0.006 1.726 -0.039 1.903 -0.079 2.065 C -0.264 2.806 -0.278 3.2 0.311 4.409 C 0.387 4.564 0.405 4.687 0.367 4.772 C 0.333 4.848 0.155 5.115 -0.68 5.346 C -1.887 5.679 -2.211 6.075 -2.416 6.734 C -2.559 6.908 -3.208 6.949 -3.422 6.963 C -3.855 6.989 -4.03 6.939 -4.197 6.891 C -4.41 6.829 -4.701 6.743 -5.141 6.857 C -5.423 6.932 -6.283 7.158 -6.644 7.977 C -6.935 8.637 -6.819 9.448 -6.29 10.457 L -4.962 9.76 C -5.294 9.127 -5.339 8.736 -5.271 8.582 C -5.209 8.441 -4.949 8.358 -4.759 8.308 C -4.697 8.308 -4.659 8.318 -4.62 8.33 C -4.384 8.399 -4.029 8.505 -3.326 8.46 C -2.548 8.41 -1.373 8.335 -1.023 7.302 L -0.983 7.179 C -0.969 7.132 -0.949 7.068 -0.939 7.05 C -0.937 7.05 -0.827 6.943 -0.28 6.792 C 0.767 6.502 1.444 6.03 1.734 5.389 C 1.962 4.884 1.936 4.318 1.659 3.752 C 1.254 2.92 1.272 2.845 1.376 2.43 C 1.443 2.161 1.535 1.793 1.586 1.213 C 1.622 0.802 1.398 0.256 0.648 0.068 C 0.469 0.023 0.247 0 0 0" transform="matrix(1,0,0,-1,8.1836,13.7061)"/>
  <path class="fill" d="M 0 0 C -0.779 0 -1.443 0.388 -2.002 0.715 C -3.003 1.301 -3.461 1.569 -4.42 0.446 L -5.561 1.42 C -3.786 3.498 -2.256 2.603 -1.244 2.01 C -0.59 1.627 -0.166 1.4 0.28 1.547 C 0.298 1.553 0.313 1.558 0.328 1.563 C 0.309 1.626 0.283 1.698 0.263 1.754 C 0.135 2.117 -0.059 2.665 0.211 3.226 C 0.407 3.634 0.792 3.933 1.387 4.139 L 1.878 2.722 C 1.617 2.631 1.552 2.558 1.551 2.557 C 1.572 2.553 1.635 2.374 1.677 2.255 C 1.805 1.893 1.981 1.397 1.729 0.884 C 1.558 0.536 1.229 0.28 0.749 0.122 C 0.488 0.036 0.239 0 0 0" transform="matrix(1,0,0,-1,7.5483,4.5308)"/>
  <path class="fill" d="M 0 0 Z M 1.223 -4.781 C 1.035 -4.781 0.834 -4.76 0.618 -4.715 C -0.505 -4.48 -0.24 -3.17 -0.047 -2.214 C 0.094 -1.518 0.287 -0.563 0.075 -0.125 C 0.066 -0.108 0.059 -0.093 0.052 -0.08 C 0.038 -0.083 0.025 -0.086 0.013 -0.09 C -0.213 -0.146 -0.588 -0.241 -0.988 -0.056 C -1.216 0.049 -1.522 0.283 -1.678 0.798 C -1.864 1.417 -1.762 2.252 -1.435 2.784 C -1.241 3.095 -0.916 3.28 -0.539 3.493 C -0.332 3.611 0.096 3.854 0.172 3.994 C 0.158 3.997 0.108 4.112 -0.109 4.317 L 0.918 5.409 C 1.476 4.885 1.726 4.344 1.66 3.802 C 1.559 2.959 0.774 2.514 0.201 2.188 C 0.063 2.11 -0.145 1.992 -0.2 1.94 C -0.261 1.833 -0.284 1.574 -0.27 1.385 C 0.114 1.475 0.914 1.586 1.426 0.527 C 1.857 -0.365 1.616 -1.556 1.423 -2.512 C 1.377 -2.741 1.315 -3.046 1.285 -3.275 C 1.702 -3.235 1.955 -2.876 2.286 -1.973 C 2.456 -1.508 2.668 -0.93 3.287 -0.904 C 3.92 -0.889 4.199 -1.489 4.318 -1.749 L 3.039 -2.339 C 3.12 -2.379 3.221 -2.402 3.357 -2.403 C 3.633 -2.387 3.793 -2.213 3.827 -2.153 C 3.783 -2.23 3.745 -2.349 3.694 -2.488 C 3.433 -3.204 2.855 -4.781 1.223 -4.781" transform="matrix(1,0,0,-1,11.3623,6.9624)"/>
</svg>
