<?xml version="1.0" encoding="UTF-8"?>
<svg id="Layer_1" xmlns="http://www.w3.org/2000/svg" version="1.1" viewBox="0 0 15.5 15.5">
  <!-- Generator: Adobe Illustrator 30.5.1, SVG Export Plug-In . SVG Version: 2.1.4 Build 3)  -->
  <g>
    <path d="M7.8,10.1c-.2,0-.4,0-.5-.2l-3-3c-.3-.3-.3-.8,0-1.1s.8-.3,1.1,0l2.5,2.5,2.5-2.5c.3-.3.8-.3,1.1,0s.3.8,0,1.1l-3,3c-.1.1-.3.2-.5.2h-.2Z"/>
    <path d="M7.8,10.1c-.4,0-.8-.3-.8-.8V.8c0-.4.3-.8.8-.8s.8.3.8.8v8.6c0,.4-.3.8-.8.8h0Z"/>
  </g>
  <path d="M12.8,15.5H2.8c-1.5,0-2.8-1.2-2.8-2.8v-3.3c0-.4.3-.8.8-.8s.8.3.8.8v3.3c0,.7.6,1.2,1.2,1.2h10c.7,0,1.2-.6,1.2-1.2v-3.3c0-.4.3-.8.8-.8s.8.3.8.8v3.3c0,1.5-1.2,2.8-2.8,2.8Z"/>
</svg>