<svg xmlns="http://www.w3.org/2000/svg" viewBox="0 0 16 16">
  <style>.fill{fill:currentColor}</style>
  <path class="fill" d="M 0 0 C -0.138 0 -0.25 -0.112 -0.25 -0.25 L -0.25 -10.25 C -0.25 -10.388 -0.138 -10.5 0 -10.5 L 12 -10.5 C 12.138 -10.5 12.25 -10.388 12.25 -10.25 L 12.25 -0.25 C 12.25 -0.112 12.138 0 12 0 Z M 12 -12 L 0 -12 C -0.965 -12 -1.75 -11.215 -1.75 -10.25 L -1.75 -0.25 C -1.75 0.715 -0.965 1.5 0 1.5 L 12 1.5 C 12.965 1.5 13.75 0.715 13.75 -0.25 L 13.75 -10.25 C 13.75 -11.215 12.965 -12 12 -12" transform="matrix(1,0,0,-1,2,2.75)"/>
  <path class="fill" d="M 0 0 C -0.192 0 -0.384 0.073 -0.53 0.22 C -0.823 0.513 -0.823 0.987 -0.53 1.28 L 4.568 6.379 C 4.861 6.672 5.336 6.672 5.629 6.379 L 7.992 4.016 C 8.285 3.723 8.285 3.249 7.992 2.956 C 7.699 2.663 7.225 2.663 6.932 2.956 L 5.099 4.788 L 0.53 0.22 C 0.384 0.073 0.192 0 0 0" transform="matrix(1,0,0,-1,7.4863,11.5107)"/>
  <path class="fill" d="M 0 0 C -0.192 0 -0.384 0.073 -0.53 0.22 C -0.823 0.513 -0.823 0.987 -0.53 1.28 L 4.881 6.692 C 5.163 6.974 5.661 6.974 5.942 6.692 L 8.101 4.534 C 8.393 4.241 8.393 3.767 8.101 3.474 C 7.807 3.181 7.333 3.181 7.04 3.474 L 5.412 5.102 L 0.53 0.22 C 0.384 0.073 0.192 0 0 0" transform="matrix(1,0,0,-1,1,13.6816)"/>
  <path class="fill" d="M 0 0 C -2.092 0 -3.794 1.702 -3.794 3.794 C -3.794 4.208 -3.458 4.544 -3.044 4.544 C -2.63 4.544 -2.294 4.208 -2.294 3.794 C -2.294 2.529 -1.265 1.5 0 1.5 C 1.265 1.5 2.294 2.529 2.294 3.794 C 2.294 4.208 2.63 4.544 3.044 4.544 C 3.458 4.544 3.794 4.208 3.794 3.794 C 3.794 1.702 2.092 0 0 0" transform="matrix(1,0,0,-1,5.5132,5.7939)"/>
</svg>
