<svg xmlns="http://www.w3.org/2000/svg" viewBox="0 0 16 16">
  <style>.fill{fill:currentColor}</style>
  <path class="fill" d="M 0 0 C 0.821 -0.573 1.643 -0.959 2.433 -1.271 C 2.492 -1.145 2.554 -1.005 2.616 -0.861 L 2.039 -0.572 C 1.67 -0.389 1.52 0.059 1.7 0.428 C 1.881 0.799 2.326 0.953 2.698 0.775 C 3.765 0.265 4.457 0.024 6.185 0.024 C 7.907 0.024 8.682 0.256 9.769 0.775 C 10.143 0.951 10.585 0.798 10.766 0.428 C 10.947 0.058 10.795 -0.389 10.427 -0.572 L 9.849 -0.861 C 9.912 -1.005 9.974 -1.145 10.033 -1.27 C 10.823 -0.959 11.645 -0.572 12.465 0 C 12.584 2.31 12.114 5.489 10.772 7.804 C 10.168 8.056 9.494 8.273 8.788 8.442 C 8.764 8.37 8.747 8.304 8.741 8.263 C 8.741 8.041 8.643 7.846 8.472 7.704 C 8.301 7.561 8.077 7.519 7.858 7.559 C 7.678 7.591 7.527 7.626 7.382 7.66 C 7.044 7.738 6.801 7.795 6.233 7.795 C 5.666 7.795 5.421 7.738 5.084 7.66 C 4.939 7.626 4.788 7.591 4.607 7.559 C 4.391 7.518 4.164 7.578 3.993 7.721 C 3.822 7.863 3.723 8.074 3.723 8.296 C 3.719 8.324 3.703 8.379 3.681 8.442 C 2.974 8.273 2.298 8.056 1.694 7.804 C 0.352 5.489 -0.119 2.31 0 0 M 2.774 -2.95 C 2.688 -2.95 2.602 -2.936 2.518 -2.905 C 1.355 -2.483 0.104 -1.96 -1.175 -1.001 C -1.347 -0.872 -1.456 -0.676 -1.473 -0.461 C -1.684 2.176 -1.145 6.059 0.536 8.79 C 0.615 8.918 0.731 9.021 0.87 9.082 C 1.774 9.484 2.831 9.813 3.926 10.032 C 4.173 10.08 4.426 10.004 4.604 9.827 C 4.76 9.67 4.897 9.431 5.002 9.179 C 5.305 9.242 5.662 9.295 6.233 9.295 C 6.804 9.295 7.161 9.242 7.463 9.179 C 7.568 9.43 7.706 9.669 7.861 9.825 C 8.038 10.004 8.293 10.081 8.54 10.032 C 9.634 9.813 10.692 9.484 11.596 9.082 C 11.735 9.021 11.851 8.918 11.93 8.79 C 13.611 6.059 14.15 2.176 13.939 -0.461 C 13.921 -0.676 13.813 -0.872 13.641 -1.001 C 12.363 -1.96 11.111 -2.482 9.948 -2.905 C 9.637 -3.018 9.291 -2.915 9.092 -2.65 C 8.867 -2.351 8.59 -1.741 8.401 -1.289 C 7.79 -1.413 7.09 -1.476 6.185 -1.476 C 5.31 -1.476 4.646 -1.419 4.06 -1.299 C 3.871 -1.75 3.597 -2.353 3.374 -2.65 C 3.229 -2.843 3.005 -2.95 2.774 -2.95" transform="matrix(1,0,0,-1,1.7671,11.5479)"/>
  <path class="fill" d="M 0 0 C -0.273 0 -0.505 -0.299 -0.505 -0.653 C -0.505 -1.008 -0.273 -1.308 0 -1.308 C 0.274 -1.308 0.505 -1.008 0.505 -0.653 C 0.505 -0.299 0.274 0 0 0 M 0 -2.808 C -1.105 -2.808 -2.005 -1.841 -2.005 -0.653 C -2.005 0.534 -1.105 1.5 0 1.5 C 1.106 1.5 2.005 0.534 2.005 -0.653 C 2.005 -1.841 1.106 -2.808 0 -2.808" transform="matrix(1,0,0,-1,5.5391,7.2012)"/>
  <path class="fill" d="M 0 0 C -0.273 0 -0.505 -0.299 -0.505 -0.653 C -0.505 -1.008 -0.273 -1.308 0 -1.308 C 0.273 -1.308 0.505 -1.008 0.505 -0.653 C 0.505 -0.299 0.273 0 0 0 M 0 -2.808 C -1.105 -2.808 -2.005 -1.841 -2.005 -0.653 C -2.005 0.534 -1.105 1.5 0 1.5 C 1.105 1.5 2.005 0.534 2.005 -0.653 C 2.005 -1.841 1.105 -2.808 0 -2.808" transform="matrix(1,0,0,-1,10.4609,7.2012)"/>
</svg>
